<svg xmlns="http://www.w3.org/2000/svg" width="80" height="80" viewBox="0 0 80 80">
    <g fill="none">
        <path fill="#FFF" d="M39.901 0C17.865 0 0 17.865 0 39.901c0 22.037 17.865 39.902 39.901 39.902 22.037 0 39.902-17.865 39.902-39.902C79.803 17.865 61.938 0 39.9 0zm37.307 39.901c0 20.603-16.701 37.307-37.307 37.307-20.605 0-37.306-16.704-37.306-37.307C2.595 19.3 19.299 2.595 39.9 2.595c20.603 0 37.307 16.704 37.307 37.306z"/>
        <g fill="#FFF">
            <path d="M48.213 18.28c.542.582 1.324 1.52 1.762 2.09l8.08-5.128c-.403-.528-1.046-1.33-1.527-1.895L51.41 16.73l-.35.3.261-.38 2.26-4.51-1.598-1.597-4.512 2.26-.38.26.303-.35L50.78 7.6c-.596-.507-1.168-.971-1.898-1.534l-5.128 8.072c.65.5 1.506 1.234 2.052 1.734l4.829-2.506.31-.227-.228.31-2.504 4.832zM29.88 8.05l2.207-4.946.14-.439-.04.458.233 6.608c.774.073 1.574.181 2.362.312L34.423.256c-1.102-.122-2.2-.21-3.298-.256L28.95 5.398l-.077.401-.078-.4L26.623 0c-1.098.047-2.196.134-3.299.256l-.359 9.787c.789-.131 1.589-.237 2.363-.312l.232-6.608-.04-.458.141.439 2.208 4.945h2.01zM12.023 15.85c1.277-1.344 2-2.898.723-4.38-.694-.805-1.86-.98-2.827-.584l-.096.037.03-.084c.143-.383.235-1.603-.804-2.445-.507-.41-1.143-.563-1.786-.497-1.198.122-2.12.94-4.63 3.74-.759.844-1.861 2.176-2.523 3.04l6.895 6.54c2.285-2.528 3.217-3.47 5.018-5.367zm-8.997-1.6c1.39-1.699 2.865-3.24 3.534-3.85.21-.192.44-.385.72-.46.453-.124.92.197 1.025.662.106.467-.188.91-.514 1.276-.734.828-3.427 3.646-3.427 3.646L3.026 14.25zm2.7 2.562s2.624-2.773 3.48-3.66c.34-.352.558-.565.793-.68.302-.148.633-.179.929.018.29.195.424.53.352.864-.087.396-.41.774-.678 1.062l-3.477 3.721-1.398-1.325z" transform="translate(11.026 4.692)"/>
        </g>
        <path fill="#FFF" d="M63.564 39.901H39.9V16.24c13.077 0 23.663 10.586 23.663 23.662z"/>
        <path fill="#FFF" d="M39.901 39.901v23.663c-13.076 0-23.662-10.586-23.662-23.663h23.662z"/>
        <path fill="#0066B1" d="M39.901 16.24V39.9H16.24c0-13.076 10.586-23.662 23.662-23.662zM63.564 39.901c0 13.077-10.586 23.663-23.663 23.663V39.9h23.663z"/>
    </g>
</svg>
