<svg xmlns="http://www.w3.org/2000/svg" xmlns:xlink="http://www.w3.org/1999/xlink" width="48" height="48" viewBox="0 0 48 48">
    <defs>
        <path id="x559n9po1a" d="M0 0L31.982 0 31.982 23.838 0 23.838z"/>
    </defs>
    <g fill="none" fill-rule="evenodd" transform="translate(8 12)">
        <mask id="8qooll8gmb" fill="#fff">
            <use xlink:href="#x559n9po1a"/>
        </mask>
        <path fill="#0066B1" d="M23.977 15.883c1.511 0 3 .02 4.488-.01.517-.01.912-.339 1.218-.749.618-.827.579-1.766.505-2.734-1.27 0-2.498-.007-3.725.006-.225.002-.459.06-.673.134-1.406.493-2.066 1.701-1.813 3.353zm-15.919.001c0-.26.002-.485 0-.711-.015-1.489-.897-2.576-2.384-2.735-1.11-.119-2.239-.057-3.359-.071-.471-.006-.943-.001-1.436-.001-.119 1.153.042 2.139 1.029 2.82.686.474 1.436.743 2.284.732 1.122-.014 2.243-.002 3.365-.005.149 0 .297-.016.501-.029zm7.931-2.88c-.448-.438-.934-.635-1.563-.637-1.199-.003-2.398-.003-3.597.001-.168 0-.338.017-.502.051-.927.193-1.198.659-.923 1.574.308 1.026 1.247 1.82 2.323 1.887.827.052 1.66.013 2.489.039.67.02 1.278-.113 1.684-.524.516.187.959.459 1.42.492.962.068 1.936.049 2.901-.006.998-.056 1.732-.601 2.193-1.473.635-1.198.129-2.03-1.225-2.04-1.215-.01-2.43-.006-3.644 0-.588.002-1.113.183-1.556.636zm9.875-5.972c-.633-1.226-1.176-2.357-1.79-3.448-.661-1.173-1.703-1.818-3.056-1.827-3.352-.023-6.704-.02-10.056 0-.989.006-1.882.347-2.533 1.128C7.43 4.08 6.82 5.49 6.28 6.934c-.007.02.02.052.04.098h19.544zm-.082 14.212H6.2c0 .267.002.52 0 .774-.012 1.092-.676 1.782-1.775 1.806-.876.02-1.753.019-2.63 0-1.1-.023-1.77-.7-1.783-1.805-.016-1.415-.005-2.83-.005-4.246 0-2.2.009-4.399-.008-6.598-.003-.39.097-.648.428-.883.89-.63 1.751-1.304 2.622-1.962.083-.063.155-.14.298-.268-.806-.181-1.546-.344-2.284-.515-.816-.189-1.13-.606-1.04-1.363.062-.51.501-.846 1.023-.837 1.046.018 2.093.026 3.137 0 .168-.005.374-.175.489-.325.793-1.037 1.549-2.102 2.35-3.133C8.032.587 9.458.065 11.03.039c3.306-.053 6.614-.05 9.92-.003 1.783.026 3.275.748 4.345 2.23.666.923 1.35 1.831 2.001 2.763.17.244.34.346.638.339 1.03-.025 2.06-.02 3.09-.032.4-.005.845.352.924.754.124.63-.09 1.152-.636 1.322-.687.214-1.4.348-2.1.517l-.576.137c.154.133.256.231.37.316.87.659 1.739 1.32 2.619 1.966.243.179.357.37.356.686-.011 3.63-.003 7.26-.01 10.89-.001 1.222-.66 1.886-1.875 1.904-.861.012-1.723.016-2.584-.005-1.038-.026-1.714-.726-1.73-1.756-.004-.259 0-.517 0-.823z" mask="url(#8qooll8gmb)"/>
    </g>
</svg>
