<svg xmlns="http://www.w3.org/2000/svg" xmlns:xlink="http://www.w3.org/1999/xlink" width="375" height="148" viewBox="0 0 375 148">
    <defs>
        <radialGradient id="upvwdq5s7b" cx="57.548%" cy="38.528%" r="236.754%" fx="57.548%" fy="38.528%" gradientTransform="scale(-.39467 -1) rotate(31.775 .912 -3.572)">
            <stop offset="0%" stop-color="#838C9C"/>
            <stop offset="39.218%" stop-color="#D8DCE0"/>
            <stop offset="100%" stop-color="#F5F6F8"/>
        </radialGradient>
        <radialGradient id="u461ohhe8c" cx="56.361%" cy="60.512%" r="36.877%" fx="56.361%" fy="60.512%">
            <stop offset="0%" stop-color="#8DCEFF"/>
            <stop offset="100%" stop-color="#C2E5FF" stop-opacity="0"/>
        </radialGradient>
        <radialGradient id="qrhv9jzupe" cx="52.13%" cy="48.514%" r="44.163%" fx="52.13%" fy="48.514%">
            <stop offset="0%" stop-color="#6380B6"/>
            <stop offset="100%" stop-color="#D3D6DB" stop-opacity="0"/>
        </radialGradient>
        <radialGradient id="e8gkfnh21f" cx="52.13%" cy="48.514%" r="44.163%" fx="52.13%" fy="48.514%">
            <stop offset="0%" stop-color="#F5F6F8"/>
            <stop offset="100%" stop-color="#D3D6DB" stop-opacity="0"/>
        </radialGradient>
        <path id="l6tsfi6aea" d="M0 0H375V148H0z"/>
    </defs>
    <g fill="none" fill-rule="evenodd">
        <mask id="2kl45r773d" fill="#fff">
            <use xlink:href="#l6tsfi6aea"/>
        </mask>
        <use fill="url(#upvwdq5s7b)" xlink:href="#l6tsfi6aea"/>
        <circle fill="url(#u461ohhe8c)" style="mix-blend-mode:multiply" cx="151" cy="66" r="188" mask="url(#2kl45r773d)" opacity=".2"/>
        <circle fill="url(#qrhv9jzupe)" style="mix-blend-mode:multiply" cx="229.5" cy="51.5" r="129.5" mask="url(#2kl45r773d)" opacity=".098"/>
        <circle cx="126" cy="8" r="296" fill="url(#e8gkfnh21f)" mask="url(#2kl45r773d)" opacity=".8"/>
        <g mask="url(#2kl45r773d)">
            <g fill="#FFF" fill-rule="nonzero">
                <g>
                    <path d="M247.529 8.682v7.013c-3.984 0-7.21-3.137-7.21-7.013h7.21zm0-7.012c3.984 0 7.21 3.137 7.21 7.012h-7.21V1.67z" opacity=".75" transform="rotate(90 172.5 74) translate(0 201.315)"/>
                    <path d="M230.02 8.682v6.679c-3.795 0-6.866-2.988-6.866-6.679h6.866zm0-6.678c3.795 0 6.866 2.987 6.866 6.678h-6.866V2.004z" opacity=".7" transform="rotate(90 172.5 74) translate(0 201.315)"/>
                    <path d="M212.511 8.682v6.345c-3.605 0-6.523-2.838-6.523-6.345h6.523zm0-6.344c3.605 0 6.523 2.838 6.523 6.344h-6.523V2.338z" opacity=".65" transform="rotate(90 172.5 74) translate(0 201.315)"/>
                    <path d="M195.002 8.682v6.01c-3.415 0-6.18-2.688-6.18-6.01h6.18zm0-6.01c3.415 0 6.18 2.688 6.18 6.01h-6.18v-6.01z" opacity=".6" transform="rotate(90 172.5 74) translate(0 201.315)"/>
                    <path d="M177.493 8.682v5.677c-3.225 0-5.836-2.54-5.836-5.677h5.836zm0-5.677c3.225 0 5.836 2.54 5.836 5.677h-5.836V3.005z" opacity=".55" transform="rotate(90 172.5 74) translate(0 201.315)"/>
                    <path d="M159.984 8.682v5.343c-3.036 0-5.493-2.39-5.493-5.343h5.493zm0-5.343c3.036 0 5.493 2.39 5.493 5.343h-5.493V3.34z" opacity=".5" transform="rotate(90 172.5 74) translate(0 201.315)"/>
                    <path d="M142.475 8.682v5.01c-2.846 0-5.15-2.242-5.15-5.01h5.15zm0-5.009c2.846 0 5.15 2.241 5.15 5.01h-5.15v-5.01z" opacity=".45" transform="rotate(90 172.5 74) translate(0 201.315)"/>
                    <path d="M124.966 8.682v4.675c-2.656 0-4.806-2.091-4.806-4.675h4.806zm0-4.675c2.656 0 4.806 2.092 4.806 4.675h-4.806V4.007z" opacity=".4" transform="rotate(90 172.5 74) translate(0 201.315)"/>
                    <path d="M107.457 8.682v4.341c-2.466 0-4.463-1.942-4.463-4.34h4.463zm0-4.34c2.467 0 4.463 1.941 4.463 4.34h-4.463v-4.34z" opacity=".35" transform="rotate(90 172.5 74) translate(0 201.315)"/>
                </g>
                <g>
                    <path d="M230.02 8.682v6.679c-3.795 0-6.866-2.988-6.866-6.679h6.866zm0-6.678c3.795 0 6.866 2.987 6.866 6.678h-6.866V2.004z" opacity=".7" transform="rotate(90 172.5 74) translate(18 219.315)"/>
                    <path d="M212.511 8.682v6.345c-3.605 0-6.523-2.838-6.523-6.345h6.523zm0-6.344c3.605 0 6.523 2.838 6.523 6.344h-6.523V2.338z" opacity=".65" transform="rotate(90 172.5 74) translate(18 219.315)"/>
                    <path d="M195.002 8.682v6.01c-3.415 0-6.18-2.688-6.18-6.01h6.18zm0-6.01c3.415 0 6.18 2.688 6.18 6.01h-6.18v-6.01z" opacity=".6" transform="rotate(90 172.5 74) translate(18 219.315)"/>
                    <path d="M177.493 8.682v5.677c-3.225 0-5.836-2.54-5.836-5.677h5.836zm0-5.677c3.225 0 5.836 2.54 5.836 5.677h-5.836V3.005z" opacity=".55" transform="rotate(90 172.5 74) translate(18 219.315)"/>
                    <path d="M159.984 8.682v5.343c-3.036 0-5.493-2.39-5.493-5.343h5.493zm0-5.343c3.036 0 5.493 2.39 5.493 5.343h-5.493V3.34z" opacity=".5" transform="rotate(90 172.5 74) translate(18 219.315)"/>
                    <path d="M142.475 8.682v5.01c-2.846 0-5.15-2.242-5.15-5.01h5.15zm0-5.009c2.846 0 5.15 2.241 5.15 5.01h-5.15v-5.01z" opacity=".45" transform="rotate(90 172.5 74) translate(18 219.315)"/>
                    <path d="M124.966 8.682v4.675c-2.656 0-4.806-2.091-4.806-4.675h4.806zm0-4.675c2.656 0 4.806 2.092 4.806 4.675h-4.806V4.007z" opacity=".4" transform="rotate(90 172.5 74) translate(18 219.315)"/>
                    <path d="M107.457 8.682v4.341c-2.466 0-4.463-1.942-4.463-4.34h4.463zm0-4.34c2.467 0 4.463 1.941 4.463 4.34h-4.463v-4.34z" opacity=".35" transform="rotate(90 172.5 74) translate(18 219.315)"/>
                    <path d="M89.948 8.682v4.007c-2.277 0-4.12-1.792-4.12-4.007h4.12zm0-4.007c2.277 0 4.12 1.793 4.12 4.007h-4.12V4.675z" opacity=".3" transform="rotate(90 172.5 74) translate(18 219.315)"/>
                </g>
                <g>
                    <path d="M212.511 8.682v6.345c-3.605 0-6.523-2.838-6.523-6.345h6.523zm0-6.344c3.605 0 6.523 2.838 6.523 6.344h-6.523V2.338z" opacity=".65" transform="rotate(90 172.5 74) translate(35 238.315)"/>
                    <path d="M195.002 8.682v6.01c-3.415 0-6.18-2.688-6.18-6.01h6.18zm0-6.01c3.415 0 6.18 2.688 6.18 6.01h-6.18v-6.01z" opacity=".6" transform="rotate(90 172.5 74) translate(35 238.315)"/>
                    <path d="M177.493 8.682v5.677c-3.225 0-5.836-2.54-5.836-5.677h5.836zm0-5.677c3.225 0 5.836 2.54 5.836 5.677h-5.836V3.005z" opacity=".55" transform="rotate(90 172.5 74) translate(35 238.315)"/>
                    <path d="M159.984 8.682v5.343c-3.036 0-5.493-2.39-5.493-5.343h5.493zm0-5.343c3.036 0 5.493 2.39 5.493 5.343h-5.493V3.34z" opacity=".5" transform="rotate(90 172.5 74) translate(35 238.315)"/>
                    <path d="M142.475 8.682v5.01c-2.846 0-5.15-2.242-5.15-5.01h5.15zm0-5.009c2.846 0 5.15 2.241 5.15 5.01h-5.15v-5.01z" opacity=".45" transform="rotate(90 172.5 74) translate(35 238.315)"/>
                    <path d="M124.966 8.682v4.675c-2.656 0-4.806-2.091-4.806-4.675h4.806zm0-4.675c2.656 0 4.806 2.092 4.806 4.675h-4.806V4.007z" opacity=".4" transform="rotate(90 172.5 74) translate(35 238.315)"/>
                    <path d="M107.457 8.682v4.341c-2.466 0-4.463-1.942-4.463-4.34h4.463zm0-4.34c2.467 0 4.463 1.941 4.463 4.34h-4.463v-4.34z" opacity=".35" transform="rotate(90 172.5 74) translate(35 238.315)"/>
                    <path d="M89.948 8.682v4.007c-2.277 0-4.12-1.792-4.12-4.007h4.12zm0-4.007c2.277 0 4.12 1.793 4.12 4.007h-4.12V4.675z" opacity=".3" transform="rotate(90 172.5 74) translate(35 238.315)"/>
                    <path d="M72.44 8.682v3.673c-2.088 0-3.777-1.643-3.777-3.673h3.776zm0-3.673c2.086 0 3.776 1.643 3.776 3.673h-3.777V5.01z" opacity=".25" transform="rotate(90 172.5 74) translate(35 238.315)"/>
                </g>
                <g>
                    <path d="M230.02 8.682v6.679c-3.795 0-6.866-2.988-6.866-6.679h6.866zm0-6.678c3.795 0 6.866 2.987 6.866 6.678h-6.866V2.004z" opacity=".7" transform="rotate(90 172.5 74) translate(18 183.315)"/>
                    <path d="M212.511 8.682v6.345c-3.605 0-6.523-2.838-6.523-6.345h6.523zm0-6.344c3.605 0 6.523 2.838 6.523 6.344h-6.523V2.338z" opacity=".65" transform="rotate(90 172.5 74) translate(18 183.315)"/>
                    <path d="M195.002 8.682v6.01c-3.415 0-6.18-2.688-6.18-6.01h6.18zm0-6.01c3.415 0 6.18 2.688 6.18 6.01h-6.18v-6.01z" opacity=".6" transform="rotate(90 172.5 74) translate(18 183.315)"/>
                    <path d="M177.493 8.682v5.677c-3.225 0-5.836-2.54-5.836-5.677h5.836zm0-5.677c3.225 0 5.836 2.54 5.836 5.677h-5.836V3.005z" opacity=".55" transform="rotate(90 172.5 74) translate(18 183.315)"/>
                    <path d="M159.984 8.682v5.343c-3.036 0-5.493-2.39-5.493-5.343h5.493zm0-5.343c3.036 0 5.493 2.39 5.493 5.343h-5.493V3.34z" opacity=".5" transform="rotate(90 172.5 74) translate(18 183.315)"/>
                    <path d="M142.475 8.682v5.01c-2.846 0-5.15-2.242-5.15-5.01h5.15zm0-5.009c2.846 0 5.15 2.241 5.15 5.01h-5.15v-5.01z" opacity=".45" transform="rotate(90 172.5 74) translate(18 183.315)"/>
                    <path d="M124.966 8.682v4.675c-2.656 0-4.806-2.091-4.806-4.675h4.806zm0-4.675c2.656 0 4.806 2.092 4.806 4.675h-4.806V4.007z" opacity=".4" transform="rotate(90 172.5 74) translate(18 183.315)"/>
                    <path d="M107.457 8.682v4.341c-2.466 0-4.463-1.942-4.463-4.34h4.463zm0-4.34c2.467 0 4.463 1.941 4.463 4.34h-4.463v-4.34z" opacity=".35" transform="rotate(90 172.5 74) translate(18 183.315)"/>
                    <path d="M89.948 8.682v4.007c-2.277 0-4.12-1.792-4.12-4.007h4.12zm0-4.007c2.277 0 4.12 1.793 4.12 4.007h-4.12V4.675z" opacity=".3" transform="rotate(90 172.5 74) translate(18 183.315)"/>
                </g>
                <g>
                    <path d="M212.511 8.682v6.345c-3.605 0-6.523-2.838-6.523-6.345h6.523zm0-6.344c3.605 0 6.523 2.838 6.523 6.344h-6.523V2.338z" opacity=".65" transform="rotate(90 172.5 74) translate(35 166.315)"/>
                    <path d="M195.002 8.682v6.01c-3.415 0-6.18-2.688-6.18-6.01h6.18zm0-6.01c3.415 0 6.18 2.688 6.18 6.01h-6.18v-6.01z" opacity=".6" transform="rotate(90 172.5 74) translate(35 166.315)"/>
                    <path d="M177.493 8.682v5.677c-3.225 0-5.836-2.54-5.836-5.677h5.836zm0-5.677c3.225 0 5.836 2.54 5.836 5.677h-5.836V3.005z" opacity=".55" transform="rotate(90 172.5 74) translate(35 166.315)"/>
                    <path d="M159.984 8.682v5.343c-3.036 0-5.493-2.39-5.493-5.343h5.493zm0-5.343c3.036 0 5.493 2.39 5.493 5.343h-5.493V3.34z" opacity=".5" transform="rotate(90 172.5 74) translate(35 166.315)"/>
                    <path d="M142.475 8.682v5.01c-2.846 0-5.15-2.242-5.15-5.01h5.15zm0-5.009c2.846 0 5.15 2.241 5.15 5.01h-5.15v-5.01z" opacity=".45" transform="rotate(90 172.5 74) translate(35 166.315)"/>
                    <path d="M124.966 8.682v4.675c-2.656 0-4.806-2.091-4.806-4.675h4.806zm0-4.675c2.656 0 4.806 2.092 4.806 4.675h-4.806V4.007z" opacity=".4" transform="rotate(90 172.5 74) translate(35 166.315)"/>
                    <path d="M107.457 8.682v4.341c-2.466 0-4.463-1.942-4.463-4.34h4.463zm0-4.34c2.467 0 4.463 1.941 4.463 4.34h-4.463v-4.34z" opacity=".35" transform="rotate(90 172.5 74) translate(35 166.315)"/>
                    <path d="M89.948 8.682v4.007c-2.277 0-4.12-1.792-4.12-4.007h4.12zm0-4.007c2.277 0 4.12 1.793 4.12 4.007h-4.12V4.675z" opacity=".3" transform="rotate(90 172.5 74) translate(35 166.315)"/>
                    <path d="M72.44 8.682v3.673c-2.088 0-3.777-1.643-3.777-3.673h3.776zm0-3.673c2.086 0 3.776 1.643 3.776 3.673h-3.777V5.01z" opacity=".25" transform="rotate(90 172.5 74) translate(35 166.315)"/>
                </g>
                <g>
                    <path d="M195.002 8.682v6.01c-3.415 0-6.18-2.688-6.18-6.01h6.18zm0-6.01c3.415 0 6.18 2.688 6.18 6.01h-6.18v-6.01z" opacity=".6" transform="rotate(90 172.5 74) translate(53 147.315)"/>
                    <path d="M177.493 8.682v5.677c-3.225 0-5.836-2.54-5.836-5.677h5.836zm0-5.677c3.225 0 5.836 2.54 5.836 5.677h-5.836V3.005z" opacity=".55" transform="rotate(90 172.5 74) translate(53 147.315)"/>
                    <path d="M159.984 8.682v5.343c-3.036 0-5.493-2.39-5.493-5.343h5.493zm0-5.343c3.036 0 5.493 2.39 5.493 5.343h-5.493V3.34z" opacity=".5" transform="rotate(90 172.5 74) translate(53 147.315)"/>
                    <path d="M142.475 8.682v5.01c-2.846 0-5.15-2.242-5.15-5.01h5.15zm0-5.009c2.846 0 5.15 2.241 5.15 5.01h-5.15v-5.01z" opacity=".45" transform="rotate(90 172.5 74) translate(53 147.315)"/>
                    <path d="M124.966 8.682v4.675c-2.656 0-4.806-2.091-4.806-4.675h4.806zm0-4.675c2.656 0 4.806 2.092 4.806 4.675h-4.806V4.007z" opacity=".4" transform="rotate(90 172.5 74) translate(53 147.315)"/>
                    <path d="M107.457 8.682v4.341c-2.466 0-4.463-1.942-4.463-4.34h4.463zm0-4.34c2.467 0 4.463 1.941 4.463 4.34h-4.463v-4.34z" opacity=".35" transform="rotate(90 172.5 74) translate(53 147.315)"/>
                    <path d="M89.948 8.682v4.007c-2.277 0-4.12-1.792-4.12-4.007h4.12zm0-4.007c2.277 0 4.12 1.793 4.12 4.007h-4.12V4.675z" opacity=".3" transform="rotate(90 172.5 74) translate(53 147.315)"/>
                    <path d="M72.44 8.682v3.673c-2.088 0-3.777-1.643-3.777-3.673h3.776zm0-3.673c2.086 0 3.776 1.643 3.776 3.673h-3.777V5.01z" opacity=".25" transform="rotate(90 172.5 74) translate(53 147.315)"/>
                    <path d="M54.93 8.682v3.34c-1.897 0-3.433-1.494-3.433-3.34h3.433zm0-3.34c1.897 0 3.433 1.495 3.433 3.34H54.93v-3.34z" opacity=".2" transform="rotate(90 172.5 74) translate(53 147.315)"/>
                </g>
                <g>
                    <path d="M177.493 8.682v5.677c-3.225 0-5.836-2.54-5.836-5.677h5.836zm0-5.677c3.225 0 5.836 2.54 5.836 5.677h-5.836V3.005z" opacity=".55" transform="rotate(90 172.5 74) translate(71 129.315)"/>
                    <path d="M159.984 8.682v5.343c-3.036 0-5.493-2.39-5.493-5.343h5.493zm0-5.343c3.036 0 5.493 2.39 5.493 5.343h-5.493V3.34z" opacity=".5" transform="rotate(90 172.5 74) translate(71 129.315)"/>
                    <path d="M142.475 8.682v5.01c-2.846 0-5.15-2.242-5.15-5.01h5.15zm0-5.009c2.846 0 5.15 2.241 5.15 5.01h-5.15v-5.01z" opacity=".45" transform="rotate(90 172.5 74) translate(71 129.315)"/>
                    <path d="M124.966 8.682v4.675c-2.656 0-4.806-2.091-4.806-4.675h4.806zm0-4.675c2.656 0 4.806 2.092 4.806 4.675h-4.806V4.007z" opacity=".4" transform="rotate(90 172.5 74) translate(71 129.315)"/>
                    <path d="M107.457 8.682v4.341c-2.466 0-4.463-1.942-4.463-4.34h4.463zm0-4.34c2.467 0 4.463 1.941 4.463 4.34h-4.463v-4.34z" opacity=".35" transform="rotate(90 172.5 74) translate(71 129.315)"/>
                    <path d="M89.948 8.682v4.007c-2.277 0-4.12-1.792-4.12-4.007h4.12zm0-4.007c2.277 0 4.12 1.793 4.12 4.007h-4.12V4.675z" opacity=".3" transform="rotate(90 172.5 74) translate(71 129.315)"/>
                    <path d="M72.44 8.682v3.673c-2.088 0-3.777-1.643-3.777-3.673h3.776zm0-3.673c2.086 0 3.776 1.643 3.776 3.673h-3.777V5.01z" opacity=".25" transform="rotate(90 172.5 74) translate(71 129.315)"/>
                    <path d="M54.93 8.682v3.34c-1.897 0-3.433-1.494-3.433-3.34h3.433zm0-3.34c1.897 0 3.433 1.495 3.433 3.34H54.93v-3.34z" opacity=".2" transform="rotate(90 172.5 74) translate(71 129.315)"/>
                    <path d="M37.421 8.682v3.006c-1.707 0-3.09-1.345-3.09-3.006h3.09zm0-3.005c1.708 0 3.09 1.344 3.09 3.005h-3.09V5.677z" opacity=".15" transform="rotate(90 172.5 74) translate(71 129.315)"/>
                </g>
                <g>
                    <path d="M159.984 8.682v5.343c-3.036 0-5.493-2.39-5.493-5.343h5.493zm0-5.343c3.036 0 5.493 2.39 5.493 5.343h-5.493V3.34z" opacity=".5" transform="rotate(90 172.5 74) translate(88 111.315)"/>
                    <path d="M142.475 8.682v5.01c-2.846 0-5.15-2.242-5.15-5.01h5.15zm0-5.009c2.846 0 5.15 2.241 5.15 5.01h-5.15v-5.01z" opacity=".45" transform="rotate(90 172.5 74) translate(88 111.315)"/>
                    <path d="M124.966 8.682v4.675c-2.656 0-4.806-2.091-4.806-4.675h4.806zm0-4.675c2.656 0 4.806 2.092 4.806 4.675h-4.806V4.007z" opacity=".4" transform="rotate(90 172.5 74) translate(88 111.315)"/>
                    <path d="M107.457 8.682v4.341c-2.466 0-4.463-1.942-4.463-4.34h4.463zm0-4.34c2.467 0 4.463 1.941 4.463 4.34h-4.463v-4.34z" opacity=".35" transform="rotate(90 172.5 74) translate(88 111.315)"/>
                    <path d="M89.948 8.682v4.007c-2.277 0-4.12-1.792-4.12-4.007h4.12zm0-4.007c2.277 0 4.12 1.793 4.12 4.007h-4.12V4.675z" opacity=".3" transform="rotate(90 172.5 74) translate(88 111.315)"/>
                    <path d="M72.44 8.682v3.673c-2.088 0-3.777-1.643-3.777-3.673h3.776zm0-3.673c2.086 0 3.776 1.643 3.776 3.673h-3.777V5.01z" opacity=".25" transform="rotate(90 172.5 74) translate(88 111.315)"/>
                    <path d="M54.93 8.682v3.34c-1.897 0-3.433-1.494-3.433-3.34h3.433zm0-3.34c1.897 0 3.433 1.495 3.433 3.34H54.93v-3.34z" opacity=".2" transform="rotate(90 172.5 74) translate(88 111.315)"/>
                    <path d="M37.421 8.682v3.006c-1.707 0-3.09-1.345-3.09-3.006h3.09zm0-3.005c1.708 0 3.09 1.344 3.09 3.005h-3.09V5.677z" opacity=".15" transform="rotate(90 172.5 74) translate(88 111.315)"/>
                    <path d="M19.912 8.682v2.672c-1.518 0-2.746-1.195-2.746-2.672h2.746zm0-2.671c1.518 0 2.747 1.195 2.747 2.671h-2.747V6.011z" opacity=".1" transform="rotate(90 172.5 74) translate(88 111.315)"/>
                </g>
                <g>
                    <path d="M142.475 8.682v5.01c-2.846 0-5.15-2.242-5.15-5.01h5.15zm0-5.009c2.846 0 5.15 2.241 5.15 5.01h-5.15v-5.01z" opacity=".45" transform="rotate(90 172.5 74) translate(106 93.315)"/>
                    <path d="M124.966 8.682v4.675c-2.656 0-4.806-2.091-4.806-4.675h4.806zm0-4.675c2.656 0 4.806 2.092 4.806 4.675h-4.806V4.007z" opacity=".4" transform="rotate(90 172.5 74) translate(106 93.315)"/>
                    <path d="M107.457 8.682v4.341c-2.466 0-4.463-1.942-4.463-4.34h4.463zm0-4.34c2.467 0 4.463 1.941 4.463 4.34h-4.463v-4.34z" opacity=".35" transform="rotate(90 172.5 74) translate(106 93.315)"/>
                    <path d="M89.948 8.682v4.007c-2.277 0-4.12-1.792-4.12-4.007h4.12zm0-4.007c2.277 0 4.12 1.793 4.12 4.007h-4.12V4.675z" opacity=".3" transform="rotate(90 172.5 74) translate(106 93.315)"/>
                    <path d="M72.44 8.682v3.673c-2.088 0-3.777-1.643-3.777-3.673h3.776zm0-3.673c2.086 0 3.776 1.643 3.776 3.673h-3.777V5.01z" opacity=".25" transform="rotate(90 172.5 74) translate(106 93.315)"/>
                    <path d="M54.93 8.682v3.34c-1.897 0-3.433-1.494-3.433-3.34h3.433zm0-3.34c1.897 0 3.433 1.495 3.433 3.34H54.93v-3.34z" opacity=".2" transform="rotate(90 172.5 74) translate(106 93.315)"/>
                    <path d="M37.421 8.682v3.006c-1.707 0-3.09-1.345-3.09-3.006h3.09zm0-3.005c1.708 0 3.09 1.344 3.09 3.005h-3.09V5.677z" opacity=".15" transform="rotate(90 172.5 74) translate(106 93.315)"/>
                    <path d="M19.912 8.682v2.672c-1.518 0-2.746-1.195-2.746-2.672h2.746zm0-2.671c1.518 0 2.747 1.195 2.747 2.671h-2.747V6.011z" opacity=".1" transform="rotate(90 172.5 74) translate(106 93.315)"/>
                    <path d="M2.403 8.682v2.338C1.075 11.02 0 9.974 0 8.682h2.403zm0-2.337c1.328 0 2.403 1.045 2.403 2.337H2.403V6.345z" opacity=".05" transform="rotate(90 172.5 74) translate(106 93.315)"/>
                </g>
                <g>
                    <path d="M124.966 8.682v4.675c-2.656 0-4.806-2.091-4.806-4.675h4.806zm0-4.675c2.656 0 4.806 2.092 4.806 4.675h-4.806V4.007z" opacity=".4" transform="rotate(90 172.5 74) translate(123 75.315)"/>
                    <path d="M107.457 8.682v4.341c-2.466 0-4.463-1.942-4.463-4.34h4.463zm0-4.34c2.467 0 4.463 1.941 4.463 4.34h-4.463v-4.34z" opacity=".35" transform="rotate(90 172.5 74) translate(123 75.315)"/>
                    <path d="M89.948 8.682v4.007c-2.277 0-4.12-1.792-4.12-4.007h4.12zm0-4.007c2.277 0 4.12 1.793 4.12 4.007h-4.12V4.675z" opacity=".3" transform="rotate(90 172.5 74) translate(123 75.315)"/>
                    <path d="M72.44 8.682v3.673c-2.088 0-3.777-1.643-3.777-3.673h3.776zm0-3.673c2.086 0 3.776 1.643 3.776 3.673h-3.777V5.01z" opacity=".25" transform="rotate(90 172.5 74) translate(123 75.315)"/>
                    <path d="M54.93 8.682v3.34c-1.897 0-3.433-1.494-3.433-3.34h3.433zm0-3.34c1.897 0 3.433 1.495 3.433 3.34H54.93v-3.34z" opacity=".2" transform="rotate(90 172.5 74) translate(123 75.315)"/>
                    <path d="M37.421 8.682v3.006c-1.707 0-3.09-1.345-3.09-3.006h3.09zm0-3.005c1.708 0 3.09 1.344 3.09 3.005h-3.09V5.677z" opacity=".15" transform="rotate(90 172.5 74) translate(123 75.315)"/>
                    <path d="M19.912 8.682v2.672c-1.518 0-2.746-1.195-2.746-2.672h2.746zm0-2.671c1.518 0 2.747 1.195 2.747 2.671h-2.747V6.011z" opacity=".1" transform="rotate(90 172.5 74) translate(123 75.315)"/>
                    <path d="M2.403 8.682v2.338C1.075 11.02 0 9.974 0 8.682h2.403zm0-2.337c1.328 0 2.403 1.045 2.403 2.337H2.403V6.345z" opacity=".05" transform="rotate(90 172.5 74) translate(123 75.315)"/>
                </g>
                <g>
                    <path d="M107.457 8.682v4.341c-2.466 0-4.463-1.942-4.463-4.34h4.463zm0-4.34c2.467 0 4.463 1.941 4.463 4.34h-4.463v-4.34z" opacity=".35" transform="rotate(90 172.5 74) translate(141 56.315)"/>
                    <path d="M89.948 8.682v4.007c-2.277 0-4.12-1.792-4.12-4.007h4.12zm0-4.007c2.277 0 4.12 1.793 4.12 4.007h-4.12V4.675z" opacity=".3" transform="rotate(90 172.5 74) translate(141 56.315)"/>
                    <path d="M72.44 8.682v3.673c-2.088 0-3.777-1.643-3.777-3.673h3.776zm0-3.673c2.086 0 3.776 1.643 3.776 3.673h-3.777V5.01z" opacity=".25" transform="rotate(90 172.5 74) translate(141 56.315)"/>
                    <path d="M54.93 8.682v3.34c-1.897 0-3.433-1.494-3.433-3.34h3.433zm0-3.34c1.897 0 3.433 1.495 3.433 3.34H54.93v-3.34z" opacity=".2" transform="rotate(90 172.5 74) translate(141 56.315)"/>
                    <path d="M37.421 8.682v3.006c-1.707 0-3.09-1.345-3.09-3.006h3.09zm0-3.005c1.708 0 3.09 1.344 3.09 3.005h-3.09V5.677z" opacity=".15" transform="rotate(90 172.5 74) translate(141 56.315)"/>
                    <path d="M19.912 8.682v2.672c-1.518 0-2.746-1.195-2.746-2.672h2.746zm0-2.671c1.518 0 2.747 1.195 2.747 2.671h-2.747V6.011z" opacity=".1" transform="rotate(90 172.5 74) translate(141 56.315)"/>
                    <path d="M2.403 8.682v2.338C1.075 11.02 0 9.974 0 8.682h2.403zm0-2.337c1.328 0 2.403 1.045 2.403 2.337H2.403V6.345z" opacity=".05" transform="rotate(90 172.5 74) translate(141 56.315)"/>
                </g>
                <g>
                    <path d="M89.948 8.682v4.007c-2.277 0-4.12-1.792-4.12-4.007h4.12zm0-4.007c2.277 0 4.12 1.793 4.12 4.007h-4.12V4.675z" opacity=".3" transform="rotate(90 172.5 74) translate(159 38.315)"/>
                    <path d="M72.44 8.682v3.673c-2.088 0-3.777-1.643-3.777-3.673h3.776zm0-3.673c2.086 0 3.776 1.643 3.776 3.673h-3.777V5.01z" opacity=".25" transform="rotate(90 172.5 74) translate(159 38.315)"/>
                    <path d="M54.93 8.682v3.34c-1.897 0-3.433-1.494-3.433-3.34h3.433zm0-3.34c1.897 0 3.433 1.495 3.433 3.34H54.93v-3.34z" opacity=".2" transform="rotate(90 172.5 74) translate(159 38.315)"/>
                    <path d="M37.421 8.682v3.006c-1.707 0-3.09-1.345-3.09-3.006h3.09zm0-3.005c1.708 0 3.09 1.344 3.09 3.005h-3.09V5.677z" opacity=".15" transform="rotate(90 172.5 74) translate(159 38.315)"/>
                    <path d="M19.912 8.682v2.672c-1.518 0-2.746-1.195-2.746-2.672h2.746zm0-2.671c1.518 0 2.747 1.195 2.747 2.671h-2.747V6.011z" opacity=".1" transform="rotate(90 172.5 74) translate(159 38.315)"/>
                    <path d="M2.403 8.682v2.338C1.075 11.02 0 9.974 0 8.682h2.403zm0-2.337c1.328 0 2.403 1.045 2.403 2.337H2.403V6.345z" opacity=".05" transform="rotate(90 172.5 74) translate(159 38.315)"/>
                </g>
                <g>
                    <path d="M54.93 8.682v3.34c-1.897 0-3.433-1.494-3.433-3.34h3.433zm0-3.34c1.897 0 3.433 1.495 3.433 3.34H54.93v-3.34z" opacity=".2" transform="rotate(90 172.5 74) translate(193 19.315)"/>
                    <path d="M37.421 8.682v3.006c-1.707 0-3.09-1.345-3.09-3.006h3.09zm0-3.005c1.708 0 3.09 1.344 3.09 3.005h-3.09V5.677z" opacity=".15" transform="rotate(90 172.5 74) translate(193 19.315)"/>
                    <path d="M19.912 8.682v2.672c-1.518 0-2.746-1.195-2.746-2.672h2.746zm0-2.671c1.518 0 2.747 1.195 2.747 2.671h-2.747V6.011z" opacity=".1" transform="rotate(90 172.5 74) translate(193 19.315)"/>
                    <path d="M2.403 8.682v2.338C1.075 11.02 0 9.974 0 8.682h2.403zm0-2.337c1.328 0 2.403 1.045 2.403 2.337H2.403V6.345z" opacity=".05" transform="rotate(90 172.5 74) translate(193 19.315)"/>
                </g>
                <g>
                    <path d="M37.421 8.682v3.006c-1.707 0-3.09-1.345-3.09-3.006h3.09zm0-3.005c1.708 0 3.09 1.344 3.09 3.005h-3.09V5.677z" opacity=".15" transform="rotate(90 172.5 74) translate(211 .315)"/>
                    <path d="M19.912 8.682v2.672c-1.518 0-2.746-1.195-2.746-2.672h2.746zm0-2.671c1.518 0 2.747 1.195 2.747 2.671h-2.747V6.011z" opacity=".1" transform="rotate(90 172.5 74) translate(211 .315)"/>
                    <path d="M2.403 8.682v2.338C1.075 11.02 0 9.974 0 8.682h2.403zm0-2.337c1.328 0 2.403 1.045 2.403 2.337H2.403V6.345z" opacity=".05" transform="rotate(90 172.5 74) translate(211 .315)"/>
                </g>
            </g>
        </g>
        <g mask="url(#2kl45r773d)">
            <g fill="#FFF" fill-rule="nonzero">
                <g>
                    <path d="M142.85 6.512v4.508c-2.502 0-4.527-2.017-4.527-4.508h4.527zm0-4.508c2.502 0 4.527 2.016 4.527 4.508h-4.527V2.004z" opacity=".6" transform="translate(155 -235) translate(78 227.993)"/>
                    <path d="M130.024 6.512v4.257c-2.363 0-4.276-1.904-4.276-4.257h4.276zm0-4.258c2.363 0 4.275 1.905 4.275 4.258h-4.275V2.254z" opacity=".55" transform="translate(155 -235) translate(78 227.993)"/>
                    <path d="M117.198 6.512v4.007c-2.224 0-4.024-1.793-4.024-4.007h4.024zm0-4.008c2.223 0 4.024 1.793 4.024 4.008h-4.024V2.504z" opacity=".5" transform="translate(155 -235) translate(78 227.993)"/>
                    <path d="M104.371 6.512v3.756c-2.085 0-3.772-1.68-3.772-3.756h3.772zm0-3.757c2.085 0 3.773 1.68 3.773 3.757h-3.773V2.755z" opacity=".45" transform="translate(155 -235) translate(78 227.993)"/>
                    <path d="M91.545 6.512v3.506c-1.946 0-3.521-1.569-3.521-3.506h3.52zm0-3.507c1.946 0 3.52 1.569 3.52 3.507h-3.52V3.005z" opacity=".4" transform="translate(155 -235) translate(78 227.993)"/>
                    <path d="M78.719 6.512v3.255c-1.807 0-3.27-1.456-3.27-3.255h3.27zm0-3.256c1.806 0 3.269 1.456 3.269 3.256h-3.27V3.256z" opacity=".35" transform="translate(155 -235) translate(78 227.993)"/>
                    <path d="M65.892 6.512v3.005c-1.668 0-3.018-1.344-3.018-3.005h3.018zm0-3.006c1.668 0 3.018 1.345 3.018 3.006h-3.018V3.506z" opacity=".3" transform="translate(155 -235) translate(78 227.993)"/>
                    <path d="M53.066 6.512v2.755c-1.529 0-2.767-1.233-2.767-2.755h2.767zm0-2.755c1.529 0 2.766 1.232 2.766 2.755h-2.766V3.757z" opacity=".25" transform="translate(155 -235) translate(78 227.993)"/>
                    <path d="M40.24 6.512v2.504c-1.39 0-2.515-1.12-2.515-2.504h2.515zm0-2.505c1.39 0 2.514 1.12 2.514 2.505H40.24V4.007z" opacity=".2" transform="translate(155 -235) translate(78 227.993)"/>
                    <path d="M27.413 6.512v2.254c-1.25 0-2.263-1.009-2.263-2.254h2.263zm0-2.254c1.251 0 2.264 1.008 2.264 2.254h-2.264V4.258z" opacity=".15" transform="translate(155 -235) translate(78 227.993)"/>
                    <path d="M14.587 6.512v2.003c-1.112 0-2.012-.896-2.012-2.003h2.012zm0-2.004c1.112 0 2.012.896 2.012 2.004h-2.012V4.508z" opacity=".1" transform="translate(155 -235) translate(78 227.993)"/>
                    <path d="M1.76 6.512v1.753C.788 8.265 0 7.48 0 6.512h1.76zm0-1.754c.973 0 1.761.785 1.761 1.754h-1.76V4.758z" opacity=".05" transform="translate(155 -235) translate(78 227.993)"/>
                </g>
                <g>
                    <path d="M130.024 6.512v4.257c-2.363 0-4.276-1.904-4.276-4.257h4.276zm0-4.258c2.363 0 4.275 1.905 4.275 4.258h-4.275V2.254z" opacity=".55" transform="translate(155 -235) translate(90.4 241.193)"/>
                    <path d="M117.198 6.512v4.007c-2.224 0-4.024-1.793-4.024-4.007h4.024zm0-4.008c2.223 0 4.024 1.793 4.024 4.008h-4.024V2.504z" opacity=".5" transform="translate(155 -235) translate(90.4 241.193)"/>
                    <path d="M104.371 6.512v3.756c-2.085 0-3.772-1.68-3.772-3.756h3.772zm0-3.757c2.085 0 3.773 1.68 3.773 3.757h-3.773V2.755z" opacity=".45" transform="translate(155 -235) translate(90.4 241.193)"/>
                    <path d="M91.545 6.512v3.506c-1.946 0-3.521-1.569-3.521-3.506h3.52zm0-3.507c1.946 0 3.52 1.569 3.52 3.507h-3.52V3.005z" opacity=".4" transform="translate(155 -235) translate(90.4 241.193)"/>
                    <path d="M78.719 6.512v3.255c-1.807 0-3.27-1.456-3.27-3.255h3.27zm0-3.256c1.806 0 3.269 1.456 3.269 3.256h-3.27V3.256z" opacity=".35" transform="translate(155 -235) translate(90.4 241.193)"/>
                    <path d="M65.892 6.512v3.005c-1.668 0-3.018-1.344-3.018-3.005h3.018zm0-3.006c1.668 0 3.018 1.345 3.018 3.006h-3.018V3.506z" opacity=".3" transform="translate(155 -235) translate(90.4 241.193)"/>
                    <path d="M53.066 6.512v2.755c-1.529 0-2.767-1.233-2.767-2.755h2.767zm0-2.755c1.529 0 2.766 1.232 2.766 2.755h-2.766V3.757z" opacity=".25" transform="translate(155 -235) translate(90.4 241.193)"/>
                    <path d="M40.24 6.512v2.504c-1.39 0-2.515-1.12-2.515-2.504h2.515zm0-2.505c1.39 0 2.514 1.12 2.514 2.505H40.24V4.007z" opacity=".2" transform="translate(155 -235) translate(90.4 241.193)"/>
                    <path d="M27.413 6.512v2.254c-1.25 0-2.263-1.009-2.263-2.254h2.263zm0-2.254c1.251 0 2.264 1.008 2.264 2.254h-2.264V4.258z" opacity=".15" transform="translate(155 -235) translate(90.4 241.193)"/>
                    <path d="M14.587 6.512v2.003c-1.112 0-2.012-.896-2.012-2.003h2.012zm0-2.004c1.112 0 2.012.896 2.012 2.004h-2.012V4.508z" opacity=".1" transform="translate(155 -235) translate(90.4 241.193)"/>
                    <path d="M1.76 6.512v1.753C.788 8.265 0 7.48 0 6.512h1.76zm0-1.754c.973 0 1.761.785 1.761 1.754h-1.76V4.758z" opacity=".05" transform="translate(155 -235) translate(90.4 241.193)"/>
                </g>
                <g>
                    <path d="M117.198 6.512v4.007c-2.224 0-4.024-1.793-4.024-4.007h4.024zm0-4.008c2.223 0 4.024 1.793 4.024 4.008h-4.024V2.504z" opacity=".5" transform="translate(155 -235) translate(103.2 254.793)"/>
                    <path d="M104.371 6.512v3.756c-2.085 0-3.772-1.68-3.772-3.756h3.772zm0-3.757c2.085 0 3.773 1.68 3.773 3.757h-3.773V2.755z" opacity=".45" transform="translate(155 -235) translate(103.2 254.793)"/>
                    <path d="M91.545 6.512v3.506c-1.946 0-3.521-1.569-3.521-3.506h3.52zm0-3.507c1.946 0 3.52 1.569 3.52 3.507h-3.52V3.005z" opacity=".4" transform="translate(155 -235) translate(103.2 254.793)"/>
                    <path d="M78.719 6.512v3.255c-1.807 0-3.27-1.456-3.27-3.255h3.27zm0-3.256c1.806 0 3.269 1.456 3.269 3.256h-3.27V3.256z" opacity=".35" transform="translate(155 -235) translate(103.2 254.793)"/>
                    <path d="M65.892 6.512v3.005c-1.668 0-3.018-1.344-3.018-3.005h3.018zm0-3.006c1.668 0 3.018 1.345 3.018 3.006h-3.018V3.506z" opacity=".3" transform="translate(155 -235) translate(103.2 254.793)"/>
                    <path d="M53.066 6.512v2.755c-1.529 0-2.767-1.233-2.767-2.755h2.767zm0-2.755c1.529 0 2.766 1.232 2.766 2.755h-2.766V3.757z" opacity=".25" transform="translate(155 -235) translate(103.2 254.793)"/>
                    <path d="M40.24 6.512v2.504c-1.39 0-2.515-1.12-2.515-2.504h2.515zm0-2.505c1.39 0 2.514 1.12 2.514 2.505H40.24V4.007z" opacity=".2" transform="translate(155 -235) translate(103.2 254.793)"/>
                    <path d="M27.413 6.512v2.254c-1.25 0-2.263-1.009-2.263-2.254h2.263zm0-2.254c1.251 0 2.264 1.008 2.264 2.254h-2.264V4.258z" opacity=".15" transform="translate(155 -235) translate(103.2 254.793)"/>
                    <path d="M14.587 6.512v2.003c-1.112 0-2.012-.896-2.012-2.003h2.012zm0-2.004c1.112 0 2.012.896 2.012 2.004h-2.012V4.508z" opacity=".1" transform="translate(155 -235) translate(103.2 254.793)"/>
                    <path d="M1.76 6.512v1.753C.788 8.265 0 7.48 0 6.512h1.76zm0-1.754c.973 0 1.761.785 1.761 1.754h-1.76V4.758z" opacity=".05" transform="translate(155 -235) translate(103.2 254.793)"/>
                </g>
                <g>
                    <path d="M104.371 6.512v3.756c-2.085 0-3.772-1.68-3.772-3.756h3.772zm0-3.757c2.085 0 3.773 1.68 3.773 3.757h-3.773V2.755z" opacity=".45" transform="translate(155 -235) translate(116 267.993)"/>
                    <path d="M91.545 6.512v3.506c-1.946 0-3.521-1.569-3.521-3.506h3.52zm0-3.507c1.946 0 3.52 1.569 3.52 3.507h-3.52V3.005z" opacity=".4" transform="translate(155 -235) translate(116 267.993)"/>
                    <path d="M78.719 6.512v3.255c-1.807 0-3.27-1.456-3.27-3.255h3.27zm0-3.256c1.806 0 3.269 1.456 3.269 3.256h-3.27V3.256z" opacity=".35" transform="translate(155 -235) translate(116 267.993)"/>
                    <path d="M65.892 6.512v3.005c-1.668 0-3.018-1.344-3.018-3.005h3.018zm0-3.006c1.668 0 3.018 1.345 3.018 3.006h-3.018V3.506z" opacity=".3" transform="translate(155 -235) translate(116 267.993)"/>
                    <path d="M53.066 6.512v2.755c-1.529 0-2.767-1.233-2.767-2.755h2.767zm0-2.755c1.529 0 2.766 1.232 2.766 2.755h-2.766V3.757z" opacity=".25" transform="translate(155 -235) translate(116 267.993)"/>
                    <path d="M40.24 6.512v2.504c-1.39 0-2.515-1.12-2.515-2.504h2.515zm0-2.505c1.39 0 2.514 1.12 2.514 2.505H40.24V4.007z" opacity=".2" transform="translate(155 -235) translate(116 267.993)"/>
                    <path d="M27.413 6.512v2.254c-1.25 0-2.263-1.009-2.263-2.254h2.263zm0-2.254c1.251 0 2.264 1.008 2.264 2.254h-2.264V4.258z" opacity=".15" transform="translate(155 -235) translate(116 267.993)"/>
                    <path d="M14.587 6.512v2.003c-1.112 0-2.012-.896-2.012-2.003h2.012zm0-2.004c1.112 0 2.012.896 2.012 2.004h-2.012V4.508z" opacity=".1" transform="translate(155 -235) translate(116 267.993)"/>
                    <path d="M1.76 6.512v1.753C.788 8.265 0 7.48 0 6.512h1.76zm0-1.754c.973 0 1.761.785 1.761 1.754h-1.76V4.758z" opacity=".05" transform="translate(155 -235) translate(116 267.993)"/>
                </g>
                <g>
                    <path d="M91.545 6.512v3.506c-1.946 0-3.521-1.569-3.521-3.506h3.52zm0-3.507c1.946 0 3.52 1.569 3.52 3.507h-3.52V3.005z" opacity=".4" transform="translate(155 -235) translate(128.8 281.036)"/>
                    <path d="M78.719 6.512v3.255c-1.807 0-3.27-1.456-3.27-3.255h3.27zm0-3.256c1.806 0 3.269 1.456 3.269 3.256h-3.27V3.256z" opacity=".35" transform="translate(155 -235) translate(128.8 281.036)"/>
                    <path d="M65.892 6.512v3.005c-1.668 0-3.018-1.344-3.018-3.005h3.018zm0-3.006c1.668 0 3.018 1.345 3.018 3.006h-3.018V3.506z" opacity=".3" transform="translate(155 -235) translate(128.8 281.036)"/>
                    <path d="M53.066 6.512v2.755c-1.529 0-2.767-1.233-2.767-2.755h2.767zm0-2.755c1.529 0 2.766 1.232 2.766 2.755h-2.766V3.757z" opacity=".25" transform="translate(155 -235) translate(128.8 281.036)"/>
                    <path d="M40.24 6.512v2.504c-1.39 0-2.515-1.12-2.515-2.504h2.515zm0-2.505c1.39 0 2.514 1.12 2.514 2.505H40.24V4.007z" opacity=".2" transform="translate(155 -235) translate(128.8 281.036)"/>
                    <path d="M27.413 6.512v2.254c-1.25 0-2.263-1.009-2.263-2.254h2.263zm0-2.254c1.251 0 2.264 1.008 2.264 2.254h-2.264V4.258z" opacity=".15" transform="translate(155 -235) translate(128.8 281.036)"/>
                    <path d="M14.587 6.512v2.003c-1.112 0-2.012-.896-2.012-2.003h2.012zm0-2.004c1.112 0 2.012.896 2.012 2.004h-2.012V4.508z" opacity=".1" transform="translate(155 -235) translate(128.8 281.036)"/>
                    <path d="M1.76 6.512v1.753C.788 8.265 0 7.48 0 6.512h1.76zm0-1.754c.973 0 1.761.785 1.761 1.754h-1.76V4.758z" opacity=".05" transform="translate(155 -235) translate(128.8 281.036)"/>
                </g>
                <g>
                    <path d="M78.719 6.512v3.255c-1.807 0-3.27-1.456-3.27-3.255h3.27zm0-3.256c1.806 0 3.269 1.456 3.269 3.256h-3.27V3.256z" opacity=".35" transform="translate(155 -235) translate(141.6 294.636)"/>
                    <path d="M65.892 6.512v3.005c-1.668 0-3.018-1.344-3.018-3.005h3.018zm0-3.006c1.668 0 3.018 1.345 3.018 3.006h-3.018V3.506z" opacity=".3" transform="translate(155 -235) translate(141.6 294.636)"/>
                    <path d="M53.066 6.512v2.755c-1.529 0-2.767-1.233-2.767-2.755h2.767zm0-2.755c1.529 0 2.766 1.232 2.766 2.755h-2.766V3.757z" opacity=".25" transform="translate(155 -235) translate(141.6 294.636)"/>
                    <path d="M40.24 6.512v2.504c-1.39 0-2.515-1.12-2.515-2.504h2.515zm0-2.505c1.39 0 2.514 1.12 2.514 2.505H40.24V4.007z" opacity=".2" transform="translate(155 -235) translate(141.6 294.636)"/>
                    <path d="M27.413 6.512v2.254c-1.25 0-2.263-1.009-2.263-2.254h2.263zm0-2.254c1.251 0 2.264 1.008 2.264 2.254h-2.264V4.258z" opacity=".15" transform="translate(155 -235) translate(141.6 294.636)"/>
                    <path d="M14.587 6.512v2.003c-1.112 0-2.012-.896-2.012-2.003h2.012zm0-2.004c1.112 0 2.012.896 2.012 2.004h-2.012V4.508z" opacity=".1" transform="translate(155 -235) translate(141.6 294.636)"/>
                    <path d="M1.76 6.512v1.753C.788 8.265 0 7.48 0 6.512h1.76zm0-1.754c.973 0 1.761.785 1.761 1.754h-1.76V4.758z" opacity=".05" transform="translate(155 -235) translate(141.6 294.636)"/>
                </g>
                <g>
                    <path d="M65.892 6.512v3.005c-1.668 0-3.018-1.344-3.018-3.005h3.018zm0-3.006c1.668 0 3.018 1.345 3.018 3.006h-3.018V3.506z" opacity=".3" transform="translate(155 -235) translate(154.4 308.236)"/>
                    <path d="M53.066 6.512v2.755c-1.529 0-2.767-1.233-2.767-2.755h2.767zm0-2.755c1.529 0 2.766 1.232 2.766 2.755h-2.766V3.757z" opacity=".25" transform="translate(155 -235) translate(154.4 308.236)"/>
                    <path d="M40.24 6.512v2.504c-1.39 0-2.515-1.12-2.515-2.504h2.515zm0-2.505c1.39 0 2.514 1.12 2.514 2.505H40.24V4.007z" opacity=".2" transform="translate(155 -235) translate(154.4 308.236)"/>
                    <path d="M27.413 6.512v2.254c-1.25 0-2.263-1.009-2.263-2.254h2.263zm0-2.254c1.251 0 2.264 1.008 2.264 2.254h-2.264V4.258z" opacity=".15" transform="translate(155 -235) translate(154.4 308.236)"/>
                    <path d="M14.587 6.512v2.003c-1.112 0-2.012-.896-2.012-2.003h2.012zm0-2.004c1.112 0 2.012.896 2.012 2.004h-2.012V4.508z" opacity=".1" transform="translate(155 -235) translate(154.4 308.236)"/>
                    <path d="M1.76 6.512v1.753C.788 8.265 0 7.48 0 6.512h1.76zm0-1.754c.973 0 1.761.785 1.761 1.754h-1.76V4.758z" opacity=".05" transform="translate(155 -235) translate(154.4 308.236)"/>
                </g>
            </g>
        </g>
    </g>
</svg>
