<svg xmlns="http://www.w3.org/2000/svg" xmlns:xlink="http://www.w3.org/1999/xlink" width="668" height="897" viewBox="0 0 668 897">
    <defs>
        <radialGradient id="9u3rktee9b" cx="11.608%" cy="26.758%" r="84.083%" fx="11.608%" fy="26.758%" gradientTransform="scale(-.46719 -1) rotate(-72.813 -.429 .247)">
            <stop offset="0%" stop-color="#BCC3CF"/>
            <stop offset="61.828%" stop-color="#D8DCE0"/>
            <stop offset="100%" stop-color="#F5F6F8"/>
            <stop offset="100%" stop-color="#F5F6F8"/>
            <stop offset="100%" stop-color="#F5F6F8"/>
        </radialGradient>
        <radialGradient id="cf762hcw4d" cx="52.13%" cy="48.514%" r="44.163%" fx="52.13%" fy="48.514%">
            <stop offset="0%" stop-color="#6380B6"/>
            <stop offset="100%" stop-color="#D3D6DB" stop-opacity="0"/>
        </radialGradient>
        <radialGradient id="n5x0db7jke" cx="56.361%" cy="60.512%" r="36.877%" fx="56.361%" fy="60.512%">
            <stop offset="0%" stop-color="#8DCEFF"/>
            <stop offset="100%" stop-color="#C2E5FF" stop-opacity="0"/>
        </radialGradient>
        <radialGradient id="rshp3ava9f" cx="51.801%" cy="63.758%" r="37.394%" fx="51.801%" fy="63.758%">
            <stop offset="0%" stop-color="#F5F6F8"/>
            <stop offset="100%" stop-color="#9DA6B7" stop-opacity="0"/>
        </radialGradient>
        <path id="2w62x1qsya" d="M0 0H668V897H0z"/>
    </defs>
    <g fill="none" fill-rule="evenodd">
        <mask id="xtsmeu4qac" fill="#fff">
            <use xlink:href="#2w62x1qsya"/>
        </mask>
        <use fill="#D8D8D8" xlink:href="#2w62x1qsya"/>
        <path fill="url(#9u3rktee9b)" d="M0 0H1920V897H0z" mask="url(#xtsmeu4qac)"/>
        <circle fill="url(#cf762hcw4d)" style="mix-blend-mode:multiply" cx="300.5" cy="281.5" r="406.5" mask="url(#xtsmeu4qac)" opacity=".097"/>
        <circle fill="url(#n5x0db7jke)" style="mix-blend-mode:multiply" cx="148" cy="492" r="411" mask="url(#xtsmeu4qac)" opacity=".104"/>
        <circle cx="-32" cy="-21" r="761" fill="url(#rshp3ava9f)" mask="url(#xtsmeu4qac)" opacity=".802"/>
        <g mask="url(#xtsmeu4qac)" opacity=".904">
            <g fill="#FFF" fill-rule="nonzero">
                <g>
                    <path d="M594.172 15.688v15.688c-8.748 0-15.829-7.018-15.829-15.688h15.829zm0-15.688C602.919 0 610 7.018 610 15.688h-15.828V0z" transform="matrix(-1 0 0 1 604 190) translate(.5 681.069)"/>
                    <path d="M563.124 15.688v15.085c-8.411 0-15.22-6.748-15.22-15.085h15.22zm0-15.085c8.41 0 15.22 6.749 15.22 15.085h-15.22V.603z" opacity=".95" transform="matrix(-1 0 0 1 604 190) translate(.5 681.069)"/>
                    <path d="M532.076 15.688V30.17c-8.075 0-14.61-6.479-14.61-14.482h14.61zm0-14.481c8.074 0 14.61 6.478 14.61 14.481h-14.61V1.207z" opacity=".9" transform="matrix(-1 0 0 1 604 190) translate(.5 681.069)"/>
                    <path d="M501.028 15.688v13.878c-7.738 0-14.002-6.208-14.002-13.878h14.002zm0-13.878c7.738 0 14.002 6.209 14.002 13.878h-14.002V1.81z" opacity=".85" transform="matrix(-1 0 0 1 604 190) translate(.5 681.069)"/>
                    <path d="M469.98 15.688v13.275c-7.402 0-13.393-5.939-13.393-13.275h13.393zm0-13.274c7.402 0 13.393 5.938 13.393 13.274H469.98V2.414z" opacity=".8" transform="matrix(-1 0 0 1 604 190) translate(.5 681.069)"/>
                    <path d="M438.932 15.688V28.36c-7.065 0-12.784-5.668-12.784-12.67h12.784zm0-12.671c7.065 0 12.785 5.668 12.785 12.671h-12.785V3.017z" opacity=".75" transform="matrix(-1 0 0 1 604 190) translate(.5 681.069)"/>
                    <path d="M407.884 15.688v12.068c-6.729 0-12.175-5.399-12.175-12.068h12.175zm0-12.068c6.73 0 12.176 5.399 12.176 12.068h-12.176V3.62z" opacity=".7" transform="matrix(-1 0 0 1 604 190) translate(.5 681.069)"/>
                    <path d="M376.836 15.688v11.465c-6.392 0-11.567-5.129-11.567-11.465h11.567zm0-11.464c6.393 0 11.567 5.128 11.567 11.464h-11.567V4.224z" opacity=".65" transform="matrix(-1 0 0 1 604 190) translate(.5 681.069)"/>
                    <path d="M345.788 15.688V26.55c-6.056 0-10.958-4.858-10.958-10.86h10.958zm0-10.86c6.056 0 10.959 4.858 10.959 10.86h-10.959V4.828z" opacity=".6" transform="matrix(-1 0 0 1 604 190) translate(.5 681.069)"/>
                    <path d="M314.74 15.688v10.258c-5.719 0-10.349-4.589-10.349-10.258h10.35zm0-10.257c5.72 0 10.35 4.588 10.35 10.257h-10.35V5.431z" opacity=".55" transform="matrix(-1 0 0 1 604 190) translate(.5 681.069)"/>
                    <path d="M283.693 15.688v9.655c-5.383 0-9.74-4.32-9.74-9.655h9.74zm0-9.654c5.383 0 9.74 4.319 9.74 9.654h-9.74V6.034z" opacity=".5" transform="matrix(-1 0 0 1 604 190) translate(.5 681.069)"/>
                    <path d="M252.645 15.688v9.051c-5.047 0-9.132-4.049-9.132-9.05h9.132zm0-9.05c5.046 0 9.131 4.048 9.131 9.05h-9.131v-9.05z" opacity=".45" transform="matrix(-1 0 0 1 604 190) translate(.5 681.069)"/>
                    <path d="M221.597 15.688v8.448c-4.71 0-8.523-3.78-8.523-8.448h8.523zm0-8.447c4.71 0 8.523 3.779 8.523 8.447h-8.523V7.241z" opacity=".4" transform="matrix(-1 0 0 1 604 190) translate(.5 681.069)"/>
                    <path d="M190.549 15.688v7.844c-4.374 0-7.914-3.509-7.914-7.844h7.914zm0-7.844c4.374 0 7.914 3.51 7.914 7.844h-7.914V7.844z" opacity=".35" transform="matrix(-1 0 0 1 604 190) translate(.5 681.069)"/>
                    <path d="M159.501 15.688v7.24c-4.037 0-7.305-3.238-7.305-7.24h7.305zm0-7.24c4.037 0 7.305 3.239 7.305 7.24h-7.305v-7.24z" opacity=".3" transform="matrix(-1 0 0 1 604 190) translate(.5 681.069)"/>
                    <path d="M128.453 15.688v6.638c-3.7 0-6.697-2.97-6.697-6.638h6.697zm0-6.637c3.701 0 6.697 2.97 6.697 6.637h-6.697V9.051z" opacity=".25" transform="matrix(-1 0 0 1 604 190) translate(.5 681.069)"/>
                    <path d="M97.405 15.688v6.034c-3.364 0-6.088-2.7-6.088-6.034h6.088zm0-6.034c3.365 0 6.088 2.7 6.088 6.034h-6.088V9.654z" opacity=".2" transform="matrix(-1 0 0 1 604 190) translate(.5 681.069)"/>
                    <path d="M66.357 15.688v5.43c-3.028 0-5.479-2.429-5.479-5.43h5.48zm0-5.43c3.028 0 5.48 2.429 5.48 5.43h-5.48v-5.43z" opacity=".15" transform="matrix(-1 0 0 1 604 190) translate(.5 681.069)"/>
                    <path d="M35.31 15.688v4.827c-2.692 0-4.87-2.16-4.87-4.827h4.87zm0-4.827c2.69 0 4.87 2.16 4.87 4.827h-4.87v-4.827z" opacity=".1" transform="matrix(-1 0 0 1 604 190) translate(.5 681.069)"/>
                    <path d="M4.261 15.688v4.224C1.906 19.912 0 18.022 0 15.688h4.261zm0-4.224c2.356 0 4.262 1.89 4.262 4.224H4.261v-4.224z" opacity=".05" transform="matrix(-1 0 0 1 604 190) translate(.5 681.069)"/>
                </g>
                <g>
                    <path d="M563.124 15.688v15.085c-8.411 0-15.22-6.748-15.22-15.085h15.22zm0-15.085c8.41 0 15.22 6.749 15.22 15.085h-15.22V.603z" opacity=".95" transform="matrix(-1 0 0 1 604 190) translate(32.5 649.069)"/>
                    <path d="M532.076 15.688V30.17c-8.075 0-14.61-6.479-14.61-14.482h14.61zm0-14.481c8.074 0 14.61 6.478 14.61 14.481h-14.61V1.207z" opacity=".9" transform="matrix(-1 0 0 1 604 190) translate(32.5 649.069)"/>
                    <path d="M501.028 15.688v13.878c-7.738 0-14.002-6.208-14.002-13.878h14.002zm0-13.878c7.738 0 14.002 6.209 14.002 13.878h-14.002V1.81z" opacity=".85" transform="matrix(-1 0 0 1 604 190) translate(32.5 649.069)"/>
                    <path d="M469.98 15.688v13.275c-7.402 0-13.393-5.939-13.393-13.275h13.393zm0-13.274c7.402 0 13.393 5.938 13.393 13.274H469.98V2.414z" opacity=".8" transform="matrix(-1 0 0 1 604 190) translate(32.5 649.069)"/>
                    <path d="M438.932 15.688V28.36c-7.065 0-12.784-5.668-12.784-12.67h12.784zm0-12.671c7.065 0 12.785 5.668 12.785 12.671h-12.785V3.017z" opacity=".75" transform="matrix(-1 0 0 1 604 190) translate(32.5 649.069)"/>
                    <path d="M407.884 15.688v12.068c-6.729 0-12.175-5.399-12.175-12.068h12.175zm0-12.068c6.73 0 12.176 5.399 12.176 12.068h-12.176V3.62z" opacity=".7" transform="matrix(-1 0 0 1 604 190) translate(32.5 649.069)"/>
                    <path d="M376.836 15.688v11.465c-6.392 0-11.567-5.129-11.567-11.465h11.567zm0-11.464c6.393 0 11.567 5.128 11.567 11.464h-11.567V4.224z" opacity=".65" transform="matrix(-1 0 0 1 604 190) translate(32.5 649.069)"/>
                    <path d="M345.788 15.688V26.55c-6.056 0-10.958-4.858-10.958-10.86h10.958zm0-10.86c6.056 0 10.959 4.858 10.959 10.86h-10.959V4.828z" opacity=".6" transform="matrix(-1 0 0 1 604 190) translate(32.5 649.069)"/>
                    <path d="M314.74 15.688v10.258c-5.719 0-10.349-4.589-10.349-10.258h10.35zm0-10.257c5.72 0 10.35 4.588 10.35 10.257h-10.35V5.431z" opacity=".55" transform="matrix(-1 0 0 1 604 190) translate(32.5 649.069)"/>
                    <path d="M283.693 15.688v9.655c-5.383 0-9.74-4.32-9.74-9.655h9.74zm0-9.654c5.383 0 9.74 4.319 9.74 9.654h-9.74V6.034z" opacity=".5" transform="matrix(-1 0 0 1 604 190) translate(32.5 649.069)"/>
                    <path d="M252.645 15.688v9.051c-5.047 0-9.132-4.049-9.132-9.05h9.132zm0-9.05c5.046 0 9.131 4.048 9.131 9.05h-9.131v-9.05z" opacity=".45" transform="matrix(-1 0 0 1 604 190) translate(32.5 649.069)"/>
                    <path d="M221.597 15.688v8.448c-4.71 0-8.523-3.78-8.523-8.448h8.523zm0-8.447c4.71 0 8.523 3.779 8.523 8.447h-8.523V7.241z" opacity=".4" transform="matrix(-1 0 0 1 604 190) translate(32.5 649.069)"/>
                    <path d="M190.549 15.688v7.844c-4.374 0-7.914-3.509-7.914-7.844h7.914zm0-7.844c4.374 0 7.914 3.51 7.914 7.844h-7.914V7.844z" opacity=".35" transform="matrix(-1 0 0 1 604 190) translate(32.5 649.069)"/>
                    <path d="M159.501 15.688v7.24c-4.037 0-7.305-3.238-7.305-7.24h7.305zm0-7.24c4.037 0 7.305 3.239 7.305 7.24h-7.305v-7.24z" opacity=".3" transform="matrix(-1 0 0 1 604 190) translate(32.5 649.069)"/>
                    <path d="M128.453 15.688v6.638c-3.7 0-6.697-2.97-6.697-6.638h6.697zm0-6.637c3.701 0 6.697 2.97 6.697 6.637h-6.697V9.051z" opacity=".25" transform="matrix(-1 0 0 1 604 190) translate(32.5 649.069)"/>
                    <path d="M97.405 15.688v6.034c-3.364 0-6.088-2.7-6.088-6.034h6.088zm0-6.034c3.365 0 6.088 2.7 6.088 6.034h-6.088V9.654z" opacity=".2" transform="matrix(-1 0 0 1 604 190) translate(32.5 649.069)"/>
                    <path d="M66.357 15.688v5.43c-3.028 0-5.479-2.429-5.479-5.43h5.48zm0-5.43c3.028 0 5.48 2.429 5.48 5.43h-5.48v-5.43z" opacity=".15" transform="matrix(-1 0 0 1 604 190) translate(32.5 649.069)"/>
                    <path d="M35.31 15.688v4.827c-2.692 0-4.87-2.16-4.87-4.827h4.87zm0-4.827c2.69 0 4.87 2.16 4.87 4.827h-4.87v-4.827z" opacity=".1" transform="matrix(-1 0 0 1 604 190) translate(32.5 649.069)"/>
                    <path d="M4.261 15.688v4.224C1.906 19.912 0 18.022 0 15.688h4.261zm0-4.224c2.356 0 4.262 1.89 4.262 4.224H4.261v-4.224z" opacity=".05" transform="matrix(-1 0 0 1 604 190) translate(32.5 649.069)"/>
                </g>
                <g>
                    <path d="M532.076 15.688V30.17c-8.075 0-14.61-6.479-14.61-14.482h14.61zm0-14.481c8.074 0 14.61 6.478 14.61 14.481h-14.61V1.207z" opacity=".9" transform="matrix(-1 0 0 1 604 190) translate(63.5 619.069)"/>
                    <path d="M501.028 15.688v13.878c-7.738 0-14.002-6.208-14.002-13.878h14.002zm0-13.878c7.738 0 14.002 6.209 14.002 13.878h-14.002V1.81z" opacity=".85" transform="matrix(-1 0 0 1 604 190) translate(63.5 619.069)"/>
                    <path d="M469.98 15.688v13.275c-7.402 0-13.393-5.939-13.393-13.275h13.393zm0-13.274c7.402 0 13.393 5.938 13.393 13.274H469.98V2.414z" opacity=".8" transform="matrix(-1 0 0 1 604 190) translate(63.5 619.069)"/>
                    <path d="M438.932 15.688V28.36c-7.065 0-12.784-5.668-12.784-12.67h12.784zm0-12.671c7.065 0 12.785 5.668 12.785 12.671h-12.785V3.017z" opacity=".75" transform="matrix(-1 0 0 1 604 190) translate(63.5 619.069)"/>
                    <path d="M407.884 15.688v12.068c-6.729 0-12.175-5.399-12.175-12.068h12.175zm0-12.068c6.73 0 12.176 5.399 12.176 12.068h-12.176V3.62z" opacity=".7" transform="matrix(-1 0 0 1 604 190) translate(63.5 619.069)"/>
                    <path d="M376.836 15.688v11.465c-6.392 0-11.567-5.129-11.567-11.465h11.567zm0-11.464c6.393 0 11.567 5.128 11.567 11.464h-11.567V4.224z" opacity=".65" transform="matrix(-1 0 0 1 604 190) translate(63.5 619.069)"/>
                    <path d="M345.788 15.688V26.55c-6.056 0-10.958-4.858-10.958-10.86h10.958zm0-10.86c6.056 0 10.959 4.858 10.959 10.86h-10.959V4.828z" opacity=".6" transform="matrix(-1 0 0 1 604 190) translate(63.5 619.069)"/>
                    <path d="M314.74 15.688v10.258c-5.719 0-10.349-4.589-10.349-10.258h10.35zm0-10.257c5.72 0 10.35 4.588 10.35 10.257h-10.35V5.431z" opacity=".55" transform="matrix(-1 0 0 1 604 190) translate(63.5 619.069)"/>
                    <path d="M283.693 15.688v9.655c-5.383 0-9.74-4.32-9.74-9.655h9.74zm0-9.654c5.383 0 9.74 4.319 9.74 9.654h-9.74V6.034z" opacity=".5" transform="matrix(-1 0 0 1 604 190) translate(63.5 619.069)"/>
                    <path d="M252.645 15.688v9.051c-5.047 0-9.132-4.049-9.132-9.05h9.132zm0-9.05c5.046 0 9.131 4.048 9.131 9.05h-9.131v-9.05z" opacity=".45" transform="matrix(-1 0 0 1 604 190) translate(63.5 619.069)"/>
                    <path d="M221.597 15.688v8.448c-4.71 0-8.523-3.78-8.523-8.448h8.523zm0-8.447c4.71 0 8.523 3.779 8.523 8.447h-8.523V7.241z" opacity=".4" transform="matrix(-1 0 0 1 604 190) translate(63.5 619.069)"/>
                    <path d="M190.549 15.688v7.844c-4.374 0-7.914-3.509-7.914-7.844h7.914zm0-7.844c4.374 0 7.914 3.51 7.914 7.844h-7.914V7.844z" opacity=".35" transform="matrix(-1 0 0 1 604 190) translate(63.5 619.069)"/>
                    <path d="M159.501 15.688v7.24c-4.037 0-7.305-3.238-7.305-7.24h7.305zm0-7.24c4.037 0 7.305 3.239 7.305 7.24h-7.305v-7.24z" opacity=".3" transform="matrix(-1 0 0 1 604 190) translate(63.5 619.069)"/>
                    <path d="M128.453 15.688v6.638c-3.7 0-6.697-2.97-6.697-6.638h6.697zm0-6.637c3.701 0 6.697 2.97 6.697 6.637h-6.697V9.051z" opacity=".25" transform="matrix(-1 0 0 1 604 190) translate(63.5 619.069)"/>
                    <path d="M97.405 15.688v6.034c-3.364 0-6.088-2.7-6.088-6.034h6.088zm0-6.034c3.365 0 6.088 2.7 6.088 6.034h-6.088V9.654z" opacity=".2" transform="matrix(-1 0 0 1 604 190) translate(63.5 619.069)"/>
                    <path d="M66.357 15.688v5.43c-3.028 0-5.479-2.429-5.479-5.43h5.48zm0-5.43c3.028 0 5.48 2.429 5.48 5.43h-5.48v-5.43z" opacity=".15" transform="matrix(-1 0 0 1 604 190) translate(63.5 619.069)"/>
                    <path d="M35.31 15.688v4.827c-2.692 0-4.87-2.16-4.87-4.827h4.87zm0-4.827c2.69 0 4.87 2.16 4.87 4.827h-4.87v-4.827z" opacity=".1" transform="matrix(-1 0 0 1 604 190) translate(63.5 619.069)"/>
                    <path d="M4.261 15.688v4.224C1.906 19.912 0 18.022 0 15.688h4.261zm0-4.224c2.356 0 4.262 1.89 4.262 4.224H4.261v-4.224z" opacity=".05" transform="matrix(-1 0 0 1 604 190) translate(63.5 619.069)"/>
                </g>
                <g>
                    <path d="M501.028 15.688v13.878c-7.738 0-14.002-6.208-14.002-13.878h14.002zm0-13.878c7.738 0 14.002 6.209 14.002 13.878h-14.002V1.81z" opacity=".85" transform="matrix(-1 0 0 1 604 190) translate(95.5 586.069)"/>
                    <path d="M469.98 15.688v13.275c-7.402 0-13.393-5.939-13.393-13.275h13.393zm0-13.274c7.402 0 13.393 5.938 13.393 13.274H469.98V2.414z" opacity=".8" transform="matrix(-1 0 0 1 604 190) translate(95.5 586.069)"/>
                    <path d="M438.932 15.688V28.36c-7.065 0-12.784-5.668-12.784-12.67h12.784zm0-12.671c7.065 0 12.785 5.668 12.785 12.671h-12.785V3.017z" opacity=".75" transform="matrix(-1 0 0 1 604 190) translate(95.5 586.069)"/>
                    <path d="M407.884 15.688v12.068c-6.729 0-12.175-5.399-12.175-12.068h12.175zm0-12.068c6.73 0 12.176 5.399 12.176 12.068h-12.176V3.62z" opacity=".7" transform="matrix(-1 0 0 1 604 190) translate(95.5 586.069)"/>
                    <path d="M376.836 15.688v11.465c-6.392 0-11.567-5.129-11.567-11.465h11.567zm0-11.464c6.393 0 11.567 5.128 11.567 11.464h-11.567V4.224z" opacity=".65" transform="matrix(-1 0 0 1 604 190) translate(95.5 586.069)"/>
                    <path d="M345.788 15.688V26.55c-6.056 0-10.958-4.858-10.958-10.86h10.958zm0-10.86c6.056 0 10.959 4.858 10.959 10.86h-10.959V4.828z" opacity=".6" transform="matrix(-1 0 0 1 604 190) translate(95.5 586.069)"/>
                    <path d="M314.74 15.688v10.258c-5.719 0-10.349-4.589-10.349-10.258h10.35zm0-10.257c5.72 0 10.35 4.588 10.35 10.257h-10.35V5.431z" opacity=".55" transform="matrix(-1 0 0 1 604 190) translate(95.5 586.069)"/>
                    <path d="M283.693 15.688v9.655c-5.383 0-9.74-4.32-9.74-9.655h9.74zm0-9.654c5.383 0 9.74 4.319 9.74 9.654h-9.74V6.034z" opacity=".5" transform="matrix(-1 0 0 1 604 190) translate(95.5 586.069)"/>
                    <path d="M252.645 15.688v9.051c-5.047 0-9.132-4.049-9.132-9.05h9.132zm0-9.05c5.046 0 9.131 4.048 9.131 9.05h-9.131v-9.05z" opacity=".45" transform="matrix(-1 0 0 1 604 190) translate(95.5 586.069)"/>
                    <path d="M221.597 15.688v8.448c-4.71 0-8.523-3.78-8.523-8.448h8.523zm0-8.447c4.71 0 8.523 3.779 8.523 8.447h-8.523V7.241z" opacity=".4" transform="matrix(-1 0 0 1 604 190) translate(95.5 586.069)"/>
                    <path d="M190.549 15.688v7.844c-4.374 0-7.914-3.509-7.914-7.844h7.914zm0-7.844c4.374 0 7.914 3.51 7.914 7.844h-7.914V7.844z" opacity=".35" transform="matrix(-1 0 0 1 604 190) translate(95.5 586.069)"/>
                    <path d="M159.501 15.688v7.24c-4.037 0-7.305-3.238-7.305-7.24h7.305zm0-7.24c4.037 0 7.305 3.239 7.305 7.24h-7.305v-7.24z" opacity=".3" transform="matrix(-1 0 0 1 604 190) translate(95.5 586.069)"/>
                    <path d="M128.453 15.688v6.638c-3.7 0-6.697-2.97-6.697-6.638h6.697zm0-6.637c3.701 0 6.697 2.97 6.697 6.637h-6.697V9.051z" opacity=".25" transform="matrix(-1 0 0 1 604 190) translate(95.5 586.069)"/>
                    <path d="M97.405 15.688v6.034c-3.364 0-6.088-2.7-6.088-6.034h6.088zm0-6.034c3.365 0 6.088 2.7 6.088 6.034h-6.088V9.654z" opacity=".2" transform="matrix(-1 0 0 1 604 190) translate(95.5 586.069)"/>
                    <path d="M66.357 15.688v5.43c-3.028 0-5.479-2.429-5.479-5.43h5.48zm0-5.43c3.028 0 5.48 2.429 5.48 5.43h-5.48v-5.43z" opacity=".15" transform="matrix(-1 0 0 1 604 190) translate(95.5 586.069)"/>
                    <path d="M35.31 15.688v4.827c-2.692 0-4.87-2.16-4.87-4.827h4.87zm0-4.827c2.69 0 4.87 2.16 4.87 4.827h-4.87v-4.827z" opacity=".1" transform="matrix(-1 0 0 1 604 190) translate(95.5 586.069)"/>
                    <path d="M4.261 15.688v4.224C1.906 19.912 0 18.022 0 15.688h4.261zm0-4.224c2.356 0 4.262 1.89 4.262 4.224H4.261v-4.224z" opacity=".05" transform="matrix(-1 0 0 1 604 190) translate(95.5 586.069)"/>
                </g>
                <g>
                    <path d="M469.98 15.688v13.275c-7.402 0-13.393-5.939-13.393-13.275h13.393zm0-13.274c7.402 0 13.393 5.938 13.393 13.274H469.98V2.414z" opacity=".8" transform="matrix(-1 0 0 1 604 190) translate(126.5 554.069)"/>
                    <path d="M438.932 15.688V28.36c-7.065 0-12.784-5.668-12.784-12.67h12.784zm0-12.671c7.065 0 12.785 5.668 12.785 12.671h-12.785V3.017z" opacity=".75" transform="matrix(-1 0 0 1 604 190) translate(126.5 554.069)"/>
                    <path d="M407.884 15.688v12.068c-6.729 0-12.175-5.399-12.175-12.068h12.175zm0-12.068c6.73 0 12.176 5.399 12.176 12.068h-12.176V3.62z" opacity=".7" transform="matrix(-1 0 0 1 604 190) translate(126.5 554.069)"/>
                    <path d="M376.836 15.688v11.465c-6.392 0-11.567-5.129-11.567-11.465h11.567zm0-11.464c6.393 0 11.567 5.128 11.567 11.464h-11.567V4.224z" opacity=".65" transform="matrix(-1 0 0 1 604 190) translate(126.5 554.069)"/>
                    <path d="M345.788 15.688V26.55c-6.056 0-10.958-4.858-10.958-10.86h10.958zm0-10.86c6.056 0 10.959 4.858 10.959 10.86h-10.959V4.828z" opacity=".6" transform="matrix(-1 0 0 1 604 190) translate(126.5 554.069)"/>
                    <path d="M314.74 15.688v10.258c-5.719 0-10.349-4.589-10.349-10.258h10.35zm0-10.257c5.72 0 10.35 4.588 10.35 10.257h-10.35V5.431z" opacity=".55" transform="matrix(-1 0 0 1 604 190) translate(126.5 554.069)"/>
                    <path d="M283.693 15.688v9.655c-5.383 0-9.74-4.32-9.74-9.655h9.74zm0-9.654c5.383 0 9.74 4.319 9.74 9.654h-9.74V6.034z" opacity=".5" transform="matrix(-1 0 0 1 604 190) translate(126.5 554.069)"/>
                    <path d="M252.645 15.688v9.051c-5.047 0-9.132-4.049-9.132-9.05h9.132zm0-9.05c5.046 0 9.131 4.048 9.131 9.05h-9.131v-9.05z" opacity=".45" transform="matrix(-1 0 0 1 604 190) translate(126.5 554.069)"/>
                    <path d="M221.597 15.688v8.448c-4.71 0-8.523-3.78-8.523-8.448h8.523zm0-8.447c4.71 0 8.523 3.779 8.523 8.447h-8.523V7.241z" opacity=".4" transform="matrix(-1 0 0 1 604 190) translate(126.5 554.069)"/>
                    <path d="M190.549 15.688v7.844c-4.374 0-7.914-3.509-7.914-7.844h7.914zm0-7.844c4.374 0 7.914 3.51 7.914 7.844h-7.914V7.844z" opacity=".35" transform="matrix(-1 0 0 1 604 190) translate(126.5 554.069)"/>
                    <path d="M159.501 15.688v7.24c-4.037 0-7.305-3.238-7.305-7.24h7.305zm0-7.24c4.037 0 7.305 3.239 7.305 7.24h-7.305v-7.24z" opacity=".3" transform="matrix(-1 0 0 1 604 190) translate(126.5 554.069)"/>
                    <path d="M128.453 15.688v6.638c-3.7 0-6.697-2.97-6.697-6.638h6.697zm0-6.637c3.701 0 6.697 2.97 6.697 6.637h-6.697V9.051z" opacity=".25" transform="matrix(-1 0 0 1 604 190) translate(126.5 554.069)"/>
                    <path d="M97.405 15.688v6.034c-3.364 0-6.088-2.7-6.088-6.034h6.088zm0-6.034c3.365 0 6.088 2.7 6.088 6.034h-6.088V9.654z" opacity=".2" transform="matrix(-1 0 0 1 604 190) translate(126.5 554.069)"/>
                    <path d="M66.357 15.688v5.43c-3.028 0-5.479-2.429-5.479-5.43h5.48zm0-5.43c3.028 0 5.48 2.429 5.48 5.43h-5.48v-5.43z" opacity=".15" transform="matrix(-1 0 0 1 604 190) translate(126.5 554.069)"/>
                    <path d="M35.31 15.688v4.827c-2.692 0-4.87-2.16-4.87-4.827h4.87zm0-4.827c2.69 0 4.87 2.16 4.87 4.827h-4.87v-4.827z" opacity=".1" transform="matrix(-1 0 0 1 604 190) translate(126.5 554.069)"/>
                    <path d="M4.261 15.688v4.224C1.906 19.912 0 18.022 0 15.688h4.261zm0-4.224c2.356 0 4.262 1.89 4.262 4.224H4.261v-4.224z" opacity=".05" transform="matrix(-1 0 0 1 604 190) translate(126.5 554.069)"/>
                </g>
                <g>
                    <path d="M438.932 15.688V28.36c-7.065 0-12.784-5.668-12.784-12.67h12.784zm0-12.671c7.065 0 12.785 5.668 12.785 12.671h-12.785V3.017z" opacity=".75" transform="matrix(-1 0 0 1 604 190) translate(157.5 523.069)"/>
                    <path d="M407.884 15.688v12.068c-6.729 0-12.175-5.399-12.175-12.068h12.175zm0-12.068c6.73 0 12.176 5.399 12.176 12.068h-12.176V3.62z" opacity=".7" transform="matrix(-1 0 0 1 604 190) translate(157.5 523.069)"/>
                    <path d="M376.836 15.688v11.465c-6.392 0-11.567-5.129-11.567-11.465h11.567zm0-11.464c6.393 0 11.567 5.128 11.567 11.464h-11.567V4.224z" opacity=".65" transform="matrix(-1 0 0 1 604 190) translate(157.5 523.069)"/>
                    <path d="M345.788 15.688V26.55c-6.056 0-10.958-4.858-10.958-10.86h10.958zm0-10.86c6.056 0 10.959 4.858 10.959 10.86h-10.959V4.828z" opacity=".6" transform="matrix(-1 0 0 1 604 190) translate(157.5 523.069)"/>
                    <path d="M314.74 15.688v10.258c-5.719 0-10.349-4.589-10.349-10.258h10.35zm0-10.257c5.72 0 10.35 4.588 10.35 10.257h-10.35V5.431z" opacity=".55" transform="matrix(-1 0 0 1 604 190) translate(157.5 523.069)"/>
                    <path d="M283.693 15.688v9.655c-5.383 0-9.74-4.32-9.74-9.655h9.74zm0-9.654c5.383 0 9.74 4.319 9.74 9.654h-9.74V6.034z" opacity=".5" transform="matrix(-1 0 0 1 604 190) translate(157.5 523.069)"/>
                    <path d="M252.645 15.688v9.051c-5.047 0-9.132-4.049-9.132-9.05h9.132zm0-9.05c5.046 0 9.131 4.048 9.131 9.05h-9.131v-9.05z" opacity=".45" transform="matrix(-1 0 0 1 604 190) translate(157.5 523.069)"/>
                    <path d="M221.597 15.688v8.448c-4.71 0-8.523-3.78-8.523-8.448h8.523zm0-8.447c4.71 0 8.523 3.779 8.523 8.447h-8.523V7.241z" opacity=".4" transform="matrix(-1 0 0 1 604 190) translate(157.5 523.069)"/>
                    <path d="M190.549 15.688v7.844c-4.374 0-7.914-3.509-7.914-7.844h7.914zm0-7.844c4.374 0 7.914 3.51 7.914 7.844h-7.914V7.844z" opacity=".35" transform="matrix(-1 0 0 1 604 190) translate(157.5 523.069)"/>
                    <path d="M159.501 15.688v7.24c-4.037 0-7.305-3.238-7.305-7.24h7.305zm0-7.24c4.037 0 7.305 3.239 7.305 7.24h-7.305v-7.24z" opacity=".3" transform="matrix(-1 0 0 1 604 190) translate(157.5 523.069)"/>
                    <path d="M128.453 15.688v6.638c-3.7 0-6.697-2.97-6.697-6.638h6.697zm0-6.637c3.701 0 6.697 2.97 6.697 6.637h-6.697V9.051z" opacity=".25" transform="matrix(-1 0 0 1 604 190) translate(157.5 523.069)"/>
                    <path d="M97.405 15.688v6.034c-3.364 0-6.088-2.7-6.088-6.034h6.088zm0-6.034c3.365 0 6.088 2.7 6.088 6.034h-6.088V9.654z" opacity=".2" transform="matrix(-1 0 0 1 604 190) translate(157.5 523.069)"/>
                    <path d="M66.357 15.688v5.43c-3.028 0-5.479-2.429-5.479-5.43h5.48zm0-5.43c3.028 0 5.48 2.429 5.48 5.43h-5.48v-5.43z" opacity=".15" transform="matrix(-1 0 0 1 604 190) translate(157.5 523.069)"/>
                    <path d="M35.31 15.688v4.827c-2.692 0-4.87-2.16-4.87-4.827h4.87zm0-4.827c2.69 0 4.87 2.16 4.87 4.827h-4.87v-4.827z" opacity=".1" transform="matrix(-1 0 0 1 604 190) translate(157.5 523.069)"/>
                    <path d="M4.261 15.688v4.224C1.906 19.912 0 18.022 0 15.688h4.261zm0-4.224c2.356 0 4.262 1.89 4.262 4.224H4.261v-4.224z" opacity=".05" transform="matrix(-1 0 0 1 604 190) translate(157.5 523.069)"/>
                </g>
                <g>
                    <path d="M407.884 15.688v12.068c-6.729 0-12.175-5.399-12.175-12.068h12.175zm0-12.068c6.73 0 12.176 5.399 12.176 12.068h-12.176V3.62z" opacity=".7" transform="matrix(-1 0 0 1 604 190) translate(189.5 490.069)"/>
                    <path d="M376.836 15.688v11.465c-6.392 0-11.567-5.129-11.567-11.465h11.567zm0-11.464c6.393 0 11.567 5.128 11.567 11.464h-11.567V4.224z" opacity=".65" transform="matrix(-1 0 0 1 604 190) translate(189.5 490.069)"/>
                    <path d="M345.788 15.688V26.55c-6.056 0-10.958-4.858-10.958-10.86h10.958zm0-10.86c6.056 0 10.959 4.858 10.959 10.86h-10.959V4.828z" opacity=".6" transform="matrix(-1 0 0 1 604 190) translate(189.5 490.069)"/>
                    <path d="M314.74 15.688v10.258c-5.719 0-10.349-4.589-10.349-10.258h10.35zm0-10.257c5.72 0 10.35 4.588 10.35 10.257h-10.35V5.431z" opacity=".55" transform="matrix(-1 0 0 1 604 190) translate(189.5 490.069)"/>
                    <path d="M283.693 15.688v9.655c-5.383 0-9.74-4.32-9.74-9.655h9.74zm0-9.654c5.383 0 9.74 4.319 9.74 9.654h-9.74V6.034z" opacity=".5" transform="matrix(-1 0 0 1 604 190) translate(189.5 490.069)"/>
                    <path d="M252.645 15.688v9.051c-5.047 0-9.132-4.049-9.132-9.05h9.132zm0-9.05c5.046 0 9.131 4.048 9.131 9.05h-9.131v-9.05z" opacity=".45" transform="matrix(-1 0 0 1 604 190) translate(189.5 490.069)"/>
                    <path d="M221.597 15.688v8.448c-4.71 0-8.523-3.78-8.523-8.448h8.523zm0-8.447c4.71 0 8.523 3.779 8.523 8.447h-8.523V7.241z" opacity=".4" transform="matrix(-1 0 0 1 604 190) translate(189.5 490.069)"/>
                    <path d="M190.549 15.688v7.844c-4.374 0-7.914-3.509-7.914-7.844h7.914zm0-7.844c4.374 0 7.914 3.51 7.914 7.844h-7.914V7.844z" opacity=".35" transform="matrix(-1 0 0 1 604 190) translate(189.5 490.069)"/>
                    <path d="M159.501 15.688v7.24c-4.037 0-7.305-3.238-7.305-7.24h7.305zm0-7.24c4.037 0 7.305 3.239 7.305 7.24h-7.305v-7.24z" opacity=".3" transform="matrix(-1 0 0 1 604 190) translate(189.5 490.069)"/>
                    <path d="M128.453 15.688v6.638c-3.7 0-6.697-2.97-6.697-6.638h6.697zm0-6.637c3.701 0 6.697 2.97 6.697 6.637h-6.697V9.051z" opacity=".25" transform="matrix(-1 0 0 1 604 190) translate(189.5 490.069)"/>
                    <path d="M97.405 15.688v6.034c-3.364 0-6.088-2.7-6.088-6.034h6.088zm0-6.034c3.365 0 6.088 2.7 6.088 6.034h-6.088V9.654z" opacity=".2" transform="matrix(-1 0 0 1 604 190) translate(189.5 490.069)"/>
                    <path d="M66.357 15.688v5.43c-3.028 0-5.479-2.429-5.479-5.43h5.48zm0-5.43c3.028 0 5.48 2.429 5.48 5.43h-5.48v-5.43z" opacity=".15" transform="matrix(-1 0 0 1 604 190) translate(189.5 490.069)"/>
                    <path d="M35.31 15.688v4.827c-2.692 0-4.87-2.16-4.87-4.827h4.87zm0-4.827c2.69 0 4.87 2.16 4.87 4.827h-4.87v-4.827z" opacity=".1" transform="matrix(-1 0 0 1 604 190) translate(189.5 490.069)"/>
                    <path d="M4.261 15.688v4.224C1.906 19.912 0 18.022 0 15.688h4.261zm0-4.224c2.356 0 4.262 1.89 4.262 4.224H4.261v-4.224z" opacity=".05" transform="matrix(-1 0 0 1 604 190) translate(189.5 490.069)"/>
                </g>
                <g>
                    <path d="M376.836 15.688v11.465c-6.392 0-11.567-5.129-11.567-11.465h11.567zm0-11.464c6.393 0 11.567 5.128 11.567 11.464h-11.567V4.224z" opacity=".65" transform="matrix(-1 0 0 1 604 190) translate(219.5 458.069)"/>
                    <path d="M345.788 15.688V26.55c-6.056 0-10.958-4.858-10.958-10.86h10.958zm0-10.86c6.056 0 10.959 4.858 10.959 10.86h-10.959V4.828z" opacity=".6" transform="matrix(-1 0 0 1 604 190) translate(219.5 458.069)"/>
                    <path d="M314.74 15.688v10.258c-5.719 0-10.349-4.589-10.349-10.258h10.35zm0-10.257c5.72 0 10.35 4.588 10.35 10.257h-10.35V5.431z" opacity=".55" transform="matrix(-1 0 0 1 604 190) translate(219.5 458.069)"/>
                    <path d="M283.693 15.688v9.655c-5.383 0-9.74-4.32-9.74-9.655h9.74zm0-9.654c5.383 0 9.74 4.319 9.74 9.654h-9.74V6.034z" opacity=".5" transform="matrix(-1 0 0 1 604 190) translate(219.5 458.069)"/>
                    <path d="M252.645 15.688v9.051c-5.047 0-9.132-4.049-9.132-9.05h9.132zm0-9.05c5.046 0 9.131 4.048 9.131 9.05h-9.131v-9.05z" opacity=".45" transform="matrix(-1 0 0 1 604 190) translate(219.5 458.069)"/>
                    <path d="M221.597 15.688v8.448c-4.71 0-8.523-3.78-8.523-8.448h8.523zm0-8.447c4.71 0 8.523 3.779 8.523 8.447h-8.523V7.241z" opacity=".4" transform="matrix(-1 0 0 1 604 190) translate(219.5 458.069)"/>
                    <path d="M190.549 15.688v7.844c-4.374 0-7.914-3.509-7.914-7.844h7.914zm0-7.844c4.374 0 7.914 3.51 7.914 7.844h-7.914V7.844z" opacity=".35" transform="matrix(-1 0 0 1 604 190) translate(219.5 458.069)"/>
                    <path d="M159.501 15.688v7.24c-4.037 0-7.305-3.238-7.305-7.24h7.305zm0-7.24c4.037 0 7.305 3.239 7.305 7.24h-7.305v-7.24z" opacity=".3" transform="matrix(-1 0 0 1 604 190) translate(219.5 458.069)"/>
                    <path d="M128.453 15.688v6.638c-3.7 0-6.697-2.97-6.697-6.638h6.697zm0-6.637c3.701 0 6.697 2.97 6.697 6.637h-6.697V9.051z" opacity=".25" transform="matrix(-1 0 0 1 604 190) translate(219.5 458.069)"/>
                    <path d="M97.405 15.688v6.034c-3.364 0-6.088-2.7-6.088-6.034h6.088zm0-6.034c3.365 0 6.088 2.7 6.088 6.034h-6.088V9.654z" opacity=".2" transform="matrix(-1 0 0 1 604 190) translate(219.5 458.069)"/>
                    <path d="M66.357 15.688v5.43c-3.028 0-5.479-2.429-5.479-5.43h5.48zm0-5.43c3.028 0 5.48 2.429 5.48 5.43h-5.48v-5.43z" opacity=".15" transform="matrix(-1 0 0 1 604 190) translate(219.5 458.069)"/>
                    <path d="M35.31 15.688v4.827c-2.692 0-4.87-2.16-4.87-4.827h4.87zm0-4.827c2.69 0 4.87 2.16 4.87 4.827h-4.87v-4.827z" opacity=".1" transform="matrix(-1 0 0 1 604 190) translate(219.5 458.069)"/>
                    <path d="M4.261 15.688v4.224C1.906 19.912 0 18.022 0 15.688h4.261zm0-4.224c2.356 0 4.262 1.89 4.262 4.224H4.261v-4.224z" opacity=".05" transform="matrix(-1 0 0 1 604 190) translate(219.5 458.069)"/>
                </g>
                <g>
                    <path d="M345.788 15.688V26.55c-6.056 0-10.958-4.858-10.958-10.86h10.958zm0-10.86c6.056 0 10.959 4.858 10.959 10.86h-10.959V4.828z" opacity=".6" transform="matrix(-1 0 0 1 604 190) translate(250.5 425.069)"/>
                    <path d="M314.74 15.688v10.258c-5.719 0-10.349-4.589-10.349-10.258h10.35zm0-10.257c5.72 0 10.35 4.588 10.35 10.257h-10.35V5.431z" opacity=".55" transform="matrix(-1 0 0 1 604 190) translate(250.5 425.069)"/>
                    <path d="M283.693 15.688v9.655c-5.383 0-9.74-4.32-9.74-9.655h9.74zm0-9.654c5.383 0 9.74 4.319 9.74 9.654h-9.74V6.034z" opacity=".5" transform="matrix(-1 0 0 1 604 190) translate(250.5 425.069)"/>
                    <path d="M252.645 15.688v9.051c-5.047 0-9.132-4.049-9.132-9.05h9.132zm0-9.05c5.046 0 9.131 4.048 9.131 9.05h-9.131v-9.05z" opacity=".45" transform="matrix(-1 0 0 1 604 190) translate(250.5 425.069)"/>
                    <path d="M221.597 15.688v8.448c-4.71 0-8.523-3.78-8.523-8.448h8.523zm0-8.447c4.71 0 8.523 3.779 8.523 8.447h-8.523V7.241z" opacity=".4" transform="matrix(-1 0 0 1 604 190) translate(250.5 425.069)"/>
                    <path d="M190.549 15.688v7.844c-4.374 0-7.914-3.509-7.914-7.844h7.914zm0-7.844c4.374 0 7.914 3.51 7.914 7.844h-7.914V7.844z" opacity=".35" transform="matrix(-1 0 0 1 604 190) translate(250.5 425.069)"/>
                    <path d="M159.501 15.688v7.24c-4.037 0-7.305-3.238-7.305-7.24h7.305zm0-7.24c4.037 0 7.305 3.239 7.305 7.24h-7.305v-7.24z" opacity=".3" transform="matrix(-1 0 0 1 604 190) translate(250.5 425.069)"/>
                    <path d="M128.453 15.688v6.638c-3.7 0-6.697-2.97-6.697-6.638h6.697zm0-6.637c3.701 0 6.697 2.97 6.697 6.637h-6.697V9.051z" opacity=".25" transform="matrix(-1 0 0 1 604 190) translate(250.5 425.069)"/>
                    <path d="M97.405 15.688v6.034c-3.364 0-6.088-2.7-6.088-6.034h6.088zm0-6.034c3.365 0 6.088 2.7 6.088 6.034h-6.088V9.654z" opacity=".2" transform="matrix(-1 0 0 1 604 190) translate(250.5 425.069)"/>
                    <path d="M66.357 15.688v5.43c-3.028 0-5.479-2.429-5.479-5.43h5.48zm0-5.43c3.028 0 5.48 2.429 5.48 5.43h-5.48v-5.43z" opacity=".15" transform="matrix(-1 0 0 1 604 190) translate(250.5 425.069)"/>
                    <path d="M35.31 15.688v4.827c-2.692 0-4.87-2.16-4.87-4.827h4.87zm0-4.827c2.69 0 4.87 2.16 4.87 4.827h-4.87v-4.827z" opacity=".1" transform="matrix(-1 0 0 1 604 190) translate(250.5 425.069)"/>
                    <path d="M4.261 15.688v4.224C1.906 19.912 0 18.022 0 15.688h4.261zm0-4.224c2.356 0 4.262 1.89 4.262 4.224H4.261v-4.224z" opacity=".05" transform="matrix(-1 0 0 1 604 190) translate(250.5 425.069)"/>
                </g>
                <g>
                    <path d="M314.74 15.688v10.258c-5.719 0-10.349-4.589-10.349-10.258h10.35zm0-10.257c5.72 0 10.35 4.588 10.35 10.257h-10.35V5.431z" opacity=".55" transform="matrix(-1 0 0 1 604 190) translate(282.5 391.069)"/>
                    <path d="M283.693 15.688v9.655c-5.383 0-9.74-4.32-9.74-9.655h9.74zm0-9.654c5.383 0 9.74 4.319 9.74 9.654h-9.74V6.034z" opacity=".5" transform="matrix(-1 0 0 1 604 190) translate(282.5 391.069)"/>
                    <path d="M252.645 15.688v9.051c-5.047 0-9.132-4.049-9.132-9.05h9.132zm0-9.05c5.046 0 9.131 4.048 9.131 9.05h-9.131v-9.05z" opacity=".45" transform="matrix(-1 0 0 1 604 190) translate(282.5 391.069)"/>
                    <path d="M221.597 15.688v8.448c-4.71 0-8.523-3.78-8.523-8.448h8.523zm0-8.447c4.71 0 8.523 3.779 8.523 8.447h-8.523V7.241z" opacity=".4" transform="matrix(-1 0 0 1 604 190) translate(282.5 391.069)"/>
                    <path d="M190.549 15.688v7.844c-4.374 0-7.914-3.509-7.914-7.844h7.914zm0-7.844c4.374 0 7.914 3.51 7.914 7.844h-7.914V7.844z" opacity=".35" transform="matrix(-1 0 0 1 604 190) translate(282.5 391.069)"/>
                    <path d="M159.501 15.688v7.24c-4.037 0-7.305-3.238-7.305-7.24h7.305zm0-7.24c4.037 0 7.305 3.239 7.305 7.24h-7.305v-7.24z" opacity=".3" transform="matrix(-1 0 0 1 604 190) translate(282.5 391.069)"/>
                    <path d="M128.453 15.688v6.638c-3.7 0-6.697-2.97-6.697-6.638h6.697zm0-6.637c3.701 0 6.697 2.97 6.697 6.637h-6.697V9.051z" opacity=".25" transform="matrix(-1 0 0 1 604 190) translate(282.5 391.069)"/>
                    <path d="M97.405 15.688v6.034c-3.364 0-6.088-2.7-6.088-6.034h6.088zm0-6.034c3.365 0 6.088 2.7 6.088 6.034h-6.088V9.654z" opacity=".2" transform="matrix(-1 0 0 1 604 190) translate(282.5 391.069)"/>
                    <path d="M66.357 15.688v5.43c-3.028 0-5.479-2.429-5.479-5.43h5.48zm0-5.43c3.028 0 5.48 2.429 5.48 5.43h-5.48v-5.43z" opacity=".15" transform="matrix(-1 0 0 1 604 190) translate(282.5 391.069)"/>
                    <path d="M35.31 15.688v4.827c-2.692 0-4.87-2.16-4.87-4.827h4.87zm0-4.827c2.69 0 4.87 2.16 4.87 4.827h-4.87v-4.827z" opacity=".1" transform="matrix(-1 0 0 1 604 190) translate(282.5 391.069)"/>
                    <path d="M4.261 15.688v4.224C1.906 19.912 0 18.022 0 15.688h4.261zm0-4.224c2.356 0 4.262 1.89 4.262 4.224H4.261v-4.224z" opacity=".05" transform="matrix(-1 0 0 1 604 190) translate(282.5 391.069)"/>
                </g>
                <g>
                    <path d="M252.645 15.688v9.051c-5.047 0-9.132-4.049-9.132-9.05h9.132zm0-9.05c5.046 0 9.131 4.048 9.131 9.05h-9.131v-9.05z" opacity=".45" transform="matrix(-1 0 0 1 604 190) translate(344.5 359.069)"/>
                    <path d="M221.597 15.688v8.448c-4.71 0-8.523-3.78-8.523-8.448h8.523zm0-8.447c4.71 0 8.523 3.779 8.523 8.447h-8.523V7.241z" opacity=".4" transform="matrix(-1 0 0 1 604 190) translate(344.5 359.069)"/>
                    <path d="M190.549 15.688v7.844c-4.374 0-7.914-3.509-7.914-7.844h7.914zm0-7.844c4.374 0 7.914 3.51 7.914 7.844h-7.914V7.844z" opacity=".35" transform="matrix(-1 0 0 1 604 190) translate(344.5 359.069)"/>
                    <path d="M159.501 15.688v7.24c-4.037 0-7.305-3.238-7.305-7.24h7.305zm0-7.24c4.037 0 7.305 3.239 7.305 7.24h-7.305v-7.24z" opacity=".3" transform="matrix(-1 0 0 1 604 190) translate(344.5 359.069)"/>
                    <path d="M128.453 15.688v6.638c-3.7 0-6.697-2.97-6.697-6.638h6.697zm0-6.637c3.701 0 6.697 2.97 6.697 6.637h-6.697V9.051z" opacity=".25" transform="matrix(-1 0 0 1 604 190) translate(344.5 359.069)"/>
                    <path d="M97.405 15.688v6.034c-3.364 0-6.088-2.7-6.088-6.034h6.088zm0-6.034c3.365 0 6.088 2.7 6.088 6.034h-6.088V9.654z" opacity=".2" transform="matrix(-1 0 0 1 604 190) translate(344.5 359.069)"/>
                    <path d="M66.357 15.688v5.43c-3.028 0-5.479-2.429-5.479-5.43h5.48zm0-5.43c3.028 0 5.48 2.429 5.48 5.43h-5.48v-5.43z" opacity=".15" transform="matrix(-1 0 0 1 604 190) translate(344.5 359.069)"/>
                    <path d="M35.31 15.688v4.827c-2.692 0-4.87-2.16-4.87-4.827h4.87zm0-4.827c2.69 0 4.87 2.16 4.87 4.827h-4.87v-4.827z" opacity=".1" transform="matrix(-1 0 0 1 604 190) translate(344.5 359.069)"/>
                    <path d="M4.261 15.688v4.224C1.906 19.912 0 18.022 0 15.688h4.261zm0-4.224c2.356 0 4.262 1.89 4.262 4.224H4.261v-4.224z" opacity=".05" transform="matrix(-1 0 0 1 604 190) translate(344.5 359.069)"/>
                </g>
                <g>
                    <path d="M221.597 15.688v8.448c-4.71 0-8.523-3.78-8.523-8.448h8.523zm0-8.447c4.71 0 8.523 3.779 8.523 8.447h-8.523V7.241z" opacity=".4" transform="matrix(-1 0 0 1 604 190) translate(375.5 327.069)"/>
                    <path d="M190.549 15.688v7.844c-4.374 0-7.914-3.509-7.914-7.844h7.914zm0-7.844c4.374 0 7.914 3.51 7.914 7.844h-7.914V7.844z" opacity=".35" transform="matrix(-1 0 0 1 604 190) translate(375.5 327.069)"/>
                    <path d="M159.501 15.688v7.24c-4.037 0-7.305-3.238-7.305-7.24h7.305zm0-7.24c4.037 0 7.305 3.239 7.305 7.24h-7.305v-7.24z" opacity=".3" transform="matrix(-1 0 0 1 604 190) translate(375.5 327.069)"/>
                    <path d="M128.453 15.688v6.638c-3.7 0-6.697-2.97-6.697-6.638h6.697zm0-6.637c3.701 0 6.697 2.97 6.697 6.637h-6.697V9.051z" opacity=".25" transform="matrix(-1 0 0 1 604 190) translate(375.5 327.069)"/>
                    <path d="M97.405 15.688v6.034c-3.364 0-6.088-2.7-6.088-6.034h6.088zm0-6.034c3.365 0 6.088 2.7 6.088 6.034h-6.088V9.654z" opacity=".2" transform="matrix(-1 0 0 1 604 190) translate(375.5 327.069)"/>
                    <path d="M66.357 15.688v5.43c-3.028 0-5.479-2.429-5.479-5.43h5.48zm0-5.43c3.028 0 5.48 2.429 5.48 5.43h-5.48v-5.43z" opacity=".15" transform="matrix(-1 0 0 1 604 190) translate(375.5 327.069)"/>
                    <path d="M35.31 15.688v4.827c-2.692 0-4.87-2.16-4.87-4.827h4.87zm0-4.827c2.69 0 4.87 2.16 4.87 4.827h-4.87v-4.827z" opacity=".1" transform="matrix(-1 0 0 1 604 190) translate(375.5 327.069)"/>
                    <path d="M4.261 15.688v4.224C1.906 19.912 0 18.022 0 15.688h4.261zm0-4.224c2.356 0 4.262 1.89 4.262 4.224H4.261v-4.224z" opacity=".05" transform="matrix(-1 0 0 1 604 190) translate(375.5 327.069)"/>
                </g>
                <g>
                    <path d="M190.549 15.688v7.844c-4.374 0-7.914-3.509-7.914-7.844h7.914zm0-7.844c4.374 0 7.914 3.51 7.914 7.844h-7.914V7.844z" opacity=".35" transform="matrix(-1 0 0 1 604 190) translate(406.5 294.069)"/>
                    <path d="M159.501 15.688v7.24c-4.037 0-7.305-3.238-7.305-7.24h7.305zm0-7.24c4.037 0 7.305 3.239 7.305 7.24h-7.305v-7.24z" opacity=".3" transform="matrix(-1 0 0 1 604 190) translate(406.5 294.069)"/>
                    <path d="M128.453 15.688v6.638c-3.7 0-6.697-2.97-6.697-6.638h6.697zm0-6.637c3.701 0 6.697 2.97 6.697 6.637h-6.697V9.051z" opacity=".25" transform="matrix(-1 0 0 1 604 190) translate(406.5 294.069)"/>
                    <path d="M97.405 15.688v6.034c-3.364 0-6.088-2.7-6.088-6.034h6.088zm0-6.034c3.365 0 6.088 2.7 6.088 6.034h-6.088V9.654z" opacity=".2" transform="matrix(-1 0 0 1 604 190) translate(406.5 294.069)"/>
                    <path d="M66.357 15.688v5.43c-3.028 0-5.479-2.429-5.479-5.43h5.48zm0-5.43c3.028 0 5.48 2.429 5.48 5.43h-5.48v-5.43z" opacity=".15" transform="matrix(-1 0 0 1 604 190) translate(406.5 294.069)"/>
                    <path d="M35.31 15.688v4.827c-2.692 0-4.87-2.16-4.87-4.827h4.87zm0-4.827c2.69 0 4.87 2.16 4.87 4.827h-4.87v-4.827z" opacity=".1" transform="matrix(-1 0 0 1 604 190) translate(406.5 294.069)"/>
                    <path d="M4.261 15.688v4.224C1.906 19.912 0 18.022 0 15.688h4.261zm0-4.224c2.356 0 4.262 1.89 4.262 4.224H4.261v-4.224z" opacity=".05" transform="matrix(-1 0 0 1 604 190) translate(406.5 294.069)"/>
                </g>
                <g>
                    <path d="M159.501 15.688v7.24c-4.037 0-7.305-3.238-7.305-7.24h7.305zm0-7.24c4.037 0 7.305 3.239 7.305 7.24h-7.305v-7.24z" opacity=".3" transform="matrix(-1 0 0 1 604 190) translate(437.5 262.069)"/>
                    <path d="M128.453 15.688v6.638c-3.7 0-6.697-2.97-6.697-6.638h6.697zm0-6.637c3.701 0 6.697 2.97 6.697 6.637h-6.697V9.051z" opacity=".25" transform="matrix(-1 0 0 1 604 190) translate(437.5 262.069)"/>
                    <path d="M97.405 15.688v6.034c-3.364 0-6.088-2.7-6.088-6.034h6.088zm0-6.034c3.365 0 6.088 2.7 6.088 6.034h-6.088V9.654z" opacity=".2" transform="matrix(-1 0 0 1 604 190) translate(437.5 262.069)"/>
                    <path d="M66.357 15.688v5.43c-3.028 0-5.479-2.429-5.479-5.43h5.48zm0-5.43c3.028 0 5.48 2.429 5.48 5.43h-5.48v-5.43z" opacity=".15" transform="matrix(-1 0 0 1 604 190) translate(437.5 262.069)"/>
                    <path d="M35.31 15.688v4.827c-2.692 0-4.87-2.16-4.87-4.827h4.87zm0-4.827c2.69 0 4.87 2.16 4.87 4.827h-4.87v-4.827z" opacity=".1" transform="matrix(-1 0 0 1 604 190) translate(437.5 262.069)"/>
                    <path d="M4.261 15.688v4.224C1.906 19.912 0 18.022 0 15.688h4.261zm0-4.224c2.356 0 4.262 1.89 4.262 4.224H4.261v-4.224z" opacity=".05" transform="matrix(-1 0 0 1 604 190) translate(437.5 262.069)"/>
                </g>
                <g>
                    <path d="M128.453 15.688v6.638c-3.7 0-6.697-2.97-6.697-6.638h6.697zm0-6.637c3.701 0 6.697 2.97 6.697 6.637h-6.697V9.051z" opacity=".25" transform="matrix(-1 0 0 1 604 190) translate(469.5 230.069)"/>
                    <path d="M97.405 15.688v6.034c-3.364 0-6.088-2.7-6.088-6.034h6.088zm0-6.034c3.365 0 6.088 2.7 6.088 6.034h-6.088V9.654z" opacity=".2" transform="matrix(-1 0 0 1 604 190) translate(469.5 230.069)"/>
                    <path d="M66.357 15.688v5.43c-3.028 0-5.479-2.429-5.479-5.43h5.48zm0-5.43c3.028 0 5.48 2.429 5.48 5.43h-5.48v-5.43z" opacity=".15" transform="matrix(-1 0 0 1 604 190) translate(469.5 230.069)"/>
                    <path d="M35.31 15.688v4.827c-2.692 0-4.87-2.16-4.87-4.827h4.87zm0-4.827c2.69 0 4.87 2.16 4.87 4.827h-4.87v-4.827z" opacity=".1" transform="matrix(-1 0 0 1 604 190) translate(469.5 230.069)"/>
                    <path d="M4.261 15.688v4.224C1.906 19.912 0 18.022 0 15.688h4.261zm0-4.224c2.356 0 4.262 1.89 4.262 4.224H4.261v-4.224z" opacity=".05" transform="matrix(-1 0 0 1 604 190) translate(469.5 230.069)"/>
                </g>
                <g>
                    <path d="M97.405 15.688v6.034c-3.364 0-6.088-2.7-6.088-6.034h6.088zm0-6.034c3.365 0 6.088 2.7 6.088 6.034h-6.088V9.654z" opacity=".2" transform="matrix(-1 0 0 1 604 190) translate(500.5 198.069)"/>
                    <path d="M66.357 15.688v5.43c-3.028 0-5.479-2.429-5.479-5.43h5.48zm0-5.43c3.028 0 5.48 2.429 5.48 5.43h-5.48v-5.43z" opacity=".15" transform="matrix(-1 0 0 1 604 190) translate(500.5 198.069)"/>
                    <path d="M35.31 15.688v4.827c-2.692 0-4.87-2.16-4.87-4.827h4.87zm0-4.827c2.69 0 4.87 2.16 4.87 4.827h-4.87v-4.827z" opacity=".1" transform="matrix(-1 0 0 1 604 190) translate(500.5 198.069)"/>
                    <path d="M4.261 15.688v4.224C1.906 19.912 0 18.022 0 15.688h4.261zm0-4.224c2.356 0 4.262 1.89 4.262 4.224H4.261v-4.224z" opacity=".05" transform="matrix(-1 0 0 1 604 190) translate(500.5 198.069)"/>
                </g>
                <g>
                    <path d="M66.357 15.688v5.43c-3.028 0-5.479-2.429-5.479-5.43h5.48zm0-5.43c3.028 0 5.48 2.429 5.48 5.43h-5.48v-5.43z" opacity=".15" transform="matrix(-1 0 0 1 604 190) translate(530.5 164.069)"/>
                    <path d="M35.31 15.688v4.827c-2.692 0-4.87-2.16-4.87-4.827h4.87zm0-4.827c2.69 0 4.87 2.16 4.87 4.827h-4.87v-4.827z" opacity=".1" transform="matrix(-1 0 0 1 604 190) translate(530.5 164.069)"/>
                    <path d="M4.261 15.688v4.224C1.906 19.912 0 18.022 0 15.688h4.261zm0-4.224c2.356 0 4.262 1.89 4.262 4.224H4.261v-4.224z" opacity=".05" transform="matrix(-1 0 0 1 604 190) translate(530.5 164.069)"/>
                </g>
                <g>
                    <path d="M35.31 15.688v4.827c-2.692 0-4.87-2.16-4.87-4.827h4.87zm0-4.827c2.69 0 4.87 2.16 4.87 4.827h-4.87v-4.827z" opacity=".1" transform="matrix(-1 0 0 1 604 190) translate(562.5 133.069)"/>
                    <path d="M4.261 15.688v4.224C1.906 19.912 0 18.022 0 15.688h4.261zm0-4.224c2.356 0 4.262 1.89 4.262 4.224H4.261v-4.224z" opacity=".05" transform="matrix(-1 0 0 1 604 190) translate(562.5 133.069)"/>
                </g>
                <path d="M596.761 114.757v4.223c-2.355 0-4.261-1.889-4.261-4.223h4.261zm0-4.224c2.356 0 4.262 1.89 4.262 4.224h-4.262v-4.224z" opacity=".05" transform="matrix(-1 0 0 1 604 190)"/>
            </g>
        </g>
        <g mask="url(#xtsmeu4qac)" opacity=".904">
            <g fill="#FFF" fill-rule="nonzero">
                <g>
                    <path d="M536.703 14.262v14.262c-7.902 0-14.298-6.38-14.298-14.262h14.298zm0-14.262C544.604 0 551 6.38 551 14.262h-14.297V0z" transform="matrix(1 0 0 -1 17 516) translate(114 501.42)"/>
                    <path d="M508.658 14.262v13.713c-7.598 0-13.748-6.134-13.748-13.713h13.748zm0-13.713c7.597 0 13.747 6.134 13.747 13.713h-13.747V.549z" opacity=".95" transform="matrix(1 0 0 -1 17 516) translate(114 501.42)"/>
                    <path d="M480.613 14.262v13.165c-7.294 0-13.198-5.89-13.198-13.165h13.198zm0-13.165c7.293 0 13.197 5.89 13.197 13.165h-13.197V1.097z" opacity=".9" transform="matrix(1 0 0 -1 17 516) translate(114 501.42)"/>
                    <path d="M452.568 14.262v12.616c-6.99 0-12.648-5.644-12.648-12.616h12.648zm0-12.616c6.99 0 12.648 5.644 12.648 12.616h-12.648V1.646z" opacity=".85" transform="matrix(1 0 0 -1 17 516) translate(114 501.42)"/>
                    <path d="M424.523 14.262V26.33c-6.686 0-12.098-5.399-12.098-12.068h12.098zm0-12.068c6.686 0 12.098 5.399 12.098 12.068h-12.098V2.194z" opacity=".8" transform="matrix(1 0 0 -1 17 516) translate(114 501.42)"/>
                    <path d="M396.478 14.262v11.52c-6.382 0-11.548-5.154-11.548-11.52h11.548zm0-11.52c6.382 0 11.548 5.154 11.548 11.52h-11.548V2.742z" opacity=".75" transform="matrix(1 0 0 -1 17 516) translate(114 501.42)"/>
                    <path d="M368.433 14.262v10.97c-6.078 0-10.998-4.907-10.998-10.97h10.998zm0-10.97c6.078 0 10.998 4.907 10.998 10.97h-10.998V3.292z" opacity=".7" transform="matrix(1 0 0 -1 17 516) translate(114 501.42)"/>
                    <path d="M340.388 14.262v10.422c-5.774 0-10.448-4.662-10.448-10.422h10.448zm0-10.422c5.774 0 10.448 4.662 10.448 10.422h-10.448V3.84z" opacity=".65" transform="matrix(1 0 0 -1 17 516) translate(114 501.42)"/>
                    <path d="M312.343 14.262v9.874c-5.47 0-9.898-4.417-9.898-9.874h9.898zm0-9.874c5.47 0 9.899 4.417 9.899 9.874h-9.899V4.388z" opacity=".6" transform="matrix(1 0 0 -1 17 516) translate(114 501.42)"/>
                    <path d="M284.298 14.262v9.325c-5.166 0-9.348-4.171-9.348-9.325h9.348zm0-9.325c5.167 0 9.349 4.171 9.349 9.325h-9.349V4.937z" opacity=".55" transform="matrix(1 0 0 -1 17 516) translate(114 501.42)"/>
                    <path d="M256.253 14.262v8.777c-4.862 0-8.798-3.927-8.798-8.777h8.798zm0-8.777c4.863 0 8.799 3.927 8.799 8.777h-8.799V5.485z" opacity=".5" transform="matrix(1 0 0 -1 17 516) translate(114 501.42)"/>
                    <path d="M228.209 14.262v8.228c-4.559 0-8.249-3.68-8.249-8.228h8.249zm0-8.228c4.558 0 8.248 3.68 8.248 8.228h-8.248V6.034z" opacity=".45" transform="matrix(1 0 0 -1 17 516) translate(114 501.42)"/>
                    <path d="M200.164 14.262v7.68c-4.255 0-7.699-3.436-7.699-7.68h7.699zm0-7.68c4.254 0 7.698 3.436 7.698 7.68h-7.698v-7.68z" opacity=".4" transform="matrix(1 0 0 -1 17 516) translate(114 501.42)"/>
                    <path d="M172.119 14.262v7.131c-3.95 0-7.149-3.19-7.149-7.131h7.149zm0-7.131c3.95 0 7.148 3.19 7.148 7.131h-7.148V7.131z" opacity=".35" transform="matrix(1 0 0 -1 17 516) translate(114 501.42)"/>
                    <path d="M144.074 14.262v6.582c-3.647 0-6.599-2.944-6.599-6.582h6.599zm0-6.582c3.647 0 6.599 2.944 6.599 6.582h-6.6V7.68z" opacity=".3" transform="matrix(1 0 0 -1 17 516) translate(114 501.42)"/>
                    <path d="M116.029 14.262v6.034c-3.343 0-6.049-2.7-6.049-6.034h6.049zm0-6.034c3.343 0 6.049 2.7 6.049 6.034h-6.05V8.228z" opacity=".25" transform="matrix(1 0 0 -1 17 516) translate(114 501.42)"/>
                    <path d="M87.984 14.262v5.485c-3.039 0-5.499-2.454-5.499-5.485h5.499zm0-5.485c3.039 0 5.499 2.454 5.499 5.485h-5.499V8.777z" opacity=".2" transform="matrix(1 0 0 -1 17 516) translate(114 501.42)"/>
                    <path d="M59.94 14.262v4.937c-2.736 0-4.95-2.209-4.95-4.937h4.95zm0-4.937c2.734 0 4.948 2.209 4.948 4.937H59.94V9.325z" opacity=".15" transform="matrix(1 0 0 -1 17 516) translate(114 501.42)"/>
                    <path d="M31.894 14.262v4.388c-2.431 0-4.399-1.963-4.399-4.388h4.4zm0-4.388c2.431 0 4.4 1.963 4.4 4.388h-4.4V9.874z" opacity=".1" transform="matrix(1 0 0 -1 17 516) translate(114 501.42)"/>
                    <path d="M3.85 14.262v3.84c-2.128 0-3.85-1.718-3.85-3.84h3.85zm0-3.84c2.127 0 3.849 1.718 3.849 3.84h-3.85v-3.84z" opacity=".05" transform="matrix(1 0 0 -1 17 516) translate(114 501.42)"/>
                </g>
                <g>
                    <path d="M508.658 14.262v13.713c-7.598 0-13.748-6.134-13.748-13.713h13.748zm0-13.713c7.597 0 13.747 6.134 13.747 13.713h-13.747V.549z" opacity=".95" transform="matrix(1 0 0 -1 17 516) translate(142 473.42)"/>
                    <path d="M480.613 14.262v13.165c-7.294 0-13.198-5.89-13.198-13.165h13.198zm0-13.165c7.293 0 13.197 5.89 13.197 13.165h-13.197V1.097z" opacity=".9" transform="matrix(1 0 0 -1 17 516) translate(142 473.42)"/>
                    <path d="M452.568 14.262v12.616c-6.99 0-12.648-5.644-12.648-12.616h12.648zm0-12.616c6.99 0 12.648 5.644 12.648 12.616h-12.648V1.646z" opacity=".85" transform="matrix(1 0 0 -1 17 516) translate(142 473.42)"/>
                    <path d="M424.523 14.262V26.33c-6.686 0-12.098-5.399-12.098-12.068h12.098zm0-12.068c6.686 0 12.098 5.399 12.098 12.068h-12.098V2.194z" opacity=".8" transform="matrix(1 0 0 -1 17 516) translate(142 473.42)"/>
                    <path d="M396.478 14.262v11.52c-6.382 0-11.548-5.154-11.548-11.52h11.548zm0-11.52c6.382 0 11.548 5.154 11.548 11.52h-11.548V2.742z" opacity=".75" transform="matrix(1 0 0 -1 17 516) translate(142 473.42)"/>
                    <path d="M368.433 14.262v10.97c-6.078 0-10.998-4.907-10.998-10.97h10.998zm0-10.97c6.078 0 10.998 4.907 10.998 10.97h-10.998V3.292z" opacity=".7" transform="matrix(1 0 0 -1 17 516) translate(142 473.42)"/>
                    <path d="M340.388 14.262v10.422c-5.774 0-10.448-4.662-10.448-10.422h10.448zm0-10.422c5.774 0 10.448 4.662 10.448 10.422h-10.448V3.84z" opacity=".65" transform="matrix(1 0 0 -1 17 516) translate(142 473.42)"/>
                    <path d="M312.343 14.262v9.874c-5.47 0-9.898-4.417-9.898-9.874h9.898zm0-9.874c5.47 0 9.899 4.417 9.899 9.874h-9.899V4.388z" opacity=".6" transform="matrix(1 0 0 -1 17 516) translate(142 473.42)"/>
                    <path d="M284.298 14.262v9.325c-5.166 0-9.348-4.171-9.348-9.325h9.348zm0-9.325c5.167 0 9.349 4.171 9.349 9.325h-9.349V4.937z" opacity=".55" transform="matrix(1 0 0 -1 17 516) translate(142 473.42)"/>
                    <path d="M256.253 14.262v8.777c-4.862 0-8.798-3.927-8.798-8.777h8.798zm0-8.777c4.863 0 8.799 3.927 8.799 8.777h-8.799V5.485z" opacity=".5" transform="matrix(1 0 0 -1 17 516) translate(142 473.42)"/>
                    <path d="M228.209 14.262v8.228c-4.559 0-8.249-3.68-8.249-8.228h8.249zm0-8.228c4.558 0 8.248 3.68 8.248 8.228h-8.248V6.034z" opacity=".45" transform="matrix(1 0 0 -1 17 516) translate(142 473.42)"/>
                    <path d="M200.164 14.262v7.68c-4.255 0-7.699-3.436-7.699-7.68h7.699zm0-7.68c4.254 0 7.698 3.436 7.698 7.68h-7.698v-7.68z" opacity=".4" transform="matrix(1 0 0 -1 17 516) translate(142 473.42)"/>
                    <path d="M172.119 14.262v7.131c-3.95 0-7.149-3.19-7.149-7.131h7.149zm0-7.131c3.95 0 7.148 3.19 7.148 7.131h-7.148V7.131z" opacity=".35" transform="matrix(1 0 0 -1 17 516) translate(142 473.42)"/>
                    <path d="M144.074 14.262v6.582c-3.647 0-6.599-2.944-6.599-6.582h6.599zm0-6.582c3.647 0 6.599 2.944 6.599 6.582h-6.6V7.68z" opacity=".3" transform="matrix(1 0 0 -1 17 516) translate(142 473.42)"/>
                    <path d="M116.029 14.262v6.034c-3.343 0-6.049-2.7-6.049-6.034h6.049zm0-6.034c3.343 0 6.049 2.7 6.049 6.034h-6.05V8.228z" opacity=".25" transform="matrix(1 0 0 -1 17 516) translate(142 473.42)"/>
                    <path d="M87.984 14.262v5.485c-3.039 0-5.499-2.454-5.499-5.485h5.499zm0-5.485c3.039 0 5.499 2.454 5.499 5.485h-5.499V8.777z" opacity=".2" transform="matrix(1 0 0 -1 17 516) translate(142 473.42)"/>
                    <path d="M59.94 14.262v4.937c-2.736 0-4.95-2.209-4.95-4.937h4.95zm0-4.937c2.734 0 4.948 2.209 4.948 4.937H59.94V9.325z" opacity=".15" transform="matrix(1 0 0 -1 17 516) translate(142 473.42)"/>
                    <path d="M31.894 14.262v4.388c-2.431 0-4.399-1.963-4.399-4.388h4.4zm0-4.388c2.431 0 4.4 1.963 4.4 4.388h-4.4V9.874z" opacity=".1" transform="matrix(1 0 0 -1 17 516) translate(142 473.42)"/>
                    <path d="M3.85 14.262v3.84c-2.128 0-3.85-1.718-3.85-3.84h3.85zm0-3.84c2.127 0 3.849 1.718 3.849 3.84h-3.85v-3.84z" opacity=".05" transform="matrix(1 0 0 -1 17 516) translate(142 473.42)"/>
                </g>
                <g>
                    <path d="M480.613 14.262v13.165c-7.294 0-13.198-5.89-13.198-13.165h13.198zm0-13.165c7.293 0 13.197 5.89 13.197 13.165h-13.197V1.097z" opacity=".9" transform="matrix(1 0 0 -1 17 516) translate(171 443.42)"/>
                    <path d="M452.568 14.262v12.616c-6.99 0-12.648-5.644-12.648-12.616h12.648zm0-12.616c6.99 0 12.648 5.644 12.648 12.616h-12.648V1.646z" opacity=".85" transform="matrix(1 0 0 -1 17 516) translate(171 443.42)"/>
                    <path d="M424.523 14.262V26.33c-6.686 0-12.098-5.399-12.098-12.068h12.098zm0-12.068c6.686 0 12.098 5.399 12.098 12.068h-12.098V2.194z" opacity=".8" transform="matrix(1 0 0 -1 17 516) translate(171 443.42)"/>
                    <path d="M396.478 14.262v11.52c-6.382 0-11.548-5.154-11.548-11.52h11.548zm0-11.52c6.382 0 11.548 5.154 11.548 11.52h-11.548V2.742z" opacity=".75" transform="matrix(1 0 0 -1 17 516) translate(171 443.42)"/>
                    <path d="M368.433 14.262v10.97c-6.078 0-10.998-4.907-10.998-10.97h10.998zm0-10.97c6.078 0 10.998 4.907 10.998 10.97h-10.998V3.292z" opacity=".7" transform="matrix(1 0 0 -1 17 516) translate(171 443.42)"/>
                    <path d="M340.388 14.262v10.422c-5.774 0-10.448-4.662-10.448-10.422h10.448zm0-10.422c5.774 0 10.448 4.662 10.448 10.422h-10.448V3.84z" opacity=".65" transform="matrix(1 0 0 -1 17 516) translate(171 443.42)"/>
                    <path d="M312.343 14.262v9.874c-5.47 0-9.898-4.417-9.898-9.874h9.898zm0-9.874c5.47 0 9.899 4.417 9.899 9.874h-9.899V4.388z" opacity=".6" transform="matrix(1 0 0 -1 17 516) translate(171 443.42)"/>
                    <path d="M284.298 14.262v9.325c-5.166 0-9.348-4.171-9.348-9.325h9.348zm0-9.325c5.167 0 9.349 4.171 9.349 9.325h-9.349V4.937z" opacity=".55" transform="matrix(1 0 0 -1 17 516) translate(171 443.42)"/>
                    <path d="M256.253 14.262v8.777c-4.862 0-8.798-3.927-8.798-8.777h8.798zm0-8.777c4.863 0 8.799 3.927 8.799 8.777h-8.799V5.485z" opacity=".5" transform="matrix(1 0 0 -1 17 516) translate(171 443.42)"/>
                    <path d="M228.209 14.262v8.228c-4.559 0-8.249-3.68-8.249-8.228h8.249zm0-8.228c4.558 0 8.248 3.68 8.248 8.228h-8.248V6.034z" opacity=".45" transform="matrix(1 0 0 -1 17 516) translate(171 443.42)"/>
                    <path d="M200.164 14.262v7.68c-4.255 0-7.699-3.436-7.699-7.68h7.699zm0-7.68c4.254 0 7.698 3.436 7.698 7.68h-7.698v-7.68z" opacity=".4" transform="matrix(1 0 0 -1 17 516) translate(171 443.42)"/>
                    <path d="M172.119 14.262v7.131c-3.95 0-7.149-3.19-7.149-7.131h7.149zm0-7.131c3.95 0 7.148 3.19 7.148 7.131h-7.148V7.131z" opacity=".35" transform="matrix(1 0 0 -1 17 516) translate(171 443.42)"/>
                    <path d="M144.074 14.262v6.582c-3.647 0-6.599-2.944-6.599-6.582h6.599zm0-6.582c3.647 0 6.599 2.944 6.599 6.582h-6.6V7.68z" opacity=".3" transform="matrix(1 0 0 -1 17 516) translate(171 443.42)"/>
                    <path d="M116.029 14.262v6.034c-3.343 0-6.049-2.7-6.049-6.034h6.049zm0-6.034c3.343 0 6.049 2.7 6.049 6.034h-6.05V8.228z" opacity=".25" transform="matrix(1 0 0 -1 17 516) translate(171 443.42)"/>
                    <path d="M87.984 14.262v5.485c-3.039 0-5.499-2.454-5.499-5.485h5.499zm0-5.485c3.039 0 5.499 2.454 5.499 5.485h-5.499V8.777z" opacity=".2" transform="matrix(1 0 0 -1 17 516) translate(171 443.42)"/>
                    <path d="M59.94 14.262v4.937c-2.736 0-4.95-2.209-4.95-4.937h4.95zm0-4.937c2.734 0 4.948 2.209 4.948 4.937H59.94V9.325z" opacity=".15" transform="matrix(1 0 0 -1 17 516) translate(171 443.42)"/>
                    <path d="M31.894 14.262v4.388c-2.431 0-4.399-1.963-4.399-4.388h4.4zm0-4.388c2.431 0 4.4 1.963 4.4 4.388h-4.4V9.874z" opacity=".1" transform="matrix(1 0 0 -1 17 516) translate(171 443.42)"/>
                    <path d="M3.85 14.262v3.84c-2.128 0-3.85-1.718-3.85-3.84h3.85zm0-3.84c2.127 0 3.849 1.718 3.849 3.84h-3.85v-3.84z" opacity=".05" transform="matrix(1 0 0 -1 17 516) translate(171 443.42)"/>
                </g>
                <g>
                    <path d="M452.568 14.262v12.616c-6.99 0-12.648-5.644-12.648-12.616h12.648zm0-12.616c6.99 0 12.648 5.644 12.648 12.616h-12.648V1.646z" opacity=".85" transform="matrix(1 0 0 -1 17 516) translate(198 414.42)"/>
                    <path d="M424.523 14.262V26.33c-6.686 0-12.098-5.399-12.098-12.068h12.098zm0-12.068c6.686 0 12.098 5.399 12.098 12.068h-12.098V2.194z" opacity=".8" transform="matrix(1 0 0 -1 17 516) translate(198 414.42)"/>
                    <path d="M396.478 14.262v11.52c-6.382 0-11.548-5.154-11.548-11.52h11.548zm0-11.52c6.382 0 11.548 5.154 11.548 11.52h-11.548V2.742z" opacity=".75" transform="matrix(1 0 0 -1 17 516) translate(198 414.42)"/>
                    <path d="M368.433 14.262v10.97c-6.078 0-10.998-4.907-10.998-10.97h10.998zm0-10.97c6.078 0 10.998 4.907 10.998 10.97h-10.998V3.292z" opacity=".7" transform="matrix(1 0 0 -1 17 516) translate(198 414.42)"/>
                    <path d="M340.388 14.262v10.422c-5.774 0-10.448-4.662-10.448-10.422h10.448zm0-10.422c5.774 0 10.448 4.662 10.448 10.422h-10.448V3.84z" opacity=".65" transform="matrix(1 0 0 -1 17 516) translate(198 414.42)"/>
                    <path d="M312.343 14.262v9.874c-5.47 0-9.898-4.417-9.898-9.874h9.898zm0-9.874c5.47 0 9.899 4.417 9.899 9.874h-9.899V4.388z" opacity=".6" transform="matrix(1 0 0 -1 17 516) translate(198 414.42)"/>
                    <path d="M284.298 14.262v9.325c-5.166 0-9.348-4.171-9.348-9.325h9.348zm0-9.325c5.167 0 9.349 4.171 9.349 9.325h-9.349V4.937z" opacity=".55" transform="matrix(1 0 0 -1 17 516) translate(198 414.42)"/>
                    <path d="M256.253 14.262v8.777c-4.862 0-8.798-3.927-8.798-8.777h8.798zm0-8.777c4.863 0 8.799 3.927 8.799 8.777h-8.799V5.485z" opacity=".5" transform="matrix(1 0 0 -1 17 516) translate(198 414.42)"/>
                    <path d="M228.209 14.262v8.228c-4.559 0-8.249-3.68-8.249-8.228h8.249zm0-8.228c4.558 0 8.248 3.68 8.248 8.228h-8.248V6.034z" opacity=".45" transform="matrix(1 0 0 -1 17 516) translate(198 414.42)"/>
                    <path d="M200.164 14.262v7.68c-4.255 0-7.699-3.436-7.699-7.68h7.699zm0-7.68c4.254 0 7.698 3.436 7.698 7.68h-7.698v-7.68z" opacity=".4" transform="matrix(1 0 0 -1 17 516) translate(198 414.42)"/>
                    <path d="M172.119 14.262v7.131c-3.95 0-7.149-3.19-7.149-7.131h7.149zm0-7.131c3.95 0 7.148 3.19 7.148 7.131h-7.148V7.131z" opacity=".35" transform="matrix(1 0 0 -1 17 516) translate(198 414.42)"/>
                    <path d="M144.074 14.262v6.582c-3.647 0-6.599-2.944-6.599-6.582h6.599zm0-6.582c3.647 0 6.599 2.944 6.599 6.582h-6.6V7.68z" opacity=".3" transform="matrix(1 0 0 -1 17 516) translate(198 414.42)"/>
                    <path d="M116.029 14.262v6.034c-3.343 0-6.049-2.7-6.049-6.034h6.049zm0-6.034c3.343 0 6.049 2.7 6.049 6.034h-6.05V8.228z" opacity=".25" transform="matrix(1 0 0 -1 17 516) translate(198 414.42)"/>
                    <path d="M87.984 14.262v5.485c-3.039 0-5.499-2.454-5.499-5.485h5.499zm0-5.485c3.039 0 5.499 2.454 5.499 5.485h-5.499V8.777z" opacity=".2" transform="matrix(1 0 0 -1 17 516) translate(198 414.42)"/>
                    <path d="M59.94 14.262v4.937c-2.736 0-4.95-2.209-4.95-4.937h4.95zm0-4.937c2.734 0 4.948 2.209 4.948 4.937H59.94V9.325z" opacity=".15" transform="matrix(1 0 0 -1 17 516) translate(198 414.42)"/>
                    <path d="M31.894 14.262v4.388c-2.431 0-4.399-1.963-4.399-4.388h4.4zm0-4.388c2.431 0 4.4 1.963 4.4 4.388h-4.4V9.874z" opacity=".1" transform="matrix(1 0 0 -1 17 516) translate(198 414.42)"/>
                    <path d="M3.85 14.262v3.84c-2.128 0-3.85-1.718-3.85-3.84h3.85zm0-3.84c2.127 0 3.849 1.718 3.849 3.84h-3.85v-3.84z" opacity=".05" transform="matrix(1 0 0 -1 17 516) translate(198 414.42)"/>
                </g>
                <g>
                    <path d="M424.523 14.262V26.33c-6.686 0-12.098-5.399-12.098-12.068h12.098zm0-12.068c6.686 0 12.098 5.399 12.098 12.068h-12.098V2.194z" opacity=".8" transform="matrix(1 0 0 -1 17 516) translate(226 384.42)"/>
                    <path d="M396.478 14.262v11.52c-6.382 0-11.548-5.154-11.548-11.52h11.548zm0-11.52c6.382 0 11.548 5.154 11.548 11.52h-11.548V2.742z" opacity=".75" transform="matrix(1 0 0 -1 17 516) translate(226 384.42)"/>
                    <path d="M368.433 14.262v10.97c-6.078 0-10.998-4.907-10.998-10.97h10.998zm0-10.97c6.078 0 10.998 4.907 10.998 10.97h-10.998V3.292z" opacity=".7" transform="matrix(1 0 0 -1 17 516) translate(226 384.42)"/>
                    <path d="M340.388 14.262v10.422c-5.774 0-10.448-4.662-10.448-10.422h10.448zm0-10.422c5.774 0 10.448 4.662 10.448 10.422h-10.448V3.84z" opacity=".65" transform="matrix(1 0 0 -1 17 516) translate(226 384.42)"/>
                    <path d="M312.343 14.262v9.874c-5.47 0-9.898-4.417-9.898-9.874h9.898zm0-9.874c5.47 0 9.899 4.417 9.899 9.874h-9.899V4.388z" opacity=".6" transform="matrix(1 0 0 -1 17 516) translate(226 384.42)"/>
                    <path d="M284.298 14.262v9.325c-5.166 0-9.348-4.171-9.348-9.325h9.348zm0-9.325c5.167 0 9.349 4.171 9.349 9.325h-9.349V4.937z" opacity=".55" transform="matrix(1 0 0 -1 17 516) translate(226 384.42)"/>
                    <path d="M256.253 14.262v8.777c-4.862 0-8.798-3.927-8.798-8.777h8.798zm0-8.777c4.863 0 8.799 3.927 8.799 8.777h-8.799V5.485z" opacity=".5" transform="matrix(1 0 0 -1 17 516) translate(226 384.42)"/>
                    <path d="M228.209 14.262v8.228c-4.559 0-8.249-3.68-8.249-8.228h8.249zm0-8.228c4.558 0 8.248 3.68 8.248 8.228h-8.248V6.034z" opacity=".45" transform="matrix(1 0 0 -1 17 516) translate(226 384.42)"/>
                    <path d="M200.164 14.262v7.68c-4.255 0-7.699-3.436-7.699-7.68h7.699zm0-7.68c4.254 0 7.698 3.436 7.698 7.68h-7.698v-7.68z" opacity=".4" transform="matrix(1 0 0 -1 17 516) translate(226 384.42)"/>
                    <path d="M172.119 14.262v7.131c-3.95 0-7.149-3.19-7.149-7.131h7.149zm0-7.131c3.95 0 7.148 3.19 7.148 7.131h-7.148V7.131z" opacity=".35" transform="matrix(1 0 0 -1 17 516) translate(226 384.42)"/>
                    <path d="M144.074 14.262v6.582c-3.647 0-6.599-2.944-6.599-6.582h6.599zm0-6.582c3.647 0 6.599 2.944 6.599 6.582h-6.6V7.68z" opacity=".3" transform="matrix(1 0 0 -1 17 516) translate(226 384.42)"/>
                    <path d="M116.029 14.262v6.034c-3.343 0-6.049-2.7-6.049-6.034h6.049zm0-6.034c3.343 0 6.049 2.7 6.049 6.034h-6.05V8.228z" opacity=".25" transform="matrix(1 0 0 -1 17 516) translate(226 384.42)"/>
                    <path d="M87.984 14.262v5.485c-3.039 0-5.499-2.454-5.499-5.485h5.499zm0-5.485c3.039 0 5.499 2.454 5.499 5.485h-5.499V8.777z" opacity=".2" transform="matrix(1 0 0 -1 17 516) translate(226 384.42)"/>
                    <path d="M59.94 14.262v4.937c-2.736 0-4.95-2.209-4.95-4.937h4.95zm0-4.937c2.734 0 4.948 2.209 4.948 4.937H59.94V9.325z" opacity=".15" transform="matrix(1 0 0 -1 17 516) translate(226 384.42)"/>
                    <path d="M31.894 14.262v4.388c-2.431 0-4.399-1.963-4.399-4.388h4.4zm0-4.388c2.431 0 4.4 1.963 4.4 4.388h-4.4V9.874z" opacity=".1" transform="matrix(1 0 0 -1 17 516) translate(226 384.42)"/>
                    <path d="M3.85 14.262v3.84c-2.128 0-3.85-1.718-3.85-3.84h3.85zm0-3.84c2.127 0 3.849 1.718 3.849 3.84h-3.85v-3.84z" opacity=".05" transform="matrix(1 0 0 -1 17 516) translate(226 384.42)"/>
                </g>
                <g>
                    <path d="M396.478 14.262v11.52c-6.382 0-11.548-5.154-11.548-11.52h11.548zm0-11.52c6.382 0 11.548 5.154 11.548 11.52h-11.548V2.742z" opacity=".75" transform="matrix(1 0 0 -1 17 516) translate(255 353.42)"/>
                    <path d="M368.433 14.262v10.97c-6.078 0-10.998-4.907-10.998-10.97h10.998zm0-10.97c6.078 0 10.998 4.907 10.998 10.97h-10.998V3.292z" opacity=".7" transform="matrix(1 0 0 -1 17 516) translate(255 353.42)"/>
                    <path d="M340.388 14.262v10.422c-5.774 0-10.448-4.662-10.448-10.422h10.448zm0-10.422c5.774 0 10.448 4.662 10.448 10.422h-10.448V3.84z" opacity=".65" transform="matrix(1 0 0 -1 17 516) translate(255 353.42)"/>
                    <path d="M312.343 14.262v9.874c-5.47 0-9.898-4.417-9.898-9.874h9.898zm0-9.874c5.47 0 9.899 4.417 9.899 9.874h-9.899V4.388z" opacity=".6" transform="matrix(1 0 0 -1 17 516) translate(255 353.42)"/>
                    <path d="M284.298 14.262v9.325c-5.166 0-9.348-4.171-9.348-9.325h9.348zm0-9.325c5.167 0 9.349 4.171 9.349 9.325h-9.349V4.937z" opacity=".55" transform="matrix(1 0 0 -1 17 516) translate(255 353.42)"/>
                    <path d="M256.253 14.262v8.777c-4.862 0-8.798-3.927-8.798-8.777h8.798zm0-8.777c4.863 0 8.799 3.927 8.799 8.777h-8.799V5.485z" opacity=".5" transform="matrix(1 0 0 -1 17 516) translate(255 353.42)"/>
                    <path d="M228.209 14.262v8.228c-4.559 0-8.249-3.68-8.249-8.228h8.249zm0-8.228c4.558 0 8.248 3.68 8.248 8.228h-8.248V6.034z" opacity=".45" transform="matrix(1 0 0 -1 17 516) translate(255 353.42)"/>
                    <path d="M200.164 14.262v7.68c-4.255 0-7.699-3.436-7.699-7.68h7.699zm0-7.68c4.254 0 7.698 3.436 7.698 7.68h-7.698v-7.68z" opacity=".4" transform="matrix(1 0 0 -1 17 516) translate(255 353.42)"/>
                    <path d="M172.119 14.262v7.131c-3.95 0-7.149-3.19-7.149-7.131h7.149zm0-7.131c3.95 0 7.148 3.19 7.148 7.131h-7.148V7.131z" opacity=".35" transform="matrix(1 0 0 -1 17 516) translate(255 353.42)"/>
                    <path d="M144.074 14.262v6.582c-3.647 0-6.599-2.944-6.599-6.582h6.599zm0-6.582c3.647 0 6.599 2.944 6.599 6.582h-6.6V7.68z" opacity=".3" transform="matrix(1 0 0 -1 17 516) translate(255 353.42)"/>
                    <path d="M116.029 14.262v6.034c-3.343 0-6.049-2.7-6.049-6.034h6.049zm0-6.034c3.343 0 6.049 2.7 6.049 6.034h-6.05V8.228z" opacity=".25" transform="matrix(1 0 0 -1 17 516) translate(255 353.42)"/>
                    <path d="M87.984 14.262v5.485c-3.039 0-5.499-2.454-5.499-5.485h5.499zm0-5.485c3.039 0 5.499 2.454 5.499 5.485h-5.499V8.777z" opacity=".2" transform="matrix(1 0 0 -1 17 516) translate(255 353.42)"/>
                    <path d="M59.94 14.262v4.937c-2.736 0-4.95-2.209-4.95-4.937h4.95zm0-4.937c2.734 0 4.948 2.209 4.948 4.937H59.94V9.325z" opacity=".15" transform="matrix(1 0 0 -1 17 516) translate(255 353.42)"/>
                    <path d="M31.894 14.262v4.388c-2.431 0-4.399-1.963-4.399-4.388h4.4zm0-4.388c2.431 0 4.4 1.963 4.4 4.388h-4.4V9.874z" opacity=".1" transform="matrix(1 0 0 -1 17 516) translate(255 353.42)"/>
                    <path d="M3.85 14.262v3.84c-2.128 0-3.85-1.718-3.85-3.84h3.85zm0-3.84c2.127 0 3.849 1.718 3.849 3.84h-3.85v-3.84z" opacity=".05" transform="matrix(1 0 0 -1 17 516) translate(255 353.42)"/>
                </g>
                <g>
                    <path d="M340.388 14.262v10.422c-5.774 0-10.448-4.662-10.448-10.422h10.448zm0-10.422c5.774 0 10.448 4.662 10.448 10.422h-10.448V3.84z" opacity=".65" transform="matrix(1 0 0 -1 17 516) translate(311 325.42)"/>
                    <path d="M312.343 14.262v9.874c-5.47 0-9.898-4.417-9.898-9.874h9.898zm0-9.874c5.47 0 9.899 4.417 9.899 9.874h-9.899V4.388z" opacity=".6" transform="matrix(1 0 0 -1 17 516) translate(311 325.42)"/>
                    <path d="M284.298 14.262v9.325c-5.166 0-9.348-4.171-9.348-9.325h9.348zm0-9.325c5.167 0 9.349 4.171 9.349 9.325h-9.349V4.937z" opacity=".55" transform="matrix(1 0 0 -1 17 516) translate(311 325.42)"/>
                    <path d="M256.253 14.262v8.777c-4.862 0-8.798-3.927-8.798-8.777h8.798zm0-8.777c4.863 0 8.799 3.927 8.799 8.777h-8.799V5.485z" opacity=".5" transform="matrix(1 0 0 -1 17 516) translate(311 325.42)"/>
                    <path d="M228.209 14.262v8.228c-4.559 0-8.249-3.68-8.249-8.228h8.249zm0-8.228c4.558 0 8.248 3.68 8.248 8.228h-8.248V6.034z" opacity=".45" transform="matrix(1 0 0 -1 17 516) translate(311 325.42)"/>
                    <path d="M200.164 14.262v7.68c-4.255 0-7.699-3.436-7.699-7.68h7.699zm0-7.68c4.254 0 7.698 3.436 7.698 7.68h-7.698v-7.68z" opacity=".4" transform="matrix(1 0 0 -1 17 516) translate(311 325.42)"/>
                    <path d="M172.119 14.262v7.131c-3.95 0-7.149-3.19-7.149-7.131h7.149zm0-7.131c3.95 0 7.148 3.19 7.148 7.131h-7.148V7.131z" opacity=".35" transform="matrix(1 0 0 -1 17 516) translate(311 325.42)"/>
                    <path d="M144.074 14.262v6.582c-3.647 0-6.599-2.944-6.599-6.582h6.599zm0-6.582c3.647 0 6.599 2.944 6.599 6.582h-6.6V7.68z" opacity=".3" transform="matrix(1 0 0 -1 17 516) translate(311 325.42)"/>
                    <path d="M116.029 14.262v6.034c-3.343 0-6.049-2.7-6.049-6.034h6.049zm0-6.034c3.343 0 6.049 2.7 6.049 6.034h-6.05V8.228z" opacity=".25" transform="matrix(1 0 0 -1 17 516) translate(311 325.42)"/>
                    <path d="M87.984 14.262v5.485c-3.039 0-5.499-2.454-5.499-5.485h5.499zm0-5.485c3.039 0 5.499 2.454 5.499 5.485h-5.499V8.777z" opacity=".2" transform="matrix(1 0 0 -1 17 516) translate(311 325.42)"/>
                    <path d="M59.94 14.262v4.937c-2.736 0-4.95-2.209-4.95-4.937h4.95zm0-4.937c2.734 0 4.948 2.209 4.948 4.937H59.94V9.325z" opacity=".15" transform="matrix(1 0 0 -1 17 516) translate(311 325.42)"/>
                    <path d="M31.894 14.262v4.388c-2.431 0-4.399-1.963-4.399-4.388h4.4zm0-4.388c2.431 0 4.4 1.963 4.4 4.388h-4.4V9.874z" opacity=".1" transform="matrix(1 0 0 -1 17 516) translate(311 325.42)"/>
                    <path d="M3.85 14.262v3.84c-2.128 0-3.85-1.718-3.85-3.84h3.85zm0-3.84c2.127 0 3.849 1.718 3.849 3.84h-3.85v-3.84z" opacity=".05" transform="matrix(1 0 0 -1 17 516) translate(311 325.42)"/>
                </g>
                <g>
                    <path d="M312.343 14.262v9.874c-5.47 0-9.898-4.417-9.898-9.874h9.898zm0-9.874c5.47 0 9.899 4.417 9.899 9.874h-9.899V4.388z" opacity=".6" transform="matrix(1 0 0 -1 17 516) translate(339 296.42)"/>
                    <path d="M284.298 14.262v9.325c-5.166 0-9.348-4.171-9.348-9.325h9.348zm0-9.325c5.167 0 9.349 4.171 9.349 9.325h-9.349V4.937z" opacity=".55" transform="matrix(1 0 0 -1 17 516) translate(339 296.42)"/>
                    <path d="M256.253 14.262v8.777c-4.862 0-8.798-3.927-8.798-8.777h8.798zm0-8.777c4.863 0 8.799 3.927 8.799 8.777h-8.799V5.485z" opacity=".5" transform="matrix(1 0 0 -1 17 516) translate(339 296.42)"/>
                    <path d="M228.209 14.262v8.228c-4.559 0-8.249-3.68-8.249-8.228h8.249zm0-8.228c4.558 0 8.248 3.68 8.248 8.228h-8.248V6.034z" opacity=".45" transform="matrix(1 0 0 -1 17 516) translate(339 296.42)"/>
                    <path d="M200.164 14.262v7.68c-4.255 0-7.699-3.436-7.699-7.68h7.699zm0-7.68c4.254 0 7.698 3.436 7.698 7.68h-7.698v-7.68z" opacity=".4" transform="matrix(1 0 0 -1 17 516) translate(339 296.42)"/>
                    <path d="M172.119 14.262v7.131c-3.95 0-7.149-3.19-7.149-7.131h7.149zm0-7.131c3.95 0 7.148 3.19 7.148 7.131h-7.148V7.131z" opacity=".35" transform="matrix(1 0 0 -1 17 516) translate(339 296.42)"/>
                    <path d="M144.074 14.262v6.582c-3.647 0-6.599-2.944-6.599-6.582h6.599zm0-6.582c3.647 0 6.599 2.944 6.599 6.582h-6.6V7.68z" opacity=".3" transform="matrix(1 0 0 -1 17 516) translate(339 296.42)"/>
                    <path d="M116.029 14.262v6.034c-3.343 0-6.049-2.7-6.049-6.034h6.049zm0-6.034c3.343 0 6.049 2.7 6.049 6.034h-6.05V8.228z" opacity=".25" transform="matrix(1 0 0 -1 17 516) translate(339 296.42)"/>
                    <path d="M87.984 14.262v5.485c-3.039 0-5.499-2.454-5.499-5.485h5.499zm0-5.485c3.039 0 5.499 2.454 5.499 5.485h-5.499V8.777z" opacity=".2" transform="matrix(1 0 0 -1 17 516) translate(339 296.42)"/>
                    <path d="M59.94 14.262v4.937c-2.736 0-4.95-2.209-4.95-4.937h4.95zm0-4.937c2.734 0 4.948 2.209 4.948 4.937H59.94V9.325z" opacity=".15" transform="matrix(1 0 0 -1 17 516) translate(339 296.42)"/>
                    <path d="M31.894 14.262v4.388c-2.431 0-4.399-1.963-4.399-4.388h4.4zm0-4.388c2.431 0 4.4 1.963 4.4 4.388h-4.4V9.874z" opacity=".1" transform="matrix(1 0 0 -1 17 516) translate(339 296.42)"/>
                    <path d="M3.85 14.262v3.84c-2.128 0-3.85-1.718-3.85-3.84h3.85zm0-3.84c2.127 0 3.849 1.718 3.849 3.84h-3.85v-3.84z" opacity=".05" transform="matrix(1 0 0 -1 17 516) translate(339 296.42)"/>
                </g>
                <g>
                    <path d="M284.298 14.262v9.325c-5.166 0-9.348-4.171-9.348-9.325h9.348zm0-9.325c5.167 0 9.349 4.171 9.349 9.325h-9.349V4.937z" opacity=".55" transform="matrix(1 0 0 -1 17 516) translate(367 266.42)"/>
                    <path d="M256.253 14.262v8.777c-4.862 0-8.798-3.927-8.798-8.777h8.798zm0-8.777c4.863 0 8.799 3.927 8.799 8.777h-8.799V5.485z" opacity=".5" transform="matrix(1 0 0 -1 17 516) translate(367 266.42)"/>
                    <path d="M228.209 14.262v8.228c-4.559 0-8.249-3.68-8.249-8.228h8.249zm0-8.228c4.558 0 8.248 3.68 8.248 8.228h-8.248V6.034z" opacity=".45" transform="matrix(1 0 0 -1 17 516) translate(367 266.42)"/>
                    <path d="M200.164 14.262v7.68c-4.255 0-7.699-3.436-7.699-7.68h7.699zm0-7.68c4.254 0 7.698 3.436 7.698 7.68h-7.698v-7.68z" opacity=".4" transform="matrix(1 0 0 -1 17 516) translate(367 266.42)"/>
                    <path d="M172.119 14.262v7.131c-3.95 0-7.149-3.19-7.149-7.131h7.149zm0-7.131c3.95 0 7.148 3.19 7.148 7.131h-7.148V7.131z" opacity=".35" transform="matrix(1 0 0 -1 17 516) translate(367 266.42)"/>
                    <path d="M144.074 14.262v6.582c-3.647 0-6.599-2.944-6.599-6.582h6.599zm0-6.582c3.647 0 6.599 2.944 6.599 6.582h-6.6V7.68z" opacity=".3" transform="matrix(1 0 0 -1 17 516) translate(367 266.42)"/>
                    <path d="M116.029 14.262v6.034c-3.343 0-6.049-2.7-6.049-6.034h6.049zm0-6.034c3.343 0 6.049 2.7 6.049 6.034h-6.05V8.228z" opacity=".25" transform="matrix(1 0 0 -1 17 516) translate(367 266.42)"/>
                    <path d="M87.984 14.262v5.485c-3.039 0-5.499-2.454-5.499-5.485h5.499zm0-5.485c3.039 0 5.499 2.454 5.499 5.485h-5.499V8.777z" opacity=".2" transform="matrix(1 0 0 -1 17 516) translate(367 266.42)"/>
                    <path d="M59.94 14.262v4.937c-2.736 0-4.95-2.209-4.95-4.937h4.95zm0-4.937c2.734 0 4.948 2.209 4.948 4.937H59.94V9.325z" opacity=".15" transform="matrix(1 0 0 -1 17 516) translate(367 266.42)"/>
                    <path d="M31.894 14.262v4.388c-2.431 0-4.399-1.963-4.399-4.388h4.4zm0-4.388c2.431 0 4.4 1.963 4.4 4.388h-4.4V9.874z" opacity=".1" transform="matrix(1 0 0 -1 17 516) translate(367 266.42)"/>
                    <path d="M3.85 14.262v3.84c-2.128 0-3.85-1.718-3.85-3.84h3.85zm0-3.84c2.127 0 3.849 1.718 3.849 3.84h-3.85v-3.84z" opacity=".05" transform="matrix(1 0 0 -1 17 516) translate(367 266.42)"/>
                </g>
                <g>
                    <path d="M256.253 14.262v8.777c-4.862 0-8.798-3.927-8.798-8.777h8.798zm0-8.777c4.863 0 8.799 3.927 8.799 8.777h-8.799V5.485z" opacity=".5" transform="matrix(1 0 0 -1 17 516) translate(395 237.42)"/>
                    <path d="M228.209 14.262v8.228c-4.559 0-8.249-3.68-8.249-8.228h8.249zm0-8.228c4.558 0 8.248 3.68 8.248 8.228h-8.248V6.034z" opacity=".45" transform="matrix(1 0 0 -1 17 516) translate(395 237.42)"/>
                    <path d="M200.164 14.262v7.68c-4.255 0-7.699-3.436-7.699-7.68h7.699zm0-7.68c4.254 0 7.698 3.436 7.698 7.68h-7.698v-7.68z" opacity=".4" transform="matrix(1 0 0 -1 17 516) translate(395 237.42)"/>
                    <path d="M172.119 14.262v7.131c-3.95 0-7.149-3.19-7.149-7.131h7.149zm0-7.131c3.95 0 7.148 3.19 7.148 7.131h-7.148V7.131z" opacity=".35" transform="matrix(1 0 0 -1 17 516) translate(395 237.42)"/>
                    <path d="M144.074 14.262v6.582c-3.647 0-6.599-2.944-6.599-6.582h6.599zm0-6.582c3.647 0 6.599 2.944 6.599 6.582h-6.6V7.68z" opacity=".3" transform="matrix(1 0 0 -1 17 516) translate(395 237.42)"/>
                    <path d="M116.029 14.262v6.034c-3.343 0-6.049-2.7-6.049-6.034h6.049zm0-6.034c3.343 0 6.049 2.7 6.049 6.034h-6.05V8.228z" opacity=".25" transform="matrix(1 0 0 -1 17 516) translate(395 237.42)"/>
                    <path d="M87.984 14.262v5.485c-3.039 0-5.499-2.454-5.499-5.485h5.499zm0-5.485c3.039 0 5.499 2.454 5.499 5.485h-5.499V8.777z" opacity=".2" transform="matrix(1 0 0 -1 17 516) translate(395 237.42)"/>
                    <path d="M59.94 14.262v4.937c-2.736 0-4.95-2.209-4.95-4.937h4.95zm0-4.937c2.734 0 4.948 2.209 4.948 4.937H59.94V9.325z" opacity=".15" transform="matrix(1 0 0 -1 17 516) translate(395 237.42)"/>
                    <path d="M31.894 14.262v4.388c-2.431 0-4.399-1.963-4.399-4.388h4.4zm0-4.388c2.431 0 4.4 1.963 4.4 4.388h-4.4V9.874z" opacity=".1" transform="matrix(1 0 0 -1 17 516) translate(395 237.42)"/>
                    <path d="M3.85 14.262v3.84c-2.128 0-3.85-1.718-3.85-3.84h3.85zm0-3.84c2.127 0 3.849 1.718 3.849 3.84h-3.85v-3.84z" opacity=".05" transform="matrix(1 0 0 -1 17 516) translate(395 237.42)"/>
                </g>
                <g>
                    <path d="M228.209 14.262v8.228c-4.559 0-8.249-3.68-8.249-8.228h8.249zm0-8.228c4.558 0 8.248 3.68 8.248 8.228h-8.248V6.034z" opacity=".45" transform="matrix(1 0 0 -1 17 516) translate(424 208.42)"/>
                    <path d="M200.164 14.262v7.68c-4.255 0-7.699-3.436-7.699-7.68h7.699zm0-7.68c4.254 0 7.698 3.436 7.698 7.68h-7.698v-7.68z" opacity=".4" transform="matrix(1 0 0 -1 17 516) translate(424 208.42)"/>
                    <path d="M172.119 14.262v7.131c-3.95 0-7.149-3.19-7.149-7.131h7.149zm0-7.131c3.95 0 7.148 3.19 7.148 7.131h-7.148V7.131z" opacity=".35" transform="matrix(1 0 0 -1 17 516) translate(424 208.42)"/>
                    <path d="M144.074 14.262v6.582c-3.647 0-6.599-2.944-6.599-6.582h6.599zm0-6.582c3.647 0 6.599 2.944 6.599 6.582h-6.6V7.68z" opacity=".3" transform="matrix(1 0 0 -1 17 516) translate(424 208.42)"/>
                    <path d="M116.029 14.262v6.034c-3.343 0-6.049-2.7-6.049-6.034h6.049zm0-6.034c3.343 0 6.049 2.7 6.049 6.034h-6.05V8.228z" opacity=".25" transform="matrix(1 0 0 -1 17 516) translate(424 208.42)"/>
                    <path d="M87.984 14.262v5.485c-3.039 0-5.499-2.454-5.499-5.485h5.499zm0-5.485c3.039 0 5.499 2.454 5.499 5.485h-5.499V8.777z" opacity=".2" transform="matrix(1 0 0 -1 17 516) translate(424 208.42)"/>
                    <path d="M59.94 14.262v4.937c-2.736 0-4.95-2.209-4.95-4.937h4.95zm0-4.937c2.734 0 4.948 2.209 4.948 4.937H59.94V9.325z" opacity=".15" transform="matrix(1 0 0 -1 17 516) translate(424 208.42)"/>
                    <path d="M31.894 14.262v4.388c-2.431 0-4.399-1.963-4.399-4.388h4.4zm0-4.388c2.431 0 4.4 1.963 4.4 4.388h-4.4V9.874z" opacity=".1" transform="matrix(1 0 0 -1 17 516) translate(424 208.42)"/>
                    <path d="M3.85 14.262v3.84c-2.128 0-3.85-1.718-3.85-3.84h3.85zm0-3.84c2.127 0 3.849 1.718 3.849 3.84h-3.85v-3.84z" opacity=".05" transform="matrix(1 0 0 -1 17 516) translate(424 208.42)"/>
                </g>
                <g>
                    <path d="M200.164 14.262v7.68c-4.255 0-7.699-3.436-7.699-7.68h7.699zm0-7.68c4.254 0 7.698 3.436 7.698 7.68h-7.698v-7.68z" opacity=".4" transform="matrix(1 0 0 -1 17 516) translate(452 179.42)"/>
                    <path d="M172.119 14.262v7.131c-3.95 0-7.149-3.19-7.149-7.131h7.149zm0-7.131c3.95 0 7.148 3.19 7.148 7.131h-7.148V7.131z" opacity=".35" transform="matrix(1 0 0 -1 17 516) translate(452 179.42)"/>
                    <path d="M144.074 14.262v6.582c-3.647 0-6.599-2.944-6.599-6.582h6.599zm0-6.582c3.647 0 6.599 2.944 6.599 6.582h-6.6V7.68z" opacity=".3" transform="matrix(1 0 0 -1 17 516) translate(452 179.42)"/>
                    <path d="M116.029 14.262v6.034c-3.343 0-6.049-2.7-6.049-6.034h6.049zm0-6.034c3.343 0 6.049 2.7 6.049 6.034h-6.05V8.228z" opacity=".25" transform="matrix(1 0 0 -1 17 516) translate(452 179.42)"/>
                    <path d="M87.984 14.262v5.485c-3.039 0-5.499-2.454-5.499-5.485h5.499zm0-5.485c3.039 0 5.499 2.454 5.499 5.485h-5.499V8.777z" opacity=".2" transform="matrix(1 0 0 -1 17 516) translate(452 179.42)"/>
                    <path d="M59.94 14.262v4.937c-2.736 0-4.95-2.209-4.95-4.937h4.95zm0-4.937c2.734 0 4.948 2.209 4.948 4.937H59.94V9.325z" opacity=".15" transform="matrix(1 0 0 -1 17 516) translate(452 179.42)"/>
                    <path d="M31.894 14.262v4.388c-2.431 0-4.399-1.963-4.399-4.388h4.4zm0-4.388c2.431 0 4.4 1.963 4.4 4.388h-4.4V9.874z" opacity=".1" transform="matrix(1 0 0 -1 17 516) translate(452 179.42)"/>
                    <path d="M3.85 14.262v3.84c-2.128 0-3.85-1.718-3.85-3.84h3.85zm0-3.84c2.127 0 3.849 1.718 3.849 3.84h-3.85v-3.84z" opacity=".05" transform="matrix(1 0 0 -1 17 516) translate(452 179.42)"/>
                </g>
                <g>
                    <path d="M172.119 14.262v7.131c-3.95 0-7.149-3.19-7.149-7.131h7.149zm0-7.131c3.95 0 7.148 3.19 7.148 7.131h-7.148V7.131z" opacity=".35" transform="matrix(1 0 0 -1 17 516) translate(479 149.42)"/>
                    <path d="M144.074 14.262v6.582c-3.647 0-6.599-2.944-6.599-6.582h6.599zm0-6.582c3.647 0 6.599 2.944 6.599 6.582h-6.6V7.68z" opacity=".3" transform="matrix(1 0 0 -1 17 516) translate(479 149.42)"/>
                    <path d="M116.029 14.262v6.034c-3.343 0-6.049-2.7-6.049-6.034h6.049zm0-6.034c3.343 0 6.049 2.7 6.049 6.034h-6.05V8.228z" opacity=".25" transform="matrix(1 0 0 -1 17 516) translate(479 149.42)"/>
                    <path d="M87.984 14.262v5.485c-3.039 0-5.499-2.454-5.499-5.485h5.499zm0-5.485c3.039 0 5.499 2.454 5.499 5.485h-5.499V8.777z" opacity=".2" transform="matrix(1 0 0 -1 17 516) translate(479 149.42)"/>
                    <path d="M59.94 14.262v4.937c-2.736 0-4.95-2.209-4.95-4.937h4.95zm0-4.937c2.734 0 4.948 2.209 4.948 4.937H59.94V9.325z" opacity=".15" transform="matrix(1 0 0 -1 17 516) translate(479 149.42)"/>
                    <path d="M31.894 14.262v4.388c-2.431 0-4.399-1.963-4.399-4.388h4.4zm0-4.388c2.431 0 4.4 1.963 4.4 4.388h-4.4V9.874z" opacity=".1" transform="matrix(1 0 0 -1 17 516) translate(479 149.42)"/>
                    <path d="M3.85 14.262v3.84c-2.128 0-3.85-1.718-3.85-3.84h3.85zm0-3.84c2.127 0 3.849 1.718 3.849 3.84h-3.85v-3.84z" opacity=".05" transform="matrix(1 0 0 -1 17 516) translate(479 149.42)"/>
                </g>
                <g>
                    <path d="M144.074 14.262v6.582c-3.647 0-6.599-2.944-6.599-6.582h6.599zm0-6.582c3.647 0 6.599 2.944 6.599 6.582h-6.6V7.68z" opacity=".3" transform="matrix(1 0 0 -1 17 516) translate(508 121.42)"/>
                    <path d="M116.029 14.262v6.034c-3.343 0-6.049-2.7-6.049-6.034h6.049zm0-6.034c3.343 0 6.049 2.7 6.049 6.034h-6.05V8.228z" opacity=".25" transform="matrix(1 0 0 -1 17 516) translate(508 121.42)"/>
                    <path d="M87.984 14.262v5.485c-3.039 0-5.499-2.454-5.499-5.485h5.499zm0-5.485c3.039 0 5.499 2.454 5.499 5.485h-5.499V8.777z" opacity=".2" transform="matrix(1 0 0 -1 17 516) translate(508 121.42)"/>
                    <path d="M59.94 14.262v4.937c-2.736 0-4.95-2.209-4.95-4.937h4.95zm0-4.937c2.734 0 4.948 2.209 4.948 4.937H59.94V9.325z" opacity=".15" transform="matrix(1 0 0 -1 17 516) translate(508 121.42)"/>
                    <path d="M31.894 14.262v4.388c-2.431 0-4.399-1.963-4.399-4.388h4.4zm0-4.388c2.431 0 4.4 1.963 4.4 4.388h-4.4V9.874z" opacity=".1" transform="matrix(1 0 0 -1 17 516) translate(508 121.42)"/>
                    <path d="M3.85 14.262v3.84c-2.128 0-3.85-1.718-3.85-3.84h3.85zm0-3.84c2.127 0 3.849 1.718 3.849 3.84h-3.85v-3.84z" opacity=".05" transform="matrix(1 0 0 -1 17 516) translate(508 121.42)"/>
                </g>
                <g>
                    <path d="M116.029 14.262v6.034c-3.343 0-6.049-2.7-6.049-6.034h6.049zm0-6.034c3.343 0 6.049 2.7 6.049 6.034h-6.05V8.228z" opacity=".25" transform="matrix(1 0 0 -1 17 516) translate(535 90.42)"/>
                    <path d="M87.984 14.262v5.485c-3.039 0-5.499-2.454-5.499-5.485h5.499zm0-5.485c3.039 0 5.499 2.454 5.499 5.485h-5.499V8.777z" opacity=".2" transform="matrix(1 0 0 -1 17 516) translate(535 90.42)"/>
                    <path d="M59.94 14.262v4.937c-2.736 0-4.95-2.209-4.95-4.937h4.95zm0-4.937c2.734 0 4.948 2.209 4.948 4.937H59.94V9.325z" opacity=".15" transform="matrix(1 0 0 -1 17 516) translate(535 90.42)"/>
                    <path d="M31.894 14.262v4.388c-2.431 0-4.399-1.963-4.399-4.388h4.4zm0-4.388c2.431 0 4.4 1.963 4.4 4.388h-4.4V9.874z" opacity=".1" transform="matrix(1 0 0 -1 17 516) translate(535 90.42)"/>
                    <path d="M3.85 14.262v3.84c-2.128 0-3.85-1.718-3.85-3.84h3.85zm0-3.84c2.127 0 3.849 1.718 3.849 3.84h-3.85v-3.84z" opacity=".05" transform="matrix(1 0 0 -1 17 516) translate(535 90.42)"/>
                </g>
                <g>
                    <path d="M87.984 14.262v5.485c-3.039 0-5.499-2.454-5.499-5.485h5.499zm0-5.485c3.039 0 5.499 2.454 5.499 5.485h-5.499V8.777z" opacity=".2" transform="matrix(1 0 0 -1 17 516) translate(562 60.42)"/>
                    <path d="M59.94 14.262v4.937c-2.736 0-4.95-2.209-4.95-4.937h4.95zm0-4.937c2.734 0 4.948 2.209 4.948 4.937H59.94V9.325z" opacity=".15" transform="matrix(1 0 0 -1 17 516) translate(562 60.42)"/>
                    <path d="M31.894 14.262v4.388c-2.431 0-4.399-1.963-4.399-4.388h4.4zm0-4.388c2.431 0 4.4 1.963 4.4 4.388h-4.4V9.874z" opacity=".1" transform="matrix(1 0 0 -1 17 516) translate(562 60.42)"/>
                    <path d="M3.85 14.262v3.84c-2.128 0-3.85-1.718-3.85-3.84h3.85zm0-3.84c2.127 0 3.849 1.718 3.849 3.84h-3.85v-3.84z" opacity=".05" transform="matrix(1 0 0 -1 17 516) translate(562 60.42)"/>
                </g>
                <g>
                    <path d="M59.94 14.262v4.937c-2.736 0-4.95-2.209-4.95-4.937h4.95zm0-4.937c2.734 0 4.948 2.209 4.948 4.937H59.94V9.325z" opacity=".15" transform="matrix(1 0 0 -1 17 516) translate(590 31.42)"/>
                    <path d="M31.894 14.262v4.388c-2.431 0-4.399-1.963-4.399-4.388h4.4zm0-4.388c2.431 0 4.4 1.963 4.4 4.388h-4.4V9.874z" opacity=".1" transform="matrix(1 0 0 -1 17 516) translate(590 31.42)"/>
                    <path d="M3.85 14.262v3.84c-2.128 0-3.85-1.718-3.85-3.84h3.85zm0-3.84c2.127 0 3.849 1.718 3.849 3.84h-3.85v-3.84z" opacity=".05" transform="matrix(1 0 0 -1 17 516) translate(590 31.42)"/>
                </g>
                <g>
                    <path d="M31.894 14.262v4.388c-2.431 0-4.399-1.963-4.399-4.388h4.4zm0-4.388c2.431 0 4.4 1.963 4.4 4.388h-4.4V9.874z" opacity=".1" transform="matrix(1 0 0 -1 17 516) translate(618 1.42)"/>
                    <path d="M3.85 14.262v3.84c-2.128 0-3.85-1.718-3.85-3.84h3.85zm0-3.84c2.127 0 3.849 1.718 3.849 3.84h-3.85v-3.84z" opacity=".05" transform="matrix(1 0 0 -1 17 516) translate(618 1.42)"/>
                </g>
            </g>
        </g>
    </g>
</svg>
