<svg xmlns="http://www.w3.org/2000/svg" xmlns:xlink="http://www.w3.org/1999/xlink" width="1960" height="150" viewBox="0 0 1960 150">
    <defs>
        <radialGradient id="dbsx4yvpyb" cx="16.308%" cy="113.906%" r="1885.253%" fx="16.308%" fy="113.906%" gradientTransform="matrix(.07634 -.0706 .0054 .9975 .144 .014)">
            <stop offset="0%" stop-color="#AEB6C3"/>
            <stop offset="25.171%" stop-color="#D8DCE0"/>
            <stop offset="100%" stop-color="#F5F6F8"/>
        </radialGradient>
        <radialGradient id="bn5dl0068c" cx="56.361%" cy="60.512%" r="36.877%" fx="56.361%" fy="60.512%">
            <stop offset="0%" stop-color="#8DCEFF"/>
            <stop offset="100%" stop-color="#C2E5FF" stop-opacity="0"/>
        </radialGradient>
        <radialGradient id="3arygni2ae" cx="52.13%" cy="48.514%" r="44.163%" fx="52.13%" fy="48.514%">
            <stop offset="0%" stop-color="#D8DCE0"/>
            <stop offset="100%" stop-color="#D3D6DB" stop-opacity="0"/>
        </radialGradient>
        <radialGradient id="h5sjgwuwyf" cx="52.13%" cy="48.514%" r="44.163%" fx="52.13%" fy="48.514%">
            <stop offset="0%" stop-color="#F5F6F8"/>
            <stop offset="100%" stop-color="#D3D6DB" stop-opacity="0"/>
        </radialGradient>
        <path id="ju1ov12dja" d="M0 0H1960V150H0z"/>
    </defs>
    <g fill="none" fill-rule="evenodd">
        <mask id="g1os4e30hd" fill="#fff">
            <use xlink:href="#ju1ov12dja"/>
        </mask>
        <use fill="url(#dbsx4yvpyb)" xlink:href="#ju1ov12dja"/>
        <circle fill="url(#bn5dl0068c)" style="mix-blend-mode:multiply" cx="237" cy="55" r="411" mask="url(#g1os4e30hd)" opacity=".144"/>
        <circle fill="url(#bn5dl0068c)" style="mix-blend-mode:multiply" cx="738" cy="213" r="411" mask="url(#g1os4e30hd)" opacity=".245"/>
        <circle cx="1252" cy="66" r="678" fill="url(#3arygni2ae)" mask="url(#g1os4e30hd)"/>
        <circle cx="189" cy="-3" r="576" fill="url(#h5sjgwuwyf)" mask="url(#g1os4e30hd)" opacity=".804"/>
        <g mask="url(#g1os4e30hd)" opacity=".904">
            <g fill="#FFF" fill-rule="nonzero">
                <g>
                    <path d="M490.922 12.836v12.836c-7.227 0-13.078-5.743-13.078-12.836h13.078zm0-12.836C498.15 0 504 5.742 504 12.836h-13.078V0z" transform="matrix(0 1 1 0 799.5 -341.5) translate(.746 563.965)"/>
                    <path d="M465.27 12.836v12.342c-6.95 0-12.575-5.521-12.575-12.342h12.574zm0-12.342c6.949 0 12.574 5.521 12.574 12.342H465.27V.494z" opacity=".95" transform="matrix(0 1 1 0 799.5 -341.5) translate(.746 563.965)"/>
                    <path d="M439.617 12.836v11.848c-6.672 0-12.072-5.3-12.072-11.848h12.072zm0-11.849c6.671 0 12.072 5.3 12.072 11.849h-12.072V.987z" opacity=".9" transform="matrix(0 1 1 0 799.5 -341.5) translate(.746 563.965)"/>
                    <path d="M413.964 12.836V24.19c-6.393 0-11.569-5.08-11.569-11.355h11.57zm0-11.355c6.394 0 11.569 5.08 11.569 11.355h-11.569V1.48z" opacity=".85" transform="matrix(0 1 1 0 799.5 -341.5) translate(.746 563.965)"/>
                    <path d="M388.311 12.836v10.86c-6.115 0-11.065-4.858-11.065-10.86h11.065zm0-10.861c6.116 0 11.066 4.858 11.066 10.86h-11.066V1.976z" opacity=".8" transform="matrix(0 1 1 0 799.5 -341.5) translate(.746 563.965)"/>
                    <path d="M362.659 12.836v10.367c-5.838 0-10.563-4.638-10.563-10.367h10.563zm0-10.368c5.837 0 10.563 4.638 10.563 10.368h-10.563V2.468z" opacity=".75" transform="matrix(0 1 1 0 799.5 -341.5) translate(.746 563.965)"/>
                    <path d="M337.006 12.836v9.874c-5.56 0-10.06-4.418-10.06-9.874h10.06zm0-9.874c5.56 0 10.06 4.417 10.06 9.874h-10.06V2.962z" opacity=".7" transform="matrix(0 1 1 0 799.5 -341.5) translate(.746 563.965)"/>
                </g>
                <g>
                    <path d="M465.27 12.836v12.342c-6.95 0-12.575-5.521-12.575-12.342h12.574zm0-12.342c6.949 0 12.574 5.521 12.574 12.342H465.27V.494z" opacity=".95" transform="matrix(0 1 1 0 799.5 -341.5) translate(27.746 589.965)"/>
                    <path d="M439.617 12.836v11.848c-6.672 0-12.072-5.3-12.072-11.848h12.072zm0-11.849c6.671 0 12.072 5.3 12.072 11.849h-12.072V.987z" opacity=".9" transform="matrix(0 1 1 0 799.5 -341.5) translate(27.746 589.965)"/>
                    <path d="M413.964 12.836V24.19c-6.393 0-11.569-5.08-11.569-11.355h11.57zm0-11.355c6.394 0 11.569 5.08 11.569 11.355h-11.569V1.48z" opacity=".85" transform="matrix(0 1 1 0 799.5 -341.5) translate(27.746 589.965)"/>
                    <path d="M388.311 12.836v10.86c-6.115 0-11.065-4.858-11.065-10.86h11.065zm0-10.861c6.116 0 11.066 4.858 11.066 10.86h-11.066V1.976z" opacity=".8" transform="matrix(0 1 1 0 799.5 -341.5) translate(27.746 589.965)"/>
                    <path d="M362.659 12.836v10.367c-5.838 0-10.563-4.638-10.563-10.367h10.563zm0-10.368c5.837 0 10.563 4.638 10.563 10.368h-10.563V2.468z" opacity=".75" transform="matrix(0 1 1 0 799.5 -341.5) translate(27.746 589.965)"/>
                    <path d="M337.006 12.836v9.874c-5.56 0-10.06-4.418-10.06-9.874h10.06zm0-9.874c5.56 0 10.06 4.417 10.06 9.874h-10.06V2.962z" opacity=".7" transform="matrix(0 1 1 0 799.5 -341.5) translate(27.746 589.965)"/>
                    <path d="M311.353 12.836v9.38c-5.281 0-9.557-4.196-9.557-9.38h9.557zm0-9.38c5.282 0 9.557 4.196 9.557 9.38h-9.557v-9.38z" opacity=".65" transform="matrix(0 1 1 0 799.5 -341.5) translate(27.746 589.965)"/>
                </g>
                <g>
                    <path d="M439.617 12.836v11.848c-6.672 0-12.072-5.3-12.072-11.848h12.072zm0-11.849c6.671 0 12.072 5.3 12.072 11.849h-12.072V.987z" opacity=".9" transform="matrix(0 1 1 0 799.5 -341.5) translate(52.746 617.965)"/>
                    <path d="M413.964 12.836V24.19c-6.393 0-11.569-5.08-11.569-11.355h11.57zm0-11.355c6.394 0 11.569 5.08 11.569 11.355h-11.569V1.48z" opacity=".85" transform="matrix(0 1 1 0 799.5 -341.5) translate(52.746 617.965)"/>
                    <path d="M388.311 12.836v10.86c-6.115 0-11.065-4.858-11.065-10.86h11.065zm0-10.861c6.116 0 11.066 4.858 11.066 10.86h-11.066V1.976z" opacity=".8" transform="matrix(0 1 1 0 799.5 -341.5) translate(52.746 617.965)"/>
                    <path d="M362.659 12.836v10.367c-5.838 0-10.563-4.638-10.563-10.367h10.563zm0-10.368c5.837 0 10.563 4.638 10.563 10.368h-10.563V2.468z" opacity=".75" transform="matrix(0 1 1 0 799.5 -341.5) translate(52.746 617.965)"/>
                    <path d="M337.006 12.836v9.874c-5.56 0-10.06-4.418-10.06-9.874h10.06zm0-9.874c5.56 0 10.06 4.417 10.06 9.874h-10.06V2.962z" opacity=".7" transform="matrix(0 1 1 0 799.5 -341.5) translate(52.746 617.965)"/>
                    <path d="M311.353 12.836v9.38c-5.281 0-9.557-4.196-9.557-9.38h9.557zm0-9.38c5.282 0 9.557 4.196 9.557 9.38h-9.557v-9.38z" opacity=".65" transform="matrix(0 1 1 0 799.5 -341.5) translate(52.746 617.965)"/>
                    <path d="M285.7 12.836v8.886c-5.003 0-9.053-3.975-9.053-8.886h9.054zm0-8.887c5.004 0 9.054 3.976 9.054 8.887h-9.053V3.949z" opacity=".6" transform="matrix(0 1 1 0 799.5 -341.5) translate(52.746 617.965)"/>
                </g>
                <g>
                    <path d="M413.964 12.836V24.19c-6.393 0-11.569-5.08-11.569-11.355h11.57zm0-11.355c6.394 0 11.569 5.08 11.569 11.355h-11.569V1.48z" opacity=".85" transform="matrix(0 1 1 0 799.5 -341.5) translate(79.746 643.965)"/>
                    <path d="M388.311 12.836v10.86c-6.115 0-11.065-4.858-11.065-10.86h11.065zm0-10.861c6.116 0 11.066 4.858 11.066 10.86h-11.066V1.976z" opacity=".8" transform="matrix(0 1 1 0 799.5 -341.5) translate(79.746 643.965)"/>
                    <path d="M362.659 12.836v10.367c-5.838 0-10.563-4.638-10.563-10.367h10.563zm0-10.368c5.837 0 10.563 4.638 10.563 10.368h-10.563V2.468z" opacity=".75" transform="matrix(0 1 1 0 799.5 -341.5) translate(79.746 643.965)"/>
                    <path d="M337.006 12.836v9.874c-5.56 0-10.06-4.418-10.06-9.874h10.06zm0-9.874c5.56 0 10.06 4.417 10.06 9.874h-10.06V2.962z" opacity=".7" transform="matrix(0 1 1 0 799.5 -341.5) translate(79.746 643.965)"/>
                    <path d="M311.353 12.836v9.38c-5.281 0-9.557-4.196-9.557-9.38h9.557zm0-9.38c5.282 0 9.557 4.196 9.557 9.38h-9.557v-9.38z" opacity=".65" transform="matrix(0 1 1 0 799.5 -341.5) translate(79.746 643.965)"/>
                    <path d="M285.7 12.836v8.886c-5.003 0-9.053-3.975-9.053-8.886h9.054zm0-8.887c5.004 0 9.054 3.976 9.054 8.887h-9.053V3.949z" opacity=".6" transform="matrix(0 1 1 0 799.5 -341.5) translate(79.746 643.965)"/>
                    <path d="M260.048 12.836v8.392c-4.726 0-8.551-3.754-8.551-8.392h8.55zm0-8.393c4.726 0 8.55 3.755 8.55 8.393h-8.55V4.443z" opacity=".55" transform="matrix(0 1 1 0 799.5 -341.5) translate(79.746 643.965)"/>
                </g>
                <g>
                    <path d="M388.311 12.836v10.86c-6.115 0-11.065-4.858-11.065-10.86h11.065zm0-10.861c6.116 0 11.066 4.858 11.066 10.86h-11.066V1.976z" opacity=".8" transform="matrix(0 1 1 0 799.5 -341.5) translate(104.746 670.965)"/>
                    <path d="M362.659 12.836v10.367c-5.838 0-10.563-4.638-10.563-10.367h10.563zm0-10.368c5.837 0 10.563 4.638 10.563 10.368h-10.563V2.468z" opacity=".75" transform="matrix(0 1 1 0 799.5 -341.5) translate(104.746 670.965)"/>
                    <path d="M337.006 12.836v9.874c-5.56 0-10.06-4.418-10.06-9.874h10.06zm0-9.874c5.56 0 10.06 4.417 10.06 9.874h-10.06V2.962z" opacity=".7" transform="matrix(0 1 1 0 799.5 -341.5) translate(104.746 670.965)"/>
                    <path d="M311.353 12.836v9.38c-5.281 0-9.557-4.196-9.557-9.38h9.557zm0-9.38c5.282 0 9.557 4.196 9.557 9.38h-9.557v-9.38z" opacity=".65" transform="matrix(0 1 1 0 799.5 -341.5) translate(104.746 670.965)"/>
                    <path d="M285.7 12.836v8.886c-5.003 0-9.053-3.975-9.053-8.886h9.054zm0-8.887c5.004 0 9.054 3.976 9.054 8.887h-9.053V3.949z" opacity=".6" transform="matrix(0 1 1 0 799.5 -341.5) translate(104.746 670.965)"/>
                    <path d="M260.048 12.836v8.392c-4.726 0-8.551-3.754-8.551-8.392h8.55zm0-8.393c4.726 0 8.55 3.755 8.55 8.393h-8.55V4.443z" opacity=".55" transform="matrix(0 1 1 0 799.5 -341.5) translate(104.746 670.965)"/>
                    <path d="M234.395 12.836v7.899c-4.447 0-8.048-3.534-8.048-7.9h8.048zm0-7.9c4.448 0 8.048 3.534 8.048 7.9h-8.048v-7.9z" opacity=".5" transform="matrix(0 1 1 0 799.5 -341.5) translate(104.746 670.965)"/>
                </g>
                <g>
                    <path d="M362.659 12.836v10.367c-5.838 0-10.563-4.638-10.563-10.367h10.563zm0-10.368c5.837 0 10.563 4.638 10.563 10.368h-10.563V2.468z" opacity=".75" transform="matrix(0 1 1 0 799.5 -341.5) translate(130.746 696.965)"/>
                    <path d="M337.006 12.836v9.874c-5.56 0-10.06-4.418-10.06-9.874h10.06zm0-9.874c5.56 0 10.06 4.417 10.06 9.874h-10.06V2.962z" opacity=".7" transform="matrix(0 1 1 0 799.5 -341.5) translate(130.746 696.965)"/>
                    <path d="M311.353 12.836v9.38c-5.281 0-9.557-4.196-9.557-9.38h9.557zm0-9.38c5.282 0 9.557 4.196 9.557 9.38h-9.557v-9.38z" opacity=".65" transform="matrix(0 1 1 0 799.5 -341.5) translate(130.746 696.965)"/>
                    <path d="M285.7 12.836v8.886c-5.003 0-9.053-3.975-9.053-8.886h9.054zm0-8.887c5.004 0 9.054 3.976 9.054 8.887h-9.053V3.949z" opacity=".6" transform="matrix(0 1 1 0 799.5 -341.5) translate(130.746 696.965)"/>
                    <path d="M260.048 12.836v8.392c-4.726 0-8.551-3.754-8.551-8.392h8.55zm0-8.393c4.726 0 8.55 3.755 8.55 8.393h-8.55V4.443z" opacity=".55" transform="matrix(0 1 1 0 799.5 -341.5) translate(130.746 696.965)"/>
                    <path d="M234.395 12.836v7.899c-4.447 0-8.048-3.534-8.048-7.9h8.048zm0-7.9c4.448 0 8.048 3.534 8.048 7.9h-8.048v-7.9z" opacity=".5" transform="matrix(0 1 1 0 799.5 -341.5) translate(130.746 696.965)"/>
                    <path d="M208.743 12.836v7.405c-4.17 0-7.545-3.313-7.545-7.405h7.545zm0-7.405c4.17 0 7.544 3.312 7.544 7.405h-7.544V5.43z" opacity=".45" transform="matrix(0 1 1 0 799.5 -341.5) translate(130.746 696.965)"/>
                </g>
                <g>
                    <path d="M337.006 12.836v9.874c-5.56 0-10.06-4.418-10.06-9.874h10.06zm0-9.874c5.56 0 10.06 4.417 10.06 9.874h-10.06V2.962z" opacity=".7" transform="matrix(0 1 1 0 799.5 -341.5) translate(156.746 724.965)"/>
                    <path d="M311.353 12.836v9.38c-5.281 0-9.557-4.196-9.557-9.38h9.557zm0-9.38c5.282 0 9.557 4.196 9.557 9.38h-9.557v-9.38z" opacity=".65" transform="matrix(0 1 1 0 799.5 -341.5) translate(156.746 724.965)"/>
                    <path d="M285.7 12.836v8.886c-5.003 0-9.053-3.975-9.053-8.886h9.054zm0-8.887c5.004 0 9.054 3.976 9.054 8.887h-9.053V3.949z" opacity=".6" transform="matrix(0 1 1 0 799.5 -341.5) translate(156.746 724.965)"/>
                    <path d="M260.048 12.836v8.392c-4.726 0-8.551-3.754-8.551-8.392h8.55zm0-8.393c4.726 0 8.55 3.755 8.55 8.393h-8.55V4.443z" opacity=".55" transform="matrix(0 1 1 0 799.5 -341.5) translate(156.746 724.965)"/>
                    <path d="M234.395 12.836v7.899c-4.447 0-8.048-3.534-8.048-7.9h8.048zm0-7.9c4.448 0 8.048 3.534 8.048 7.9h-8.048v-7.9z" opacity=".5" transform="matrix(0 1 1 0 799.5 -341.5) translate(156.746 724.965)"/>
                    <path d="M208.743 12.836v7.405c-4.17 0-7.545-3.313-7.545-7.405h7.545zm0-7.405c4.17 0 7.544 3.312 7.544 7.405h-7.544V5.43z" opacity=".45" transform="matrix(0 1 1 0 799.5 -341.5) translate(156.746 724.965)"/>
                    <path d="M183.09 12.836v6.911c-3.892 0-7.042-3.092-7.042-6.911h7.042zm0-6.912c3.892 0 7.042 3.092 7.042 6.912h-7.042V5.924z" opacity=".4" transform="matrix(0 1 1 0 799.5 -341.5) translate(156.746 724.965)"/>
                </g>
                <g>
                    <path d="M311.353 12.836v9.38c-5.281 0-9.557-4.196-9.557-9.38h9.557zm0-9.38c5.282 0 9.557 4.196 9.557 9.38h-9.557v-9.38z" opacity=".65" transform="matrix(0 1 1 0 799.5 -341.5) translate(181.746 750.965)"/>
                    <path d="M285.7 12.836v8.886c-5.003 0-9.053-3.975-9.053-8.886h9.054zm0-8.887c5.004 0 9.054 3.976 9.054 8.887h-9.053V3.949z" opacity=".6" transform="matrix(0 1 1 0 799.5 -341.5) translate(181.746 750.965)"/>
                    <path d="M260.048 12.836v8.392c-4.726 0-8.551-3.754-8.551-8.392h8.55zm0-8.393c4.726 0 8.55 3.755 8.55 8.393h-8.55V4.443z" opacity=".55" transform="matrix(0 1 1 0 799.5 -341.5) translate(181.746 750.965)"/>
                    <path d="M234.395 12.836v7.899c-4.447 0-8.048-3.534-8.048-7.9h8.048zm0-7.9c4.448 0 8.048 3.534 8.048 7.9h-8.048v-7.9z" opacity=".5" transform="matrix(0 1 1 0 799.5 -341.5) translate(181.746 750.965)"/>
                    <path d="M208.743 12.836v7.405c-4.17 0-7.545-3.313-7.545-7.405h7.545zm0-7.405c4.17 0 7.544 3.312 7.544 7.405h-7.544V5.43z" opacity=".45" transform="matrix(0 1 1 0 799.5 -341.5) translate(181.746 750.965)"/>
                    <path d="M183.09 12.836v6.911c-3.892 0-7.042-3.092-7.042-6.911h7.042zm0-6.912c3.892 0 7.042 3.092 7.042 6.912h-7.042V5.924z" opacity=".4" transform="matrix(0 1 1 0 799.5 -341.5) translate(181.746 750.965)"/>
                    <path d="M157.437 12.836v6.418c-3.614 0-6.539-2.871-6.539-6.418h6.54zm0-6.418c3.614 0 6.539 2.871 6.539 6.418h-6.539V6.418z" opacity=".35" transform="matrix(0 1 1 0 799.5 -341.5) translate(181.746 750.965)"/>
                </g>
                <g>
                    <path d="M285.7 12.836v8.886c-5.003 0-9.053-3.975-9.053-8.886h9.054zm0-8.887c5.004 0 9.054 3.976 9.054 8.887h-9.053V3.949z" opacity=".6" transform="matrix(0 1 1 0 799.5 -341.5) translate(207.746 778.965)"/>
                    <path d="M260.048 12.836v8.392c-4.726 0-8.551-3.754-8.551-8.392h8.55zm0-8.393c4.726 0 8.55 3.755 8.55 8.393h-8.55V4.443z" opacity=".55" transform="matrix(0 1 1 0 799.5 -341.5) translate(207.746 778.965)"/>
                    <path d="M234.395 12.836v7.899c-4.447 0-8.048-3.534-8.048-7.9h8.048zm0-7.9c4.448 0 8.048 3.534 8.048 7.9h-8.048v-7.9z" opacity=".5" transform="matrix(0 1 1 0 799.5 -341.5) translate(207.746 778.965)"/>
                    <path d="M208.743 12.836v7.405c-4.17 0-7.545-3.313-7.545-7.405h7.545zm0-7.405c4.17 0 7.544 3.312 7.544 7.405h-7.544V5.43z" opacity=".45" transform="matrix(0 1 1 0 799.5 -341.5) translate(207.746 778.965)"/>
                    <path d="M183.09 12.836v6.911c-3.892 0-7.042-3.092-7.042-6.911h7.042zm0-6.912c3.892 0 7.042 3.092 7.042 6.912h-7.042V5.924z" opacity=".4" transform="matrix(0 1 1 0 799.5 -341.5) translate(207.746 778.965)"/>
                    <path d="M157.437 12.836v6.418c-3.614 0-6.539-2.871-6.539-6.418h6.54zm0-6.418c3.614 0 6.539 2.871 6.539 6.418h-6.539V6.418z" opacity=".35" transform="matrix(0 1 1 0 799.5 -341.5) translate(207.746 778.965)"/>
                    <path d="M131.784 12.836v5.924c-3.335 0-6.035-2.65-6.035-5.924h6.035zm0-5.924c3.336 0 6.036 2.65 6.036 5.924h-6.036V6.912z" opacity=".3" transform="matrix(0 1 1 0 799.5 -341.5) translate(207.746 778.965)"/>
                </g>
                <g>
                    <path d="M260.048 12.836v8.392c-4.726 0-8.551-3.754-8.551-8.392h8.55zm0-8.393c4.726 0 8.55 3.755 8.55 8.393h-8.55V4.443z" opacity=".55" transform="matrix(0 1 1 0 799.5 -341.5) translate(233.746 804.965)"/>
                    <path d="M234.395 12.836v7.899c-4.447 0-8.048-3.534-8.048-7.9h8.048zm0-7.9c4.448 0 8.048 3.534 8.048 7.9h-8.048v-7.9z" opacity=".5" transform="matrix(0 1 1 0 799.5 -341.5) translate(233.746 804.965)"/>
                    <path d="M208.743 12.836v7.405c-4.17 0-7.545-3.313-7.545-7.405h7.545zm0-7.405c4.17 0 7.544 3.312 7.544 7.405h-7.544V5.43z" opacity=".45" transform="matrix(0 1 1 0 799.5 -341.5) translate(233.746 804.965)"/>
                    <path d="M183.09 12.836v6.911c-3.892 0-7.042-3.092-7.042-6.911h7.042zm0-6.912c3.892 0 7.042 3.092 7.042 6.912h-7.042V5.924z" opacity=".4" transform="matrix(0 1 1 0 799.5 -341.5) translate(233.746 804.965)"/>
                    <path d="M157.437 12.836v6.418c-3.614 0-6.539-2.871-6.539-6.418h6.54zm0-6.418c3.614 0 6.539 2.871 6.539 6.418h-6.539V6.418z" opacity=".35" transform="matrix(0 1 1 0 799.5 -341.5) translate(233.746 804.965)"/>
                    <path d="M131.784 12.836v5.924c-3.335 0-6.035-2.65-6.035-5.924h6.035zm0-5.924c3.336 0 6.036 2.65 6.036 5.924h-6.036V6.912z" opacity=".3" transform="matrix(0 1 1 0 799.5 -341.5) translate(233.746 804.965)"/>
                    <path d="M106.132 12.836v5.43c-3.058 0-5.533-2.429-5.533-5.43h5.533zm0-5.43c3.057 0 5.533 2.429 5.533 5.43h-5.533v-5.43z" opacity=".25" transform="matrix(0 1 1 0 799.5 -341.5) translate(233.746 804.965)"/>
                </g>
                <g>
                    <path d="M234.395 12.836v7.899c-4.447 0-8.048-3.534-8.048-7.9h8.048zm0-7.9c4.448 0 8.048 3.534 8.048 7.9h-8.048v-7.9z" opacity=".5" transform="matrix(0 1 1 0 799.5 -341.5) translate(258.746 830.965)"/>
                    <path d="M208.743 12.836v7.405c-4.17 0-7.545-3.313-7.545-7.405h7.545zm0-7.405c4.17 0 7.544 3.312 7.544 7.405h-7.544V5.43z" opacity=".45" transform="matrix(0 1 1 0 799.5 -341.5) translate(258.746 830.965)"/>
                    <path d="M183.09 12.836v6.911c-3.892 0-7.042-3.092-7.042-6.911h7.042zm0-6.912c3.892 0 7.042 3.092 7.042 6.912h-7.042V5.924z" opacity=".4" transform="matrix(0 1 1 0 799.5 -341.5) translate(258.746 830.965)"/>
                    <path d="M157.437 12.836v6.418c-3.614 0-6.539-2.871-6.539-6.418h6.54zm0-6.418c3.614 0 6.539 2.871 6.539 6.418h-6.539V6.418z" opacity=".35" transform="matrix(0 1 1 0 799.5 -341.5) translate(258.746 830.965)"/>
                    <path d="M131.784 12.836v5.924c-3.335 0-6.035-2.65-6.035-5.924h6.035zm0-5.924c3.336 0 6.036 2.65 6.036 5.924h-6.036V6.912z" opacity=".3" transform="matrix(0 1 1 0 799.5 -341.5) translate(258.746 830.965)"/>
                    <path d="M106.132 12.836v5.43c-3.058 0-5.533-2.429-5.533-5.43h5.533zm0-5.43c3.057 0 5.533 2.429 5.533 5.43h-5.533v-5.43z" opacity=".25" transform="matrix(0 1 1 0 799.5 -341.5) translate(258.746 830.965)"/>
                    <path d="M80.479 12.836v4.937c-2.78 0-5.03-2.209-5.03-4.937h5.03zm0-4.937c2.78 0 5.03 2.208 5.03 4.937h-5.03V7.899z" opacity=".2" transform="matrix(0 1 1 0 799.5 -341.5) translate(258.746 830.965)"/>
                </g>
                <g>
                    <path d="M208.743 12.836v7.405c-4.17 0-7.545-3.313-7.545-7.405h7.545zm0-7.405c4.17 0 7.544 3.312 7.544 7.405h-7.544V5.43z" opacity=".45" transform="matrix(0 1 1 0 799.5 -341.5) translate(284.746 857.965)"/>
                    <path d="M183.09 12.836v6.911c-3.892 0-7.042-3.092-7.042-6.911h7.042zm0-6.912c3.892 0 7.042 3.092 7.042 6.912h-7.042V5.924z" opacity=".4" transform="matrix(0 1 1 0 799.5 -341.5) translate(284.746 857.965)"/>
                    <path d="M157.437 12.836v6.418c-3.614 0-6.539-2.871-6.539-6.418h6.54zm0-6.418c3.614 0 6.539 2.871 6.539 6.418h-6.539V6.418z" opacity=".35" transform="matrix(0 1 1 0 799.5 -341.5) translate(284.746 857.965)"/>
                    <path d="M131.784 12.836v5.924c-3.335 0-6.035-2.65-6.035-5.924h6.035zm0-5.924c3.336 0 6.036 2.65 6.036 5.924h-6.036V6.912z" opacity=".3" transform="matrix(0 1 1 0 799.5 -341.5) translate(284.746 857.965)"/>
                    <path d="M106.132 12.836v5.43c-3.058 0-5.533-2.429-5.533-5.43h5.533zm0-5.43c3.057 0 5.533 2.429 5.533 5.43h-5.533v-5.43z" opacity=".25" transform="matrix(0 1 1 0 799.5 -341.5) translate(284.746 857.965)"/>
                    <path d="M80.479 12.836v4.937c-2.78 0-5.03-2.209-5.03-4.937h5.03zm0-4.937c2.78 0 5.03 2.208 5.03 4.937h-5.03V7.899z" opacity=".2" transform="matrix(0 1 1 0 799.5 -341.5) translate(284.746 857.965)"/>
                    <path d="M54.826 12.836v4.443c-2.501 0-4.527-1.988-4.527-4.443h4.527zm0-4.443c2.502 0 4.527 1.987 4.527 4.443h-4.527V8.393z" opacity=".15" transform="matrix(0 1 1 0 799.5 -341.5) translate(284.746 857.965)"/>
                </g>
                <g>
                    <path d="M183.09 12.836v6.911c-3.892 0-7.042-3.092-7.042-6.911h7.042zm0-6.912c3.892 0 7.042 3.092 7.042 6.912h-7.042V5.924z" opacity=".4" transform="matrix(0 1 1 0 799.5 -341.5) translate(310.746 885.965)"/>
                    <path d="M157.437 12.836v6.418c-3.614 0-6.539-2.871-6.539-6.418h6.54zm0-6.418c3.614 0 6.539 2.871 6.539 6.418h-6.539V6.418z" opacity=".35" transform="matrix(0 1 1 0 799.5 -341.5) translate(310.746 885.965)"/>
                    <path d="M131.784 12.836v5.924c-3.335 0-6.035-2.65-6.035-5.924h6.035zm0-5.924c3.336 0 6.036 2.65 6.036 5.924h-6.036V6.912z" opacity=".3" transform="matrix(0 1 1 0 799.5 -341.5) translate(310.746 885.965)"/>
                    <path d="M106.132 12.836v5.43c-3.058 0-5.533-2.429-5.533-5.43h5.533zm0-5.43c3.057 0 5.533 2.429 5.533 5.43h-5.533v-5.43z" opacity=".25" transform="matrix(0 1 1 0 799.5 -341.5) translate(310.746 885.965)"/>
                    <path d="M80.479 12.836v4.937c-2.78 0-5.03-2.209-5.03-4.937h5.03zm0-4.937c2.78 0 5.03 2.208 5.03 4.937h-5.03V7.899z" opacity=".2" transform="matrix(0 1 1 0 799.5 -341.5) translate(310.746 885.965)"/>
                    <path d="M54.826 12.836v4.443c-2.501 0-4.527-1.988-4.527-4.443h4.527zm0-4.443c2.502 0 4.527 1.987 4.527 4.443h-4.527V8.393z" opacity=".15" transform="matrix(0 1 1 0 799.5 -341.5) translate(310.746 885.965)"/>
                    <path d="M29.174 12.836v3.95c-2.224 0-4.024-1.768-4.024-3.95h4.024zm0-3.95c2.223 0 4.024 1.767 4.024 3.95h-4.024v-3.95z" opacity=".1" transform="matrix(0 1 1 0 799.5 -341.5) translate(310.746 885.965)"/>
                </g>
                <g>
                    <path d="M157.437 12.836v6.418c-3.614 0-6.539-2.871-6.539-6.418h6.54zm0-6.418c3.614 0 6.539 2.871 6.539 6.418h-6.539V6.418z" opacity=".35" transform="matrix(0 1 1 0 799.5 -341.5) translate(336.746 911.965)"/>
                    <path d="M131.784 12.836v5.924c-3.335 0-6.035-2.65-6.035-5.924h6.035zm0-5.924c3.336 0 6.036 2.65 6.036 5.924h-6.036V6.912z" opacity=".3" transform="matrix(0 1 1 0 799.5 -341.5) translate(336.746 911.965)"/>
                    <path d="M106.132 12.836v5.43c-3.058 0-5.533-2.429-5.533-5.43h5.533zm0-5.43c3.057 0 5.533 2.429 5.533 5.43h-5.533v-5.43z" opacity=".25" transform="matrix(0 1 1 0 799.5 -341.5) translate(336.746 911.965)"/>
                    <path d="M80.479 12.836v4.937c-2.78 0-5.03-2.209-5.03-4.937h5.03zm0-4.937c2.78 0 5.03 2.208 5.03 4.937h-5.03V7.899z" opacity=".2" transform="matrix(0 1 1 0 799.5 -341.5) translate(336.746 911.965)"/>
                    <path d="M54.826 12.836v4.443c-2.501 0-4.527-1.988-4.527-4.443h4.527zm0-4.443c2.502 0 4.527 1.987 4.527 4.443h-4.527V8.393z" opacity=".15" transform="matrix(0 1 1 0 799.5 -341.5) translate(336.746 911.965)"/>
                    <path d="M29.174 12.836v3.95c-2.224 0-4.024-1.768-4.024-3.95h4.024zm0-3.95c2.223 0 4.024 1.767 4.024 3.95h-4.024v-3.95z" opacity=".1" transform="matrix(0 1 1 0 799.5 -341.5) translate(336.746 911.965)"/>
                    <path d="M3.521 12.836v3.456C1.575 16.292 0 14.746 0 12.836h3.521zm0-3.456c1.946 0 3.52 1.546 3.52 3.456h-3.52V9.38z" opacity=".05" transform="matrix(0 1 1 0 799.5 -341.5) translate(336.746 911.965)"/>
                </g>
                <g>
                    <path d="M131.784 12.836v5.924c-3.335 0-6.035-2.65-6.035-5.924h6.035zm0-5.924c3.336 0 6.036 2.65 6.036 5.924h-6.036V6.912z" opacity=".3" transform="matrix(0 1 1 0 799.5 -341.5) translate(361.746 938.965)"/>
                    <path d="M106.132 12.836v5.43c-3.058 0-5.533-2.429-5.533-5.43h5.533zm0-5.43c3.057 0 5.533 2.429 5.533 5.43h-5.533v-5.43z" opacity=".25" transform="matrix(0 1 1 0 799.5 -341.5) translate(361.746 938.965)"/>
                    <path d="M80.479 12.836v4.937c-2.78 0-5.03-2.209-5.03-4.937h5.03zm0-4.937c2.78 0 5.03 2.208 5.03 4.937h-5.03V7.899z" opacity=".2" transform="matrix(0 1 1 0 799.5 -341.5) translate(361.746 938.965)"/>
                    <path d="M54.826 12.836v4.443c-2.501 0-4.527-1.988-4.527-4.443h4.527zm0-4.443c2.502 0 4.527 1.987 4.527 4.443h-4.527V8.393z" opacity=".15" transform="matrix(0 1 1 0 799.5 -341.5) translate(361.746 938.965)"/>
                    <path d="M29.174 12.836v3.95c-2.224 0-4.024-1.768-4.024-3.95h4.024zm0-3.95c2.223 0 4.024 1.767 4.024 3.95h-4.024v-3.95z" opacity=".1" transform="matrix(0 1 1 0 799.5 -341.5) translate(361.746 938.965)"/>
                    <path d="M3.521 12.836v3.456C1.575 16.292 0 14.746 0 12.836h3.521zm0-3.456c1.946 0 3.52 1.546 3.52 3.456h-3.52V9.38z" opacity=".05" transform="matrix(0 1 1 0 799.5 -341.5) translate(361.746 938.965)"/>
                </g>
                <g>
                    <path d="M106.132 12.836v5.43c-3.058 0-5.533-2.429-5.533-5.43h5.533zm0-5.43c3.057 0 5.533 2.429 5.533 5.43h-5.533v-5.43z" opacity=".25" transform="matrix(0 1 1 0 799.5 -341.5) translate(386.746 965.965)"/>
                    <path d="M80.479 12.836v4.937c-2.78 0-5.03-2.209-5.03-4.937h5.03zm0-4.937c2.78 0 5.03 2.208 5.03 4.937h-5.03V7.899z" opacity=".2" transform="matrix(0 1 1 0 799.5 -341.5) translate(386.746 965.965)"/>
                    <path d="M54.826 12.836v4.443c-2.501 0-4.527-1.988-4.527-4.443h4.527zm0-4.443c2.502 0 4.527 1.987 4.527 4.443h-4.527V8.393z" opacity=".15" transform="matrix(0 1 1 0 799.5 -341.5) translate(386.746 965.965)"/>
                    <path d="M29.174 12.836v3.95c-2.224 0-4.024-1.768-4.024-3.95h4.024zm0-3.95c2.223 0 4.024 1.767 4.024 3.95h-4.024v-3.95z" opacity=".1" transform="matrix(0 1 1 0 799.5 -341.5) translate(386.746 965.965)"/>
                    <path d="M3.521 12.836v3.456C1.575 16.292 0 14.746 0 12.836h3.521zm0-3.456c1.946 0 3.52 1.546 3.52 3.456h-3.52V9.38z" opacity=".05" transform="matrix(0 1 1 0 799.5 -341.5) translate(386.746 965.965)"/>
                </g>
                <g>
                    <path d="M80.479 12.836v4.937c-2.78 0-5.03-2.209-5.03-4.937h5.03zm0-4.937c2.78 0 5.03 2.208 5.03 4.937h-5.03V7.899z" opacity=".2" transform="matrix(0 1 1 0 799.5 -341.5) translate(412.746 991.965)"/>
                    <path d="M54.826 12.836v4.443c-2.501 0-4.527-1.988-4.527-4.443h4.527zm0-4.443c2.502 0 4.527 1.987 4.527 4.443h-4.527V8.393z" opacity=".15" transform="matrix(0 1 1 0 799.5 -341.5) translate(412.746 991.965)"/>
                    <path d="M29.174 12.836v3.95c-2.224 0-4.024-1.768-4.024-3.95h4.024zm0-3.95c2.223 0 4.024 1.767 4.024 3.95h-4.024v-3.95z" opacity=".1" transform="matrix(0 1 1 0 799.5 -341.5) translate(412.746 991.965)"/>
                    <path d="M3.521 12.836v3.456C1.575 16.292 0 14.746 0 12.836h3.521zm0-3.456c1.946 0 3.52 1.546 3.52 3.456h-3.52V9.38z" opacity=".05" transform="matrix(0 1 1 0 799.5 -341.5) translate(412.746 991.965)"/>
                </g>
                <g>
                    <path d="M54.826 12.836v4.443c-2.501 0-4.527-1.988-4.527-4.443h4.527zm0-4.443c2.502 0 4.527 1.987 4.527 4.443h-4.527V8.393z" opacity=".15" transform="matrix(0 1 1 0 799.5 -341.5) translate(438.746 1018.965)"/>
                    <path d="M29.174 12.836v3.95c-2.224 0-4.024-1.768-4.024-3.95h4.024zm0-3.95c2.223 0 4.024 1.767 4.024 3.95h-4.024v-3.95z" opacity=".1" transform="matrix(0 1 1 0 799.5 -341.5) translate(438.746 1018.965)"/>
                    <path d="M3.521 12.836v3.456C1.575 16.292 0 14.746 0 12.836h3.521zm0-3.456c1.946 0 3.52 1.546 3.52 3.456h-3.52V9.38z" opacity=".05" transform="matrix(0 1 1 0 799.5 -341.5) translate(438.746 1018.965)"/>
                </g>
                <g>
                    <path d="M29.174 12.836v3.95c-2.224 0-4.024-1.768-4.024-3.95h4.024zm0-3.95c2.223 0 4.024 1.767 4.024 3.95h-4.024v-3.95z" opacity=".1" transform="matrix(0 1 1 0 799.5 -341.5) translate(465.746 1044.965)"/>
                    <path d="M3.521 12.836v3.456C1.575 16.292 0 14.746 0 12.836h3.521zm0-3.456c1.946 0 3.52 1.546 3.52 3.456h-3.52V9.38z" opacity=".05" transform="matrix(0 1 1 0 799.5 -341.5) translate(465.746 1044.965)"/>
                </g>
                <g>
                    <path d="M465.27 12.836v12.342c-6.95 0-12.575-5.521-12.575-12.342h12.574zm0-12.342c6.949 0 12.574 5.521 12.574 12.342H465.27V.494z" opacity=".95" transform="matrix(0 1 1 0 799.5 -341.5) translate(27.746 536.965)"/>
                    <path d="M439.617 12.836v11.848c-6.672 0-12.072-5.3-12.072-11.848h12.072zm0-11.849c6.671 0 12.072 5.3 12.072 11.849h-12.072V.987z" opacity=".9" transform="matrix(0 1 1 0 799.5 -341.5) translate(27.746 536.965)"/>
                    <path d="M413.964 12.836V24.19c-6.393 0-11.569-5.08-11.569-11.355h11.57zm0-11.355c6.394 0 11.569 5.08 11.569 11.355h-11.569V1.48z" opacity=".85" transform="matrix(0 1 1 0 799.5 -341.5) translate(27.746 536.965)"/>
                    <path d="M388.311 12.836v10.86c-6.115 0-11.065-4.858-11.065-10.86h11.065zm0-10.861c6.116 0 11.066 4.858 11.066 10.86h-11.066V1.976z" opacity=".8" transform="matrix(0 1 1 0 799.5 -341.5) translate(27.746 536.965)"/>
                    <path d="M362.659 12.836v10.367c-5.838 0-10.563-4.638-10.563-10.367h10.563zm0-10.368c5.837 0 10.563 4.638 10.563 10.368h-10.563V2.468z" opacity=".75" transform="matrix(0 1 1 0 799.5 -341.5) translate(27.746 536.965)"/>
                    <path d="M337.006 12.836v9.874c-5.56 0-10.06-4.418-10.06-9.874h10.06zm0-9.874c5.56 0 10.06 4.417 10.06 9.874h-10.06V2.962z" opacity=".7" transform="matrix(0 1 1 0 799.5 -341.5) translate(27.746 536.965)"/>
                    <path d="M311.353 12.836v9.38c-5.281 0-9.557-4.196-9.557-9.38h9.557zm0-9.38c5.282 0 9.557 4.196 9.557 9.38h-9.557v-9.38z" opacity=".65" transform="matrix(0 1 1 0 799.5 -341.5) translate(27.746 536.965)"/>
                </g>
                <g>
                    <path d="M439.617 12.836v11.848c-6.672 0-12.072-5.3-12.072-11.848h12.072zm0-11.849c6.671 0 12.072 5.3 12.072 11.849h-12.072V.987z" opacity=".9" transform="matrix(0 1 1 0 799.5 -341.5) translate(52.746 511.965)"/>
                    <path d="M413.964 12.836V24.19c-6.393 0-11.569-5.08-11.569-11.355h11.57zm0-11.355c6.394 0 11.569 5.08 11.569 11.355h-11.569V1.48z" opacity=".85" transform="matrix(0 1 1 0 799.5 -341.5) translate(52.746 511.965)"/>
                    <path d="M388.311 12.836v10.86c-6.115 0-11.065-4.858-11.065-10.86h11.065zm0-10.861c6.116 0 11.066 4.858 11.066 10.86h-11.066V1.976z" opacity=".8" transform="matrix(0 1 1 0 799.5 -341.5) translate(52.746 511.965)"/>
                    <path d="M362.659 12.836v10.367c-5.838 0-10.563-4.638-10.563-10.367h10.563zm0-10.368c5.837 0 10.563 4.638 10.563 10.368h-10.563V2.468z" opacity=".75" transform="matrix(0 1 1 0 799.5 -341.5) translate(52.746 511.965)"/>
                    <path d="M337.006 12.836v9.874c-5.56 0-10.06-4.418-10.06-9.874h10.06zm0-9.874c5.56 0 10.06 4.417 10.06 9.874h-10.06V2.962z" opacity=".7" transform="matrix(0 1 1 0 799.5 -341.5) translate(52.746 511.965)"/>
                    <path d="M311.353 12.836v9.38c-5.281 0-9.557-4.196-9.557-9.38h9.557zm0-9.38c5.282 0 9.557 4.196 9.557 9.38h-9.557v-9.38z" opacity=".65" transform="matrix(0 1 1 0 799.5 -341.5) translate(52.746 511.965)"/>
                    <path d="M285.7 12.836v8.886c-5.003 0-9.053-3.975-9.053-8.886h9.054zm0-8.887c5.004 0 9.054 3.976 9.054 8.887h-9.053V3.949z" opacity=".6" transform="matrix(0 1 1 0 799.5 -341.5) translate(52.746 511.965)"/>
                </g>
                <g>
                    <path d="M413.964 12.836V24.19c-6.393 0-11.569-5.08-11.569-11.355h11.57zm0-11.355c6.394 0 11.569 5.08 11.569 11.355h-11.569V1.48z" opacity=".85" transform="matrix(0 1 1 0 799.5 -341.5) translate(79.746 484.965)"/>
                    <path d="M388.311 12.836v10.86c-6.115 0-11.065-4.858-11.065-10.86h11.065zm0-10.861c6.116 0 11.066 4.858 11.066 10.86h-11.066V1.976z" opacity=".8" transform="matrix(0 1 1 0 799.5 -341.5) translate(79.746 484.965)"/>
                    <path d="M362.659 12.836v10.367c-5.838 0-10.563-4.638-10.563-10.367h10.563zm0-10.368c5.837 0 10.563 4.638 10.563 10.368h-10.563V2.468z" opacity=".75" transform="matrix(0 1 1 0 799.5 -341.5) translate(79.746 484.965)"/>
                    <path d="M337.006 12.836v9.874c-5.56 0-10.06-4.418-10.06-9.874h10.06zm0-9.874c5.56 0 10.06 4.417 10.06 9.874h-10.06V2.962z" opacity=".7" transform="matrix(0 1 1 0 799.5 -341.5) translate(79.746 484.965)"/>
                    <path d="M311.353 12.836v9.38c-5.281 0-9.557-4.196-9.557-9.38h9.557zm0-9.38c5.282 0 9.557 4.196 9.557 9.38h-9.557v-9.38z" opacity=".65" transform="matrix(0 1 1 0 799.5 -341.5) translate(79.746 484.965)"/>
                    <path d="M285.7 12.836v8.886c-5.003 0-9.053-3.975-9.053-8.886h9.054zm0-8.887c5.004 0 9.054 3.976 9.054 8.887h-9.053V3.949z" opacity=".6" transform="matrix(0 1 1 0 799.5 -341.5) translate(79.746 484.965)"/>
                    <path d="M260.048 12.836v8.392c-4.726 0-8.551-3.754-8.551-8.392h8.55zm0-8.393c4.726 0 8.55 3.755 8.55 8.393h-8.55V4.443z" opacity=".55" transform="matrix(0 1 1 0 799.5 -341.5) translate(79.746 484.965)"/>
                </g>
                <g>
                    <path d="M388.311 12.836v10.86c-6.115 0-11.065-4.858-11.065-10.86h11.065zm0-10.861c6.116 0 11.066 4.858 11.066 10.86h-11.066V1.976z" opacity=".8" transform="matrix(0 1 1 0 799.5 -341.5) translate(104.746 457.965)"/>
                    <path d="M362.659 12.836v10.367c-5.838 0-10.563-4.638-10.563-10.367h10.563zm0-10.368c5.837 0 10.563 4.638 10.563 10.368h-10.563V2.468z" opacity=".75" transform="matrix(0 1 1 0 799.5 -341.5) translate(104.746 457.965)"/>
                    <path d="M337.006 12.836v9.874c-5.56 0-10.06-4.418-10.06-9.874h10.06zm0-9.874c5.56 0 10.06 4.417 10.06 9.874h-10.06V2.962z" opacity=".7" transform="matrix(0 1 1 0 799.5 -341.5) translate(104.746 457.965)"/>
                    <path d="M311.353 12.836v9.38c-5.281 0-9.557-4.196-9.557-9.38h9.557zm0-9.38c5.282 0 9.557 4.196 9.557 9.38h-9.557v-9.38z" opacity=".65" transform="matrix(0 1 1 0 799.5 -341.5) translate(104.746 457.965)"/>
                    <path d="M285.7 12.836v8.886c-5.003 0-9.053-3.975-9.053-8.886h9.054zm0-8.887c5.004 0 9.054 3.976 9.054 8.887h-9.053V3.949z" opacity=".6" transform="matrix(0 1 1 0 799.5 -341.5) translate(104.746 457.965)"/>
                    <path d="M260.048 12.836v8.392c-4.726 0-8.551-3.754-8.551-8.392h8.55zm0-8.393c4.726 0 8.55 3.755 8.55 8.393h-8.55V4.443z" opacity=".55" transform="matrix(0 1 1 0 799.5 -341.5) translate(104.746 457.965)"/>
                    <path d="M234.395 12.836v7.899c-4.447 0-8.048-3.534-8.048-7.9h8.048zm0-7.9c4.448 0 8.048 3.534 8.048 7.9h-8.048v-7.9z" opacity=".5" transform="matrix(0 1 1 0 799.5 -341.5) translate(104.746 457.965)"/>
                </g>
                <g>
                    <path d="M362.659 12.836v10.367c-5.838 0-10.563-4.638-10.563-10.367h10.563zm0-10.368c5.837 0 10.563 4.638 10.563 10.368h-10.563V2.468z" opacity=".75" transform="matrix(0 1 1 0 799.5 -341.5) translate(130.746 432.965)"/>
                    <path d="M337.006 12.836v9.874c-5.56 0-10.06-4.418-10.06-9.874h10.06zm0-9.874c5.56 0 10.06 4.417 10.06 9.874h-10.06V2.962z" opacity=".7" transform="matrix(0 1 1 0 799.5 -341.5) translate(130.746 432.965)"/>
                    <path d="M311.353 12.836v9.38c-5.281 0-9.557-4.196-9.557-9.38h9.557zm0-9.38c5.282 0 9.557 4.196 9.557 9.38h-9.557v-9.38z" opacity=".65" transform="matrix(0 1 1 0 799.5 -341.5) translate(130.746 432.965)"/>
                    <path d="M285.7 12.836v8.886c-5.003 0-9.053-3.975-9.053-8.886h9.054zm0-8.887c5.004 0 9.054 3.976 9.054 8.887h-9.053V3.949z" opacity=".6" transform="matrix(0 1 1 0 799.5 -341.5) translate(130.746 432.965)"/>
                    <path d="M260.048 12.836v8.392c-4.726 0-8.551-3.754-8.551-8.392h8.55zm0-8.393c4.726 0 8.55 3.755 8.55 8.393h-8.55V4.443z" opacity=".55" transform="matrix(0 1 1 0 799.5 -341.5) translate(130.746 432.965)"/>
                    <path d="M234.395 12.836v7.899c-4.447 0-8.048-3.534-8.048-7.9h8.048zm0-7.9c4.448 0 8.048 3.534 8.048 7.9h-8.048v-7.9z" opacity=".5" transform="matrix(0 1 1 0 799.5 -341.5) translate(130.746 432.965)"/>
                    <path d="M208.743 12.836v7.405c-4.17 0-7.545-3.313-7.545-7.405h7.545zm0-7.405c4.17 0 7.544 3.312 7.544 7.405h-7.544V5.43z" opacity=".45" transform="matrix(0 1 1 0 799.5 -341.5) translate(130.746 432.965)"/>
                </g>
                <g>
                    <path d="M337.006 12.836v9.874c-5.56 0-10.06-4.418-10.06-9.874h10.06zm0-9.874c5.56 0 10.06 4.417 10.06 9.874h-10.06V2.962z" opacity=".7" transform="matrix(0 1 1 0 799.5 -341.5) translate(156.746 404.965)"/>
                    <path d="M311.353 12.836v9.38c-5.281 0-9.557-4.196-9.557-9.38h9.557zm0-9.38c5.282 0 9.557 4.196 9.557 9.38h-9.557v-9.38z" opacity=".65" transform="matrix(0 1 1 0 799.5 -341.5) translate(156.746 404.965)"/>
                    <path d="M285.7 12.836v8.886c-5.003 0-9.053-3.975-9.053-8.886h9.054zm0-8.887c5.004 0 9.054 3.976 9.054 8.887h-9.053V3.949z" opacity=".6" transform="matrix(0 1 1 0 799.5 -341.5) translate(156.746 404.965)"/>
                    <path d="M260.048 12.836v8.392c-4.726 0-8.551-3.754-8.551-8.392h8.55zm0-8.393c4.726 0 8.55 3.755 8.55 8.393h-8.55V4.443z" opacity=".55" transform="matrix(0 1 1 0 799.5 -341.5) translate(156.746 404.965)"/>
                    <path d="M234.395 12.836v7.899c-4.447 0-8.048-3.534-8.048-7.9h8.048zm0-7.9c4.448 0 8.048 3.534 8.048 7.9h-8.048v-7.9z" opacity=".5" transform="matrix(0 1 1 0 799.5 -341.5) translate(156.746 404.965)"/>
                    <path d="M208.743 12.836v7.405c-4.17 0-7.545-3.313-7.545-7.405h7.545zm0-7.405c4.17 0 7.544 3.312 7.544 7.405h-7.544V5.43z" opacity=".45" transform="matrix(0 1 1 0 799.5 -341.5) translate(156.746 404.965)"/>
                    <path d="M183.09 12.836v6.911c-3.892 0-7.042-3.092-7.042-6.911h7.042zm0-6.912c3.892 0 7.042 3.092 7.042 6.912h-7.042V5.924z" opacity=".4" transform="matrix(0 1 1 0 799.5 -341.5) translate(156.746 404.965)"/>
                </g>
                <g>
                    <path d="M311.353 12.836v9.38c-5.281 0-9.557-4.196-9.557-9.38h9.557zm0-9.38c5.282 0 9.557 4.196 9.557 9.38h-9.557v-9.38z" opacity=".65" transform="matrix(0 1 1 0 799.5 -341.5) translate(181.746 378.965)"/>
                    <path d="M285.7 12.836v8.886c-5.003 0-9.053-3.975-9.053-8.886h9.054zm0-8.887c5.004 0 9.054 3.976 9.054 8.887h-9.053V3.949z" opacity=".6" transform="matrix(0 1 1 0 799.5 -341.5) translate(181.746 378.965)"/>
                    <path d="M260.048 12.836v8.392c-4.726 0-8.551-3.754-8.551-8.392h8.55zm0-8.393c4.726 0 8.55 3.755 8.55 8.393h-8.55V4.443z" opacity=".55" transform="matrix(0 1 1 0 799.5 -341.5) translate(181.746 378.965)"/>
                    <path d="M234.395 12.836v7.899c-4.447 0-8.048-3.534-8.048-7.9h8.048zm0-7.9c4.448 0 8.048 3.534 8.048 7.9h-8.048v-7.9z" opacity=".5" transform="matrix(0 1 1 0 799.5 -341.5) translate(181.746 378.965)"/>
                    <path d="M208.743 12.836v7.405c-4.17 0-7.545-3.313-7.545-7.405h7.545zm0-7.405c4.17 0 7.544 3.312 7.544 7.405h-7.544V5.43z" opacity=".45" transform="matrix(0 1 1 0 799.5 -341.5) translate(181.746 378.965)"/>
                    <path d="M183.09 12.836v6.911c-3.892 0-7.042-3.092-7.042-6.911h7.042zm0-6.912c3.892 0 7.042 3.092 7.042 6.912h-7.042V5.924z" opacity=".4" transform="matrix(0 1 1 0 799.5 -341.5) translate(181.746 378.965)"/>
                    <path d="M157.437 12.836v6.418c-3.614 0-6.539-2.871-6.539-6.418h6.54zm0-6.418c3.614 0 6.539 2.871 6.539 6.418h-6.539V6.418z" opacity=".35" transform="matrix(0 1 1 0 799.5 -341.5) translate(181.746 378.965)"/>
                </g>
                <g>
                    <path d="M285.7 12.836v8.886c-5.003 0-9.053-3.975-9.053-8.886h9.054zm0-8.887c5.004 0 9.054 3.976 9.054 8.887h-9.053V3.949z" opacity=".6" transform="matrix(0 1 1 0 799.5 -341.5) translate(207.746 351.965)"/>
                    <path d="M260.048 12.836v8.392c-4.726 0-8.551-3.754-8.551-8.392h8.55zm0-8.393c4.726 0 8.55 3.755 8.55 8.393h-8.55V4.443z" opacity=".55" transform="matrix(0 1 1 0 799.5 -341.5) translate(207.746 351.965)"/>
                    <path d="M234.395 12.836v7.899c-4.447 0-8.048-3.534-8.048-7.9h8.048zm0-7.9c4.448 0 8.048 3.534 8.048 7.9h-8.048v-7.9z" opacity=".5" transform="matrix(0 1 1 0 799.5 -341.5) translate(207.746 351.965)"/>
                    <path d="M208.743 12.836v7.405c-4.17 0-7.545-3.313-7.545-7.405h7.545zm0-7.405c4.17 0 7.544 3.312 7.544 7.405h-7.544V5.43z" opacity=".45" transform="matrix(0 1 1 0 799.5 -341.5) translate(207.746 351.965)"/>
                    <path d="M183.09 12.836v6.911c-3.892 0-7.042-3.092-7.042-6.911h7.042zm0-6.912c3.892 0 7.042 3.092 7.042 6.912h-7.042V5.924z" opacity=".4" transform="matrix(0 1 1 0 799.5 -341.5) translate(207.746 351.965)"/>
                    <path d="M157.437 12.836v6.418c-3.614 0-6.539-2.871-6.539-6.418h6.54zm0-6.418c3.614 0 6.539 2.871 6.539 6.418h-6.539V6.418z" opacity=".35" transform="matrix(0 1 1 0 799.5 -341.5) translate(207.746 351.965)"/>
                    <path d="M131.784 12.836v5.924c-3.335 0-6.035-2.65-6.035-5.924h6.035zm0-5.924c3.336 0 6.036 2.65 6.036 5.924h-6.036V6.912z" opacity=".3" transform="matrix(0 1 1 0 799.5 -341.5) translate(207.746 351.965)"/>
                </g>
                <g>
                    <path d="M260.048 12.836v8.392c-4.726 0-8.551-3.754-8.551-8.392h8.55zm0-8.393c4.726 0 8.55 3.755 8.55 8.393h-8.55V4.443z" opacity=".55" transform="matrix(0 1 1 0 799.5 -341.5) translate(233.746 323.965)"/>
                    <path d="M234.395 12.836v7.899c-4.447 0-8.048-3.534-8.048-7.9h8.048zm0-7.9c4.448 0 8.048 3.534 8.048 7.9h-8.048v-7.9z" opacity=".5" transform="matrix(0 1 1 0 799.5 -341.5) translate(233.746 323.965)"/>
                    <path d="M208.743 12.836v7.405c-4.17 0-7.545-3.313-7.545-7.405h7.545zm0-7.405c4.17 0 7.544 3.312 7.544 7.405h-7.544V5.43z" opacity=".45" transform="matrix(0 1 1 0 799.5 -341.5) translate(233.746 323.965)"/>
                    <path d="M183.09 12.836v6.911c-3.892 0-7.042-3.092-7.042-6.911h7.042zm0-6.912c3.892 0 7.042 3.092 7.042 6.912h-7.042V5.924z" opacity=".4" transform="matrix(0 1 1 0 799.5 -341.5) translate(233.746 323.965)"/>
                    <path d="M157.437 12.836v6.418c-3.614 0-6.539-2.871-6.539-6.418h6.54zm0-6.418c3.614 0 6.539 2.871 6.539 6.418h-6.539V6.418z" opacity=".35" transform="matrix(0 1 1 0 799.5 -341.5) translate(233.746 323.965)"/>
                    <path d="M131.784 12.836v5.924c-3.335 0-6.035-2.65-6.035-5.924h6.035zm0-5.924c3.336 0 6.036 2.65 6.036 5.924h-6.036V6.912z" opacity=".3" transform="matrix(0 1 1 0 799.5 -341.5) translate(233.746 323.965)"/>
                    <path d="M106.132 12.836v5.43c-3.058 0-5.533-2.429-5.533-5.43h5.533zm0-5.43c3.057 0 5.533 2.429 5.533 5.43h-5.533v-5.43z" opacity=".25" transform="matrix(0 1 1 0 799.5 -341.5) translate(233.746 323.965)"/>
                </g>
                <g>
                    <path d="M208.743 12.836v7.405c-4.17 0-7.545-3.313-7.545-7.405h7.545zm0-7.405c4.17 0 7.544 3.312 7.544 7.405h-7.544V5.43z" opacity=".45" transform="matrix(0 1 1 0 799.5 -341.5) translate(285.746 296.965)"/>
                    <path d="M183.09 12.836v6.911c-3.892 0-7.042-3.092-7.042-6.911h7.042zm0-6.912c3.892 0 7.042 3.092 7.042 6.912h-7.042V5.924z" opacity=".4" transform="matrix(0 1 1 0 799.5 -341.5) translate(285.746 296.965)"/>
                    <path d="M157.437 12.836v6.418c-3.614 0-6.539-2.871-6.539-6.418h6.54zm0-6.418c3.614 0 6.539 2.871 6.539 6.418h-6.539V6.418z" opacity=".35" transform="matrix(0 1 1 0 799.5 -341.5) translate(285.746 296.965)"/>
                    <path d="M131.784 12.836v5.924c-3.335 0-6.035-2.65-6.035-5.924h6.035zm0-5.924c3.336 0 6.036 2.65 6.036 5.924h-6.036V6.912z" opacity=".3" transform="matrix(0 1 1 0 799.5 -341.5) translate(285.746 296.965)"/>
                    <path d="M106.132 12.836v5.43c-3.058 0-5.533-2.429-5.533-5.43h5.533zm0-5.43c3.057 0 5.533 2.429 5.533 5.43h-5.533v-5.43z" opacity=".25" transform="matrix(0 1 1 0 799.5 -341.5) translate(285.746 296.965)"/>
                    <path d="M80.479 12.836v4.937c-2.78 0-5.03-2.209-5.03-4.937h5.03zm0-4.937c2.78 0 5.03 2.208 5.03 4.937h-5.03V7.899z" opacity=".2" transform="matrix(0 1 1 0 799.5 -341.5) translate(285.746 296.965)"/>
                    <path d="M54.826 12.836v4.443c-2.501 0-4.527-1.988-4.527-4.443h4.527zm0-4.443c2.502 0 4.527 1.987 4.527 4.443h-4.527V8.393z" opacity=".15" transform="matrix(0 1 1 0 799.5 -341.5) translate(285.746 296.965)"/>
                </g>
                <g>
                    <path d="M183.09 12.836v6.911c-3.892 0-7.042-3.092-7.042-6.911h7.042zm0-6.912c3.892 0 7.042 3.092 7.042 6.912h-7.042V5.924z" opacity=".4" transform="matrix(0 1 1 0 799.5 -341.5) translate(310.746 269.965)"/>
                    <path d="M157.437 12.836v6.418c-3.614 0-6.539-2.871-6.539-6.418h6.54zm0-6.418c3.614 0 6.539 2.871 6.539 6.418h-6.539V6.418z" opacity=".35" transform="matrix(0 1 1 0 799.5 -341.5) translate(310.746 269.965)"/>
                    <path d="M131.784 12.836v5.924c-3.335 0-6.035-2.65-6.035-5.924h6.035zm0-5.924c3.336 0 6.036 2.65 6.036 5.924h-6.036V6.912z" opacity=".3" transform="matrix(0 1 1 0 799.5 -341.5) translate(310.746 269.965)"/>
                    <path d="M106.132 12.836v5.43c-3.058 0-5.533-2.429-5.533-5.43h5.533zm0-5.43c3.057 0 5.533 2.429 5.533 5.43h-5.533v-5.43z" opacity=".25" transform="matrix(0 1 1 0 799.5 -341.5) translate(310.746 269.965)"/>
                    <path d="M80.479 12.836v4.937c-2.78 0-5.03-2.209-5.03-4.937h5.03zm0-4.937c2.78 0 5.03 2.208 5.03 4.937h-5.03V7.899z" opacity=".2" transform="matrix(0 1 1 0 799.5 -341.5) translate(310.746 269.965)"/>
                    <path d="M54.826 12.836v4.443c-2.501 0-4.527-1.988-4.527-4.443h4.527zm0-4.443c2.502 0 4.527 1.987 4.527 4.443h-4.527V8.393z" opacity=".15" transform="matrix(0 1 1 0 799.5 -341.5) translate(310.746 269.965)"/>
                    <path d="M29.174 12.836v3.95c-2.224 0-4.024-1.768-4.024-3.95h4.024zm0-3.95c2.223 0 4.024 1.767 4.024 3.95h-4.024v-3.95z" opacity=".1" transform="matrix(0 1 1 0 799.5 -341.5) translate(310.746 269.965)"/>
                </g>
                <g>
                    <path d="M157.437 12.836v6.418c-3.614 0-6.539-2.871-6.539-6.418h6.54zm0-6.418c3.614 0 6.539 2.871 6.539 6.418h-6.539V6.418z" opacity=".35" transform="matrix(0 1 1 0 799.5 -341.5) translate(336.746 242.965)"/>
                    <path d="M131.784 12.836v5.924c-3.335 0-6.035-2.65-6.035-5.924h6.035zm0-5.924c3.336 0 6.036 2.65 6.036 5.924h-6.036V6.912z" opacity=".3" transform="matrix(0 1 1 0 799.5 -341.5) translate(336.746 242.965)"/>
                    <path d="M106.132 12.836v5.43c-3.058 0-5.533-2.429-5.533-5.43h5.533zm0-5.43c3.057 0 5.533 2.429 5.533 5.43h-5.533v-5.43z" opacity=".25" transform="matrix(0 1 1 0 799.5 -341.5) translate(336.746 242.965)"/>
                    <path d="M80.479 12.836v4.937c-2.78 0-5.03-2.209-5.03-4.937h5.03zm0-4.937c2.78 0 5.03 2.208 5.03 4.937h-5.03V7.899z" opacity=".2" transform="matrix(0 1 1 0 799.5 -341.5) translate(336.746 242.965)"/>
                    <path d="M54.826 12.836v4.443c-2.501 0-4.527-1.988-4.527-4.443h4.527zm0-4.443c2.502 0 4.527 1.987 4.527 4.443h-4.527V8.393z" opacity=".15" transform="matrix(0 1 1 0 799.5 -341.5) translate(336.746 242.965)"/>
                    <path d="M29.174 12.836v3.95c-2.224 0-4.024-1.768-4.024-3.95h4.024zm0-3.95c2.223 0 4.024 1.767 4.024 3.95h-4.024v-3.95z" opacity=".1" transform="matrix(0 1 1 0 799.5 -341.5) translate(336.746 242.965)"/>
                    <path d="M3.521 12.836v3.456C1.575 16.292 0 14.746 0 12.836h3.521zm0-3.456c1.946 0 3.52 1.546 3.52 3.456h-3.52V9.38z" opacity=".05" transform="matrix(0 1 1 0 799.5 -341.5) translate(336.746 242.965)"/>
                </g>
                <g>
                    <path d="M131.784 12.836v5.924c-3.335 0-6.035-2.65-6.035-5.924h6.035zm0-5.924c3.336 0 6.036 2.65 6.036 5.924h-6.036V6.912z" opacity=".3" transform="matrix(0 1 1 0 799.5 -341.5) translate(362.746 216.965)"/>
                    <path d="M106.132 12.836v5.43c-3.058 0-5.533-2.429-5.533-5.43h5.533zm0-5.43c3.057 0 5.533 2.429 5.533 5.43h-5.533v-5.43z" opacity=".25" transform="matrix(0 1 1 0 799.5 -341.5) translate(362.746 216.965)"/>
                    <path d="M80.479 12.836v4.937c-2.78 0-5.03-2.209-5.03-4.937h5.03zm0-4.937c2.78 0 5.03 2.208 5.03 4.937h-5.03V7.899z" opacity=".2" transform="matrix(0 1 1 0 799.5 -341.5) translate(362.746 216.965)"/>
                    <path d="M54.826 12.836v4.443c-2.501 0-4.527-1.988-4.527-4.443h4.527zm0-4.443c2.502 0 4.527 1.987 4.527 4.443h-4.527V8.393z" opacity=".15" transform="matrix(0 1 1 0 799.5 -341.5) translate(362.746 216.965)"/>
                    <path d="M29.174 12.836v3.95c-2.224 0-4.024-1.768-4.024-3.95h4.024zm0-3.95c2.223 0 4.024 1.767 4.024 3.95h-4.024v-3.95z" opacity=".1" transform="matrix(0 1 1 0 799.5 -341.5) translate(362.746 216.965)"/>
                    <path d="M3.521 12.836v3.456C1.575 16.292 0 14.746 0 12.836h3.521zm0-3.456c1.946 0 3.52 1.546 3.52 3.456h-3.52V9.38z" opacity=".05" transform="matrix(0 1 1 0 799.5 -341.5) translate(362.746 216.965)"/>
                </g>
                <g>
                    <path d="M106.132 12.836v5.43c-3.058 0-5.533-2.429-5.533-5.43h5.533zm0-5.43c3.057 0 5.533 2.429 5.533 5.43h-5.533v-5.43z" opacity=".25" transform="matrix(0 1 1 0 799.5 -341.5) translate(388.746 190.965)"/>
                    <path d="M80.479 12.836v4.937c-2.78 0-5.03-2.209-5.03-4.937h5.03zm0-4.937c2.78 0 5.03 2.208 5.03 4.937h-5.03V7.899z" opacity=".2" transform="matrix(0 1 1 0 799.5 -341.5) translate(388.746 190.965)"/>
                    <path d="M54.826 12.836v4.443c-2.501 0-4.527-1.988-4.527-4.443h4.527zm0-4.443c2.502 0 4.527 1.987 4.527 4.443h-4.527V8.393z" opacity=".15" transform="matrix(0 1 1 0 799.5 -341.5) translate(388.746 190.965)"/>
                    <path d="M29.174 12.836v3.95c-2.224 0-4.024-1.768-4.024-3.95h4.024zm0-3.95c2.223 0 4.024 1.767 4.024 3.95h-4.024v-3.95z" opacity=".1" transform="matrix(0 1 1 0 799.5 -341.5) translate(388.746 190.965)"/>
                    <path d="M3.521 12.836v3.456C1.575 16.292 0 14.746 0 12.836h3.521zm0-3.456c1.946 0 3.52 1.546 3.52 3.456h-3.52V9.38z" opacity=".05" transform="matrix(0 1 1 0 799.5 -341.5) translate(388.746 190.965)"/>
                </g>
                <g>
                    <path d="M80.479 12.836v4.937c-2.78 0-5.03-2.209-5.03-4.937h5.03zm0-4.937c2.78 0 5.03 2.208 5.03 4.937h-5.03V7.899z" opacity=".2" transform="matrix(0 1 1 0 799.5 -341.5) translate(414.746 163.965)"/>
                    <path d="M54.826 12.836v4.443c-2.501 0-4.527-1.988-4.527-4.443h4.527zm0-4.443c2.502 0 4.527 1.987 4.527 4.443h-4.527V8.393z" opacity=".15" transform="matrix(0 1 1 0 799.5 -341.5) translate(414.746 163.965)"/>
                    <path d="M29.174 12.836v3.95c-2.224 0-4.024-1.768-4.024-3.95h4.024zm0-3.95c2.223 0 4.024 1.767 4.024 3.95h-4.024v-3.95z" opacity=".1" transform="matrix(0 1 1 0 799.5 -341.5) translate(414.746 163.965)"/>
                    <path d="M3.521 12.836v3.456C1.575 16.292 0 14.746 0 12.836h3.521zm0-3.456c1.946 0 3.52 1.546 3.52 3.456h-3.52V9.38z" opacity=".05" transform="matrix(0 1 1 0 799.5 -341.5) translate(414.746 163.965)"/>
                </g>
                <g>
                    <path d="M54.826 12.836v4.443c-2.501 0-4.527-1.988-4.527-4.443h4.527zm0-4.443c2.502 0 4.527 1.987 4.527 4.443h-4.527V8.393z" opacity=".15" transform="matrix(0 1 1 0 799.5 -341.5) translate(438.746 135.965)"/>
                    <path d="M29.174 12.836v3.95c-2.224 0-4.024-1.768-4.024-3.95h4.024zm0-3.95c2.223 0 4.024 1.767 4.024 3.95h-4.024v-3.95z" opacity=".1" transform="matrix(0 1 1 0 799.5 -341.5) translate(438.746 135.965)"/>
                    <path d="M3.521 12.836v3.456C1.575 16.292 0 14.746 0 12.836h3.521zm0-3.456c1.946 0 3.52 1.546 3.52 3.456h-3.52V9.38z" opacity=".05" transform="matrix(0 1 1 0 799.5 -341.5) translate(438.746 135.965)"/>
                </g>
                <g>
                    <path d="M29.174 12.836v3.95c-2.224 0-4.024-1.768-4.024-3.95h4.024zm0-3.95c2.223 0 4.024 1.767 4.024 3.95h-4.024v-3.95z" opacity=".1" transform="matrix(0 1 1 0 799.5 -341.5) translate(465.746 109.965)"/>
                    <path d="M3.521 12.836v3.456C1.575 16.292 0 14.746 0 12.836h3.521zm0-3.456c1.946 0 3.52 1.546 3.52 3.456h-3.52V9.38z" opacity=".05" transform="matrix(0 1 1 0 799.5 -341.5) translate(465.746 109.965)"/>
                </g>
                <path d="M494.267 94.801v3.456c-1.946 0-3.52-1.546-3.52-3.456h3.52zm0-3.456c1.946 0 3.521 1.546 3.521 3.456h-3.52v-3.456z" opacity=".05" transform="matrix(0 1 1 0 799.5 -341.5)"/>
            </g>
        </g>
    </g>
</svg>
