<svg xmlns="http://www.w3.org/2000/svg" width="39" height="30" viewBox="0 0 39 30">
    <g fill="none" fill-rule="evenodd">
        <path fill="#D6D6D6" d="M10.398 0L0 29.275 27.852 29.275 38.25 0z"/>
        <path fill="#FFF" d="M10.25 19.528l2.485-1.997c.759 1.533 2.6 2.299 4.224 2.299 1.81 0 2.868-.929 3.038-2.136.127-.906-.468-1.626-2.602-1.626-.65 0-1.628.023-1.863.046l1.067-2.972c.252.023 1.575.023 2.178.023 1.717 0 3.085-.488 3.268-1.788.143-1.022-.9-1.696-2.825-1.696-1.323 0-2.724.396-3.935 1.255l-.867-2.253c1.439-1.161 3.45-1.927 5.537-1.927 3.69 0 5.917 1.486 5.558 4.04-.293 2.09-2.66 3.577-4.714 3.832 1.545.395 2.7 1.417 2.424 3.39-.385 2.741-3.333 4.738-6.651 4.738-2.83 0-5.452-1.162-6.322-3.228"/>
    </g>
</svg>
