<?xml version="1.0" encoding="utf-8"?>
<!-- Generator: Adobe Illustrator 24.3.0, SVG Export Plug-In . SVG Version: 6.00 Build 0)  -->
<svg version="1.1" id="圖層_1" xmlns="http://www.w3.org/2000/svg" xmlns:xlink="http://www.w3.org/1999/xlink" x="0px" y="0px"
	 viewBox="0 0 39 30" style="enable-background:new 0 0 39 30;" xml:space="preserve">
<style type="text/css">
	.st0{fill-rule:evenodd;clip-rule:evenodd;fill:#1C69D4;}
	.st1{fill-rule:evenodd;clip-rule:evenodd;fill:#FFFFFF;}
</style>
<g>
	<path class="st0" d="M10.4,0L0,29.3h27.9L38.3,0H10.4z"/>
	<path class="st1" d="M10.3,19.5l2.5-2c0.8,1.5,2.6,2.3,4.2,2.3c1.8,0,2.9-0.9,3-2.1c0.1-0.9-0.5-1.6-2.6-1.6c-0.6,0-1.6,0-1.9,0
		l1.1-3c0.3,0,1.6,0,2.2,0c1.7,0,3.1-0.5,3.3-1.8c0.1-1-0.9-1.7-2.8-1.7c-1.3,0-2.7,0.4-3.9,1.3l-0.9-2.3c1.4-1.2,3.4-1.9,5.5-1.9
		c3.7,0,5.9,1.5,5.6,4c-0.3,2.1-2.7,3.6-4.7,3.8c1.5,0.4,2.7,1.4,2.4,3.4c-0.4,2.7-3.3,4.7-6.7,4.7C13.7,22.8,11.1,21.6,10.3,19.5"
		/>
</g>
</svg>
